SplineFontDB: 3.0
FontName: Butcherman-Regular
FullName: Butcherman
FamilyName: Butcherman
Weight: Regular
Copyright: Copyright (c) 2011, Typomondo, with Reserved Font Name  "Butcherman".
Version: 001.003
ItalicAngle: 0
UnderlinePosition: -103
UnderlineWidth: 102
Ascent: 1638
Descent: 410
sfntRevision: 0x00010083
LayerCount: 2
Layer: 0 1 "Back"  1
Layer: 1 1 "Fore"  0
NeedsXUIDChange: 1
XUID: [1021 14 500265001 11126761]
FSType: 0
OS2Version: 3
OS2_WeightWidthSlopeOnly: 0
OS2_UseTypoMetrics: 1
CreationTime: 1319103480
ModificationTime: 1319458856
PfmFamily: 81
TTFWeight: 400
TTFWidth: 5
LineGap: 0
VLineGap: 0
Panose: 2 0 0 0 0 0 0 0 0 0
OS2TypoAscent: 2600
OS2TypoAOffset: 0
OS2TypoDescent: -1363
OS2TypoDOffset: 0
OS2TypoLinegap: 0
OS2WinAscent: 2600
OS2WinAOffset: 0
OS2WinDescent: 1363
OS2WinDOffset: 0
HheadAscent: 2600
HheadAOffset: 0
HheadDescent: -1363
HheadDOffset: 0
OS2SubXSize: 1331
OS2SubYSize: 1228
OS2SubXOff: 0
OS2SubYOff: 153
OS2SupXSize: 1331
OS2SupYSize: 1228
OS2SupXOff: 0
OS2SupYOff: 716
OS2StrikeYSize: 102
OS2StrikeYPos: 754
OS2Vendor: 'typm'
OS2CodePages: 20000081.00000000
OS2UnicodeRanges: 00000003.00000000.00000000.00000000
Lookup: 4 0 1 "'liga' Standard Ligatures in Latin lookup 0"  {"'liga'"  } ['liga' ('DFLT' <'dflt' > 'latn' <'dflt' > ) ]
MarkAttachClasses: 1
DEI: 91125
TtTable: prep
PUSHW_1
 511
SCANCTRL
PUSHB_1
 4
SCANTYPE
EndTTInstrs
LangName: 1033 "" "" "" "" "" "" "" "" "" "" "" "" "" "This Font Software is licensed under the SIL Open Font License, Version 1.1. This license is available with a FAQ at: http://scripts.sil.org/OFL" "http://scripts.sil.org/OFL" 
GaspTable: 1 65535 3
Encoding: Custom
UnicodeInterp: none
NameList: Adobe Glyph List
DisplaySize: -48
AntiAlias: 1
FitToEm: 1
WidthSeparation: 307
WinInfo: 100 25 10
BeginPrivate: 4
StdHW 5 [279]
StdVW 4 [55]
StemSnapH 13 [279 334 362]
StemSnapV 19 [55 82 389 446 502]
EndPrivate
GridOrder2: 1
Grid
-2048 1114.5 m 1,0,-1
 4096 1114.5 l 1
EndSplineSet
BeginChars: 338 329

StartChar: o_o
Encoding: 327 -1 0
Width: 2106
VWidth: 2308
Flags: HW
HStem: 6 186<486.511 575.433> 1072 25<53 56> 1492 20G<348.5 529 530.636 565 1342 1555 1556.73 1592>
VStem: 741 40<-154.928 -44.3526> 1767 40<-154.928 -57.5547>
LayerCount: 2
Fore
SplineSet
1015 1026 m 1,0,-1
 998 842 l 1,1,-1
 1015 842 l 1,2,3
 1003.24773414 683.344410876 1003.24773414 683.344410876 972.123867069 566.172205438 c 128,-1,4
 941 449 941 449 913 347 c 128,-1,5
 885 245 885 245 871 192 c 1,6,-1
 889 170 l 1,7,8
 847 127 847 127 812 48 c 128,-1,9
 777 -31 777 -31 781 -91 c 1,10,-1
 781 -155 l 1,11,-1
 763 -155 l 2,12,13
 741 -155 741 -155 741 -128 c 1,14,-1
 745 -76 l 1,15,16
 745 -60 745 -60 733.5 -50 c 128,-1,17
 722 -40 722 -40 709 -38 c 1,18,-1
 709 -60 l 1,19,-1
 698 -58 l 1,20,-1
 673 -86 l 1,21,-1
 655 -66 l 1,22,-1
 655 -109 l 1,23,-1
 629 -134 l 1,24,25
 575.254985755 -122.88034188 575.254985755 -122.88034188 578 -57 c 0,26,27
 580.625 6 580.625 6 529 6 c 0,28,29
 516 6 516 6 500.5 -8 c 128,-1,30
 485 -22 485 -22 481.5 -22 c 128,-1,31
 478 -22 478 -22 474 -16 c 1,32,-1
 434 -73 l 1,33,34
 425.333333333 -47 425.333333333 -47 400.666666667 -10 c 128,-1,35
 376 27 376 27 365.5 35 c 128,-1,36
 355 43 355 43 345 43 c 1,37,-1
 274 16 l 1,38,39
 272 46 272 46 242.5 87.5 c 128,-1,40
 213 129 213 129 213 170 c 1,41,-1
 215 170 l 1,42,43
 138 453 138 453 67 1050 c 1,44,-1
 60 1046 l 1,45,-1
 53 1048 l 1,46,-1
 73 1072 l 1,47,-1
 53 1072 l 1,48,-1
 53 1097 l 1,49,-1
 56 1097 l 1,50,-1
 53 1120 l 1,51,-1
 62 1118 l 1,52,53
 75 1146 75 1146 75 1172 c 1,54,-1
 73 1188 l 1,55,-1
 54 1188 l 1,56,57
 64 1191 64 1191 84 1226.5 c 128,-1,58
 104 1262 104 1262 137 1308.5 c 128,-1,59
 170 1355 170 1355 217.5 1401.5 c 128,-1,60
 265 1448 265 1448 346.5 1480 c 128,-1,61
 428 1512 428 1512 529 1512 c 1,62,-1
 529 1490 l 1,63,-1
 547 1512 l 1,64,-1
 655 1490 l 1,65,-1
 655 1512 l 1,66,67
 747 1512 747 1512 889 1375 c 1,68,-1
 907 1397 l 1,69,-1
 908 1379 l 1,70,-1
 892 1375 l 1,71,-1
 925 1350 l 1,72,-1
 908 1329 l 1,73,74
 913 1317 913 1317 932 1299.5 c 128,-1,75
 951 1282 951 1282 963 1282 c 2,76,-1
 967 1282 l 1,77,-1
 1015 1212 l 1,78,-1
 1002 1212 l 1,79,80
 997 1186 997 1186 997 1123 c 128,-1,81
 997 1060 997 1060 998 1048 c 1,82,-1
 1015 1026 l 1,0,-1
529 192 m 2,83,84
 601 192 601 192 601 322 c 0,85,86
 601 350 601 350 600 355 c 1,87,-1
 619 355 l 1,88,-1
 619 402 l 1,89,-1
 637 402 l 1,90,-1
 619 424 l 1,91,-1
 619 449 l 2,92,93
 619 472 619 472 637 493 c 1,94,-1
 637 564 l 2,95,96
 637 609 637 609 619 632 c 1,97,-1
 619 683 l 2,98,99
 619 798.548387097 619 798.548387097 583.5 845.5 c 0,100,101
 568 866 568 866 546 866 c 2,102,-1
 511 866 l 1,103,-1
 511 842 l 1,104,-1
 492 842 l 1,105,106
 437 765 437 765 437 679 c 2,107,-1
 437 493 l 2,108,109
 437 481 437 481 448 470 c 1,110,-1
 437 470 l 1,111,-1
 437 402 l 2,112,113
 437 375 437 375 457 355 c 1,114,115
 457 320 457 320 474 269 c 128,-1,116
 491 218 491 218 511 192 c 1,117,-1
 529 192 l 2,83,84
73 1003 m 1,118,-1
 53 1003 l 1,119,-1
 53 1026 l 1,120,-1
 73 1003 l 1,118,-1
73 981 m 1,121,-1
 53 981 l 1,122,-1
 56 992 l 1,123,-1
 73 981 l 1,121,-1
2065 1026 m 1,124,-1
 2047 842 l 1,125,-1
 2065 842 l 1,126,127
 2051.52308425 686.052831985 2051.52308425 686.052831985 2017.26154212 567.526415992 c 128,-1,128
 1983 449 1983 449 1951.5 347 c 128,-1,129
 1920 245 1920 245 1905 192 c 1,130,-1
 1925 170 l 1,131,132
 1879 127 1879 127 1841 48 c 128,-1,133
 1803 -31 1803 -31 1807 -91 c 1,134,-1
 1807 -155 l 1,135,-1
 1789 -155 l 2,136,137
 1767 -155 1767 -155 1767 -128 c 0,138,139
 1767 -54 1767 -54 1743 -54 c 1,140,141
 1723 -59 1723 -59 1697.5 -85.5 c 0,142,143
 1628.69811321 -157 1628.69811321 -157 1579 -157 c 0,144,145
 1416.85714286 -157 1416.85714286 -157 1329 -34 c 0,146,147
 1247.47826087 80.1304347826 1247.47826087 80.1304347826 1215.5 272 c 0,148,149
 1184.26666667 459.4 1184.26666667 459.4 1173.13333333 609.7 c 0,150,151
 1151.63636364 899.909090909 1151.63636364 899.909090909 1117 1050 c 1,152,-1
 1110 1046 l 1,153,154
 1122.23115251 1166.56421765 1122.23115251 1166.56421765 1132.14780229 1209.10130608 c 0,155,156
 1202.76242064 1512 1202.76242064 1512 1555 1512 c 1,157,-1
 1555 1490 l 1,158,-1
 1574 1512 l 1,159,-1
 1681 1490 l 1,160,-1
 1681 1512 l 1,161,162
 1768 1512 1768 1512 1925 1375 c 1,163,-1
 1945 1397 l 1,164,-1
 1947 1379 l 1,165,-1
 1929 1375 l 1,166,-1
 1967 1350 l 1,167,-1
 1947 1329 l 1,168,169
 1953 1317 1953 1317 1974.5 1299.5 c 128,-1,170
 1996 1282 1996 1282 2009 1282 c 2,171,-1
 2013 1282 l 1,172,-1
 2065 1212 l 1,173,-1
 2051 1212 l 1,174,175
 2045 1186 2045 1186 2045 1129 c 128,-1,176
 2045 1072 2045 1072 2047 1048 c 1,177,-1
 2065 1026 l 1,124,-1
1655 469 m 1,178,-1
 1645 683 l 1,179,180
 1645 799.870967742 1645 799.870967742 1610.5 845.5 c 0,181,182
 1595 866 1595 866 1573 866 c 2,183,-1
 1537 866 l 1,184,-1
 1537 842 l 1,185,-1
 1519 842 l 1,186,187
 1463 763 1463 763 1463 679 c 2,188,-1
 1463 493 l 2,189,190
 1463 481 1463 481 1474 470 c 1,191,-1
 1463 470 l 1,192,-1
 1463 402 l 2,193,194
 1463 376 1463 376 1484 355 c 1,195,196
 1484 320 1484 320 1500.5 269 c 128,-1,197
 1517 218 1517 218 1537 192 c 1,198,-1
 1555 192 l 2,199,200
 1628 192 1628 192 1628 322 c 0,201,202
 1628 350 1628 350 1627 355 c 1,203,204
 1629 354 1629 354 1630 354 c 0,205,206
 1655 354 1655 354 1655 469 c 1,178,-1
EndSplineSet
LCarets2: 1 0 
Ligature2: "'liga'" o o
EndChar

StartChar: E
Encoding: 38 69 4
Width: 1169
VWidth: 2308
Flags: HW
HStem: 31 230<633.582 753.451> 402 277<559 776.337>
VStem: 291 49<-53.504 54.9825> 470 55<-99.1366 6> 759 54<-88.8866 21.8936> 794 17<-67.4252 -49.9999>
LayerCount: 2
Fore
SplineSet
850 238 m 1,0,-1
 832 146 l 1,1,-1
 811 122 l 1,2,-1
 813 46 l 2,3,4
 813 21 813 21 802 -29.5 c 128,-1,5
 791 -80 791 -80 789 -91 c 1,6,-1
 757 -132 l 1,7,-1
 738 -86 l 1,8,9
 757 -87 757 -87 757 -96 c 1,10,11
 759 -92 759 -92 759 -52 c 128,-1,12
 759 -12 759 -12 747 9.5 c 128,-1,13
 735 31 735 31 686 31 c 0,14,15
 664.740740741 31 664.740740741 31 651.37037037 12 c 128,-1,16
 638 -7 638 -7 632.5 -14.5 c 128,-1,17
 627 -22 627 -22 618 -42.5 c 0,18,19
 607.714285714 -65.9285714286 607.714285714 -65.9285714286 598 -89 c 1,20,-1
 596 -86 l 1,21,22
 552 -86 552 -86 546.5 -78 c 128,-1,23
 541 -70 541 -70 541 -16 c 1,24,-1
 525 6 l 1,25,-1
 533 -60 l 1,26,27
 533 -113 533 -113 470 -113 c 1,28,-1
 470 55 l 1,29,30
 447 79 447 79 416 79 c 128,-1,31
 385 79 385 79 381 77 c 1,32,-1
 360 55 l 1,33,34
 340 55 340 55 340 17.5 c 128,-1,35
 340 -20 340 -20 344 -38 c 1,36,-1
 308 -86 l 1,37,-1
 289 -86 l 1,38,-1
 291 -45 l 1,39,40
 291 121.75 291 121.75 262 342.875 c 128,-1,41
 233 564 233 564 228 610 c 1,42,-1
 250 610 l 1,43,-1
 228 632 l 1,44,45
 189 1006 189 1006 189 1212 c 1,46,-1
 210 1212 l 1,47,-1
 210 1234 l 1,48,-1
 169 1234 l 1,49,-1
 169 1282 l 1,50,51
 129 1365 129 1365 49 1443 c 1,52,-1
 67 1443 l 1,53,-1
 88 1466 l 1,54,55
 300 1507 300 1507 541.5 1507 c 128,-1,56
 783 1507 783 1507 1108 1443 c 1,57,58
 1068 1408 1068 1408 1027 1329 c 1,59,60
 1027 1257 1027 1257 997 1164 c 128,-1,61
 967 1071 967 1071 937 974.5 c 128,-1,62
 907 878 907 878 907 795 c 1,63,64
 848 795 848 795 724.5 830.5 c 128,-1,65
 601 866 601 866 541 866 c 1,66,-1
 541 679 l 1,67,-1
 525 656 l 1,68,-1
 559 679 l 1,69,-1
 722 679 l 2,70,71
 756 679 756 679 777 656 c 1,72,-1
 811 656 l 1,73,74
 811 581 811 581 795 539 c 1,75,76
 799 499 799 499 799 458 c 128,-1,77
 799 417 799 417 777 377 c 1,78,-1
 722 402 l 1,79,-1
 559 402 l 1,80,-1
 525 377 l 1,81,-1
 525 238 l 1,82,-1
 541 217 l 1,83,-1
 541 261 l 1,84,-1
 705 261 l 2,85,86
 724 261 724 261 774 249.5 c 128,-1,87
 824 238 824 238 850 238 c 1,0,-1
794 -77 m 1,88,89
 793 -50 793 -50 808 -48 c 1,90,-1
 811 -48 l 1,91,92
 811 -53 811 -53 803 -62 c 128,-1,93
 795 -71 795 -71 794 -77 c 1,88,89
792 -86 m 1,94,-1
 790 -87 l 1,95,-1
 792 -86 l 1,94,-1
EndSplineSet
EndChar

StartChar: F
Encoding: 39 70 5
Width: 1145
VWidth: 2308
Flags: HW
HStem: 408 277<626 662 700.612 860.035> 733 46<931.086 949> 1428 1<48 53>
VStem: 290 318<-7.7039 292 315 358.218 707.33 822.941> 290 23<-135.282 -53.842> 488 17<-167.667 -144> 608 18<-120 -120 -75.6907 -37.1357> 626 36<408 429>
LayerCount: 2
Fore
SplineSet
313 -128 m 1,0,-1
 328 -138 l 1,1,-1
 328 -147 l 1,2,3
 290 -136 290 -136 290 -125 c 2,4,-1
 290 174 l 1,5,6
 308 198 308 198 310 265 c 128,-1,7
 312 332 312 332 328 361 c 1,8,-1
 308 385 l 1,9,-1
 308 408 l 1,10,-1
 290 429 l 1,11,-1
 308 452 l 1,12,-1
 290 477 l 1,13,-1
 290 755 l 1,14,15
 279 769 279 769 275 798.5 c 128,-1,16
 271 828 271 828 266.5 849 c 128,-1,17
 262 870 262 870 248 870 c 1,18,-1
 248 1046 l 2,19,20
 248 1124 248 1124 244 1163.5 c 128,-1,21
 240 1203 240 1203 216.5 1247.5 c 128,-1,22
 193 1292 193 1292 160 1326.5 c 128,-1,23
 127 1361 127 1361 53 1428 c 1,24,-1
 70 1450 l 1,25,-1
 48 1429 l 1,26,-1
 30 1450 l 1,27,-1
 248 1495 l 1,28,29
 271 1472 271 1472 306 1472 c 1,30,-1
 324 1495 l 1,31,-1
 559 1495 l 1,32,33
 577 1470 577 1470 606.5 1470 c 128,-1,34
 636 1470 636 1470 668 1495 c 1,35,-1
 668 1450 l 1,36,-1
 703 1495 l 1,37,38
 742 1488 742 1488 821 1479.5 c 0,39,40
 995.838429941 1460.6882702 995.838429941 1460.6882702 1089 1428 c 1,41,42
 1043 1428 1043 1428 1009 1346.5 c 128,-1,43
 975 1265 975 1265 959 1147 c 0,44,45
 929 925.75 929 925.75 929 779 c 1,46,-1
 949 779 l 1,47,-1
 949 733 l 1,48,49
 919 740 919 740 850.5 770.5 c 128,-1,50
 782 801 782 801 741 801 c 1,51,-1
 741 824 l 1,52,53
 714 824 714 824 714 815.5 c 128,-1,54
 714 807 714 807 720 801 c 1,55,56
 711 799 711 799 660 799 c 128,-1,57
 609 799 609 799 576 824 c 1,58,59
 596 797 596 797 596 735 c 0,60,61
 596 728.6 596 728.6 611.5 719.3 c 128,-1,62
 627 710 627 710 626 707 c 1,63,-1
 608 685 l 1,64,-1
 879 685 l 1,65,-1
 893 663 l 1,66,-1
 879 638 l 1,67,-1
 879 500 l 1,68,-1
 862 500 l 1,69,70
 879 468 879 468 879 436 c 128,-1,71
 879 404 879 404 875.5 394.5 c 128,-1,72
 872 385 872 385 867.5 374.5 c 128,-1,73
 863 364 863 364 862 361 c 1,74,75
 838 411 838 411 749 411 c 0,76,77
 739 411 739 411 700 408 c 1,78,79
 704 412 704 412 704 420 c 128,-1,80
 704 428 704 428 690 428 c 128,-1,81
 676 428 676 428 676 420.5 c 128,-1,82
 676 413 676 413 678 411 c 2,83,-1
 662 429 l 1,84,-1
 662 408 l 1,85,-1
 626 408 l 1,86,-1
 626 429 l 1,87,88
 608 405 608 405 608 351 c 2,89,-1
 608 315 l 1,90,-1
 589 315 l 1,91,-1
 608 292 l 1,92,-1
 626 -33 l 1,93,-1
 626 -120 l 1,94,-1
 608 -142 l 1,95,-1
 608 -120 l 1,96,-1
 589 -96 l 1,97,98
 608 -62 608 -62 608 -51 c 2,99,-1
 608 -43 l 2,100,101
 608 -33 608 -33 529 -33 c 1,102,103
 505 -46 505 -46 505 -113 c 0,104,105
 505 -124 505 -124 508.5 -142 c 128,-1,106
 512 -160 512 -160 512 -170 c 1,107,108
 511 -169 511 -169 488 -166 c 1,109,-1
 488 -144 l 1,110,-1
 468 -120 l 1,111,-1
 468 -79 l 1,112,-1
 389 -10 l 1,113,114
 313 -10 313 -10 313 -128 c 1,0,-1
53 1428 m 1,115,-1
 48 1428 l 1,116,-1
 48 1429 l 1,117,-1
 53 1428 l 1,115,-1
EndSplineSet
EndChar

StartChar: G
Encoding: 40 71 6
Width: 1022
VWidth: 2308
Flags: HW
HStem: 255 25<458.67 469.075> 324 200<548.176 657> 1485 20G<392 439 462 468 493 563.5>
VStem: 151 252<602 747.438> 349 18<-107.056 -91> 367 57<-205 -128.384> 422 56<-95.5283 -22> 472 4<255 271> 551 47<-138.307 -82.0811>
LayerCount: 2
Fore
SplineSet
928 681 m 1,0,-1
 949 602 l 1,1,-1
 904 602 l 2,2,3
 607 602 607 602 603 667 c 1,4,-1
 595 653 l 1,5,6
 601 668 601 668 601 689 c 128,-1,7
 601 710 601 710 584 742 c 1,8,-1
 603 764 l 1,9,-1
 584 764 l 1,10,-1
 566 789 l 1,11,-1
 566 820 l 1,12,-1
 547 811 l 1,13,14
 542 858 542 858 496 858 c 128,-1,15
 450 858 450 858 436 831 c 128,-1,16
 422 804 422 804 422 745 c 1,17,-1
 418 748 l 1,18,19
 425 734 425 734 425 714 c 1,20,-1
 422 676 l 1,21,22
 420 667 420 667 411.5 644.5 c 128,-1,23
 403 622 403 622 403 602 c 1,24,-1
 422 578 l 1,25,-1
 403 534 l 1,26,27
 419 498 419 498 429 417 c 128,-1,28
 439 336 439 336 458 301 c 1,29,-1
 439 301 l 1,30,-1
 439 280 l 1,31,32
 472 280 472 280 472 255 c 1,33,-1
 468 255 l 2,34,35
 458 255 458 255 458 231 c 1,36,-1
 510 170 l 1,37,-1
 547 185 l 1,38,-1
 547 166 l 1,39,-1
 566 164 l 1,40,41
 566 189.75 566 189.75 626 213.5 c 0,42,43
 650 223 650 223 657 231 c 1,44,-1
 637 255 l 1,45,46
 657 307 657 307 657 319 c 2,47,-1
 657 324 l 1,48,-1
 637 324 l 2,49,50
 584 324 584 324 547 280 c 1,51,52
 547 329 547 329 538.5 427.5 c 128,-1,53
 530 526 530 526 530 578 c 1,54,55
 569 524 569 524 643 524 c 1,56,-1
 767 534 l 1,57,58
 888 534 888 534 930 487 c 1,59,-1
 930 380 l 2,60,61
 930 165.090909091 930 165.090909091 889.5 62 c 0,62,63
 851.130563798 -35.6676557864 851.130563798 -35.6676557864 769 -65 c 1,64,65
 764 -74 764 -74 752.5 -77 c 0,66,67
 728 -83.3913043478 728 -83.3913043478 728 -138 c 0,68,69
 728 -153 728 -153 692 -161 c 1,70,-1
 674 -135 l 1,71,-1
 692 -138 l 1,72,-1
 655 -63 l 1,73,74
 620 -78 620 -78 609 -94.5 c 128,-1,75
 598 -111 598 -111 598 -126.5 c 128,-1,76
 598 -142 598 -142 599.5 -149.5 c 128,-1,77
 601 -157 601 -157 601 -163 c 1,78,79
 601 -138 601 -138 566 -138 c 0,80,81
 551 -138 551 -138 545 -116 c 1,82,-1
 551 -107 l 1,83,84
 551 -91.4545454545 551 -91.4545454545 529.5 -58.2272727273 c 128,-1,85
 508 -25 508 -25 493 -1.5 c 128,-1,86
 478 22 478 22 476 24 c 1,87,88
 478 13 478 13 478 -29.5 c 128,-1,89
 478 -72 478 -72 464 -144 c 1,90,91
 448 -130 448 -130 435 -91.5 c 128,-1,92
 422 -53 422 -53 422 -22 c 1,93,-1
 403 -46 l 1,94,-1
 385 -46 l 1,95,-1
 389 -48 l 1,96,-1
 367 -91 l 1,97,98
 367 -103 367 -103 395.5 -126.5 c 128,-1,99
 424 -150 424 -150 424 -167 c 128,-1,100
 424 -184 424 -184 419 -196 c 128,-1,101
 414 -208 414 -208 399 -207 c 2,102,-1
 367 -205 l 1,103,-1
 349 -68 l 1,104,105
 328.04 -68 328.04 -68 311.02 -49.5 c 128,-1,106
 294 -31 294 -31 286.5 -22 c 128,-1,107
 279 -13 279 -13 267.5 4 c 128,-1,108
 256 21 256 21 253 24 c 1,109,-1
 248 21 l 1,110,111
 151 249.92 151 249.92 151 462 c 0,112,113
 151 513 151 513 110.5 763.5 c 128,-1,114
 70 1014 70 1014 70 1147 c 0,115,116
 70 1200 70 1200 93 1229 c 1,117,-1
 98 1217 l 1,118,-1
 102 1222 l 1,119,-1
 93 1298 l 1,120,121
 110 1339 110 1339 151 1389 c 1,122,-1
 194 1367 l 1,123,-1
 207 1389 l 1,124,-1
 194 1414 l 1,125,126
 237 1414 237 1414 314 1459.5 c 128,-1,127
 391 1505 391 1505 439 1505 c 1,128,-1
 439 1484 l 1,129,130
 449 1484 449 1484 455 1494.5 c 128,-1,131
 461 1505 461 1505 476 1505 c 1,132,-1
 458 1460 l 1,133,134
 493 1490.625 493 1490.625 493 1505 c 1,135,136
 600 1505 600 1505 724 1447 c 128,-1,137
 848 1389 848 1389 930 1298 c 1,138,-1
 907 1298 l 1,139,-1
 930 1247 l 1,140,-1
 930 1251 l 1,141,142
 981 1193 981 1193 981 1066 c 0,143,144
 981 1022 981 1022 954.5 893 c 128,-1,145
 928 764 928 764 928 681 c 1,0,-1
458 231 m 1,146,-1
 476 255 l 1,147,148
 476 231 476 231 458 231 c 1,146,-1
476 255 m 1,149,-1
 472 255 l 1,150,-1
 476 271 l 1,151,-1
 476 255 l 1,149,-1
595 653 m 2,152,153
 590 643 590 643 587 640 c 2,154,-1
 595 653 l 2,152,153
586 638 m 1,155,-1
 584 635 l 1,156,-1
 586 638 l 1,155,-1
EndSplineSet
EndChar

StartChar: H
Encoding: 41 72 7
Width: 1488
VWidth: 2308
Flags: HW
HStem: -89 48<324.997 339.712> 1490 20G<654 682 819 845.5 982.667 1018.5 1099 1116.14>
VStem: 179 443<977.709 1324> 748 37<-412 -257.787> 785 314<-45.0039 24.0803 51.0677 306> 830 72<-133.136 -89.0959> 839 330<689.023 857.346> 996 3<-64.9293 -63>
LayerCount: 2
Fore
SplineSet
1140 491 m 1,0,-1
 1119 329 l 1,1,-1
 1083 296 l 1,2,-1
 1099 306 l 1,3,4
 1099 239 1099 239 1079 109 c 128,-1,5
 1059 -21 1059 -21 1059 -71 c 128,-1,6
 1059 -121 1059 -121 1034.5 -138 c 128,-1,7
 1010 -155 1010 -155 979 -155 c 1,8,-1
 1009 -89 l 1,9,-1
 999 -63 l 1,10,-1
 997 -65 l 2,11,12
 996 -65 996 -65 996 -63 c 1,13,-1
 948 -91 l 1,14,-1
 939 -89 l 1,15,-1
 898 -48 l 1,16,-1
 902 -73 l 1,17,18
 902 -134 902 -134 858 -134 c 1,19,20
 857 -131 857 -131 843.5 -117.5 c 128,-1,21
 830 -104 830 -104 830 -98 c 128,-1,22
 830 -92 830 -92 839 -89 c 1,23,-1
 803 -65 l 1,24,-1
 785 -94 l 1,25,26
 786 -75 786 -75 794.5 -35.5 c 128,-1,27
 803 4 803 4 803 26 c 1,28,-1
 766 3 l 1,29,-1
 748 51 l 1,30,31
 786 51 786 51 786 219 c 1,32,-1
 785 306 l 1,33,-1
 804 411 l 2,34,35
 804 416 804 416 800 420 c 128,-1,36
 796 424 796 424 793 424 c 1,37,-1
 785 421 l 1,38,-1
 766 444 l 1,39,40
 622 421 l 1,41,-1
 622 398 l 1,42,-1
 594 365 l 1,43,-1
 613 375 l 1,44,-1
 624 268 l 1,45,-1
 622 3 l 1,46,-1
 541 -41 l 1,47,-1
 543 -26 l 1,48,-1
 539 -22 l 1,49,-1
 462 -18 l 2,50,51
 450 -18 450 -18 433 -33.5 c 0,52,53
 378.362339515 -83.3166904422 378.362339515 -83.3166904422 340 -89 c 1,54,-1
 295 -46 l 1,55,56
 298 -41 298 -41 311.5 -41 c 128,-1,57
 325 -41 325 -41 340 -51 c 1,58,59
 340 390 340 390 221 983 c 0,60,61
 216 1008 216 1008 204.5 1053.5 c 0,62,63
 179 1154.39130435 179 1154.39130435 179 1224.19565217 c 128,-1,64
 179 1294 179 1294 125 1352.5 c 128,-1,65
 71 1411 71 1411 -6 1418 c 1,66,67
 161.181818182 1418 161.181818182 1418 278.590909091 1438.5 c 128,-1,68
 396 1459 396 1459 421 1486 c 1,69,-1
 427 1462 l 1,70,-1
 430 1460 l 1,71,72
 443 1460 443 1460 443 1480 c 1,73,-1
 441 1486 l 1,74,75
 485 1486 485 1486 570 1498 c 128,-1,76
 655 1510 655 1510 693 1510 c 1,77,78
 685 1500 685 1500 667 1458 c 0,79,80
 620.285714286 1349 620.285714286 1349 601 1349 c 1,81,-1
 622 1324 l 1,82,-1
 601 675 l 1,83,84
 618 675 618 675 647.5 687.5 c 128,-1,85
 677 700 677 700 693 700 c 1,86,-1
 693 675 l 1,87,88
 714 675 714 675 756 687.5 c 128,-1,89
 798 700 798 700 819 700 c 1,90,-1
 819 688 l 1,91,92
 839 712 839 712 839 742 c 2,93,-1
 839 1118 l 2,94,95
 839 1149 839 1149 857.5 1202 c 128,-1,96
 876 1255 876 1255 898 1255 c 1,97,98
 898 1272.66666667 898 1272.66666667 883 1286.83333333 c 128,-1,99
 868 1301 868 1301 859.5 1312.5 c 0,100,101
 839 1340.23529412 839 1340.23529412 839 1395 c 1,102,-1
 819 1510 l 1,103,104
 913 1510 913 1510 979 1486 c 1,105,-1
 1001 1510 l 1,106,107
 1018 1510 1018 1510 1050 1498 c 128,-1,108
 1082 1486 1082 1486 1099 1486 c 1,109,-1
 1099 1510 l 1,110,-1
 1123 1482 l 1,111,-1
 1259 1486 l 1,112,113
 1275 1464 1275 1464 1328 1462.5 c 128,-1,114
 1381 1461 1381 1461 1400 1441 c 1,115,-1
 1458 1441 l 2,116,117
 1393 1441 1393 1441 1284 1156 c 1,118,-1
 1238 1012 l 1,119,-1
 1240 1002 l 1,120,-1
 1233 954 l 1,121,-1
 1226 957 l 1,122,-1
 1219 954 l 1,123,-1
 1240 931 l 1,124,125
 1234 912 1234 912 1213.5 860.5 c 0,126,127
 1169 748.707317073 1169 748.707317073 1169 711.853658537 c 128,-1,128
 1169 675 1169 675 1178 653 c 1,129,130
 1136 653 1136 653 1136 568 c 1,131,-1
 1140 491 l 1,0,-1
785 -205 m 1,132,-1
 785 -412 l 1,133,-1
 748 -412 l 1,134,-1
 748 -366 l 2,135,136
 748 -327 748 -327 758 -276 c 128,-1,137
 768 -225 768 -225 785 -205 c 1,132,-1
EndSplineSet
EndChar

StartChar: I
Encoding: 42 73 8
Width: 823
VWidth: 2308
Flags: HW
HStem: -111 21G<469.167 515.217> -38 46<577 595> 1399 91<697.104 717> 1495 20G<94 374 424 535 535 591> 1495 20G<94 374 424 535 535 591>
VStem: 337 37<-65 31> 462 56<-60 -28.1018>
LayerCount: 2
Fore
SplineSet
536 -45 m 1,0,-1
 535 -65 l 1,1,-1
 500 -111 l 1,2,-1
 463 -87 l 1,3,4
 462 -61 462 -61 462 -45.5 c 128,-1,5
 462 -30 462 -30 476 -28 c 1,6,-1
 445 55 l 1,7,-1
 392 55 l 1,8,-1
 374 31 l 1,9,-1
 374 -7 l 2,10,11
 374 -17 374 -17 392 -53 c 2,12,-1
 374 -18 l 1,13,-1
 374 -33 l 2,14,15
 374 -87 374 -87 354 -87 c 1,16,-1
 337 -65 l 1,17,18
 328 1 328 1 303.5 174 c 128,-1,19
 279 347 279 347 265 454.5 c 0,20,21
 225 761.642857143 225 761.642857143 225 957 c 0,22,23
 225 990 225 990 236 1053.5 c 128,-1,24
 247 1117 247 1117 247 1137.5 c 128,-1,25
 247 1158 247 1158 241.5 1168.5 c 128,-1,26
 236 1179 236 1179 222.5 1193.5 c 128,-1,27
 209 1208 209 1208 206 1212 c 1,28,29
 206 1269 206 1269 174.5 1300.5 c 0,30,31
 135.555555556 1339.44444444 135.555555556 1339.44444444 84 1375 c 1,32,-1
 64 1419 l 1,33,-1
 84 1443 l 1,34,-1
 70 1443 l 2,35,36
 45 1443 45 1443 26 1468 c 1,37,-1
 12 1468 l 1,38,39
 69 1473 69 1473 107 1515 c 1,40,-1
 374 1515 l 1,41,-1
 374 1490 l 1,42,43
 424 1515 424 1515 427 1515 c 2,44,-1
 518 1515 l 1,45,-1
 535 1497 l 1,46,-1
 554 1515 l 1,47,48
 694 1515 694 1515 776 1490 c 1,49,-1
 717 1399 l 1,50,-1
 695 1399 l 1,51,-1
 695 1375 l 1,52,-1
 717 1375 l 1,53,-1
 635 1212 l 1,54,55
 659 1207.5 659 1207.5 677 1188 c 1,56,57
 668 1140 668 1140 651 990.5 c 128,-1,58
 634 841 634 841 616 773 c 1,59,-1
 595 773 l 1,60,61
 599 724 599 724 616 704 c 1,62,-1
 616 517 l 1,63,-1
 581 517 l 1,64,65
 597 508 597 508 597 464 c 1,66,-1
 595 449 l 1,67,-1
 577 426 l 1,68,-1
 577 402 l 1,69,70
 599 402 599 402 599 332 c 1,71,-1
 577 79 l 1,72,73
 577 67 577 67 595 31 c 1,74,-1
 577 8 l 1,75,-1
 595 8 l 1,76,-1
 616 -38 l 1,77,-1
 577 -38 l 1,78,-1
 554 -16 l 1,79,-1
 535 -16 l 1,80,-1
 518 8 l 1,81,-1
 518 -60 l 1,82,83
 533 -60 533 -60 536 -45 c 1,0,-1
EndSplineSet
EndChar

StartChar: J
Encoding: 43 74 9
Width: 933
VWidth: 2308
Flags: HW
HStem: 1379 70<798.487 816>
VStem: -25 259<269.027 386.065> 223 27<-43 -11.7894> 376 336<824.715 1053.03> 376 281<225.842 498>
LayerCount: 2
Fore
SplineSet
357 -81 m 1,0,1
 337 -61 337 -61 337 -32 c 2,2,-1
 337 13 l 1,3,-1
 296 57 l 1,4,5
 250 57 250 57 250 -43 c 1,6,7
 252.090909091 -28.3636363636 252.090909091 -28.3636363636 259 -18 c 1,8,9
 258 -61 258 -61 235 -89 c 1,10,-1
 215 -66 l 1,11,-1
 223 -28 l 1,12,13
 223 -19 223 -19 212 -13 c 128,-1,14
 201 -7 201 -7 156 13 c 1,15,-1
 116 13 l 1,16,-1
 56 57 l 1,17,18
 23.0957446809 57 23.0957446809 57 -8.5 167 c 0,19,20
 -22 214 -22 214 -25 221 c 1,21,-1
 -4 268 l 1,22,23
 -25 290.5 -25 290.5 -25 337 c 1,24,25
 -46 362 -46 362 -46 397 c 128,-1,26
 -46 432 -46 432 -28.5 451 c 128,-1,27
 -11 470 -11 470 12.5 469.5 c 0,28,29
 85.9375 467.9375 85.9375 467.9375 116 498 c 1,30,-1
 171 498 l 1,31,-1
 125 474 l 1,32,-1
 135 452 l 1,33,-1
 197 521 l 1,34,-1
 215 521 l 1,35,-1
 235 546 l 1,36,-1
 235 498 l 1,37,-1
 215 498 l 1,38,-1
 235 474 l 1,39,-1
 234 385 l 1,40,41
 227.285714286 197 227.285714286 197 315 197 c 1,42,43
 353 255 353 255 366 296.5 c 128,-1,44
 379 338 379 338 379 390 c 2,45,-1
 376 546 l 2,46,47
 376 552 376 552 386 575.5 c 128,-1,48
 396 599 396 599 396 615 c 1,49,-1
 376 685 l 1,50,-1
 376 868 l 1,51,-1
 396 1079 l 1,52,53
 416 1101 416 1101 416 1158 c 2,54,-1
 416 1170 l 1,55,-1
 396 1170 l 1,56,-1
 396 1240 l 1,57,58
 376 1267 376 1267 376 1310 c 1,59,60
 328 1375 328 1375 315 1449 c 1,61,-1
 337 1449 l 1,62,-1
 315 1472 l 1,63,-1
 315 1495 l 1,64,-1
 596 1495 l 2,65,66
 681 1495 681 1495 739 1481 c 0,67,68
 855 1453 855 1453 877 1449 c 1,69,-1
 816 1379 l 1,70,-1
 798 1379 l 1,71,-1
 816 1356 l 1,72,-1
 798 1332 l 1,73,74
 798 1165 798 1165 716 1101 c 1,75,-1
 737 1054 l 1,76,77
 712 1028 712 1028 712 941 c 128,-1,78
 712 854 712 854 716 824 c 1,79,80
 685 785 685 785 679.5 671.5 c 128,-1,81
 674 558 674 558 657 521 c 1,82,-1
 637 521 l 1,83,-1
 637 498 l 1,84,-1
 657 498 l 1,85,86
 657 447 657 447 637 348 c 128,-1,87
 617 249 617 249 617 197 c 1,88,89
 558 108.5 558 108.5 558 49.25 c 128,-1,90
 558 -10 558 -10 536 -35 c 1,91,-1
 536 -33 l 1,92,-1
 515 -48 l 1,93,94
 496 -52 496 -52 495 -53 c 1,95,96
 495 -48 495 -48 497 -45 c 2,97,-1
 515 -22 l 1,98,-1
 515 13 l 1,99,-1
 497 36 l 1,100,-1
 416 -35 l 1,101,-1
 416 -55 l 1,102,-1
 396 -77 l 1,103,-1
 357 -77 l 1,104,-1
 357 -81 l 1,0,1
EndSplineSet
EndChar

StartChar: K
Encoding: 44 75 10
Width: 1189
VWidth: 2308
Flags: HW
HStem: 1492 20G<293 352.619 381.429 407.083 471 488.073 519.417 561 707 723 801.5 817.5>
VStem: 400 34<-60 -18.1455> 542 19<-40.4681 -18> 670 198<1069.99 1164> 715 8<1501.61 1512> 778 27<-71.2415 -51.135>
LayerCount: 2
Fore
SplineSet
778 -70 m 1,0,-1
 760 -41 l 1,1,-1
 723 -41 l 1,2,-1
 705 -18 l 2,3,4
 703 -15 703 -15 703 -3.5 c 128,-1,5
 703 8 703 8 723 75 c 1,6,-1
 719 75 l 1,7,-1
 670 214 l 1,8,-1
 686 238 l 1,9,-1
 670 238 l 1,10,11
 618 306 618 306 611 355 c 1,12,13
 603.306188925 289.602605863 603.306188925 289.602605863 580.5 280 c 0,14,15
 553.993006993 268.839160839 553.993006993 268.839160839 542 238 c 1,16,-1
 579 53 l 1,17,-1
 569 29 l 1,18,19
 580 -15 580 -15 597 -41 c 1,20,-1
 561 -18 l 1,21,22
 561 -28 561 -28 571 -42 c 128,-1,23
 581 -56 581 -56 583 -63 c 1,24,-1
 579 -76 l 1,25,-1
 595 -96 l 1,26,-1
 561 -96 l 1,27,28
 542 -65 542 -65 542 -18 c 1,29,30
 513 6 513 6 471 6 c 0,31,32
 443 6 443 6 434 -60 c 1,33,-1
 417 -84 l 1,34,-1
 400 -60 l 1,35,-1
 400 -36 l 1,36,37
 388 -34 388 -34 374 4 c 128,-1,38
 360 42 360 42 360 54.5 c 128,-1,39
 360 67 360 67 361 75 c 1,40,-1
 380 100 l 1,41,-1
 380 122 l 1,42,43
 360 122 360 122 354 186 c 128,-1,44
 348 250 348 250 344.5 326 c 128,-1,45
 341 402 341 402 327 421 c 1,46,-1
 347 452 l 1,47,-1
 345 470 l 1,48,49
 325 470 325 470 325 517 c 1,50,-1
 327 538 l 1,51,-1
 306 562 l 1,52,-1
 308 586 l 1,53,-1
 327 586 l 1,54,55
 321 603 321 603 295.5 710 c 128,-1,56
 270 817 270 817 271 822 c 1,57,58
 290 831 290 831 290 858 c 2,59,-1
 290 865 l 1,60,-1
 271 886 l 1,61,-1
 286 886 l 1,62,63
 286 961 286 961 243 1105.5 c 128,-1,64
 200 1250 200 1250 154 1301 c 1,65,-1
 154 1349 l 1,66,-1
 172 1349 l 1,67,68
 127 1357 127 1357 14 1464 c 1,69,70
 186 1512 186 1512 345 1512 c 1,71,-1
 361 1470 l 1,72,-1
 400 1512 l 1,73,-1
 417 1464 l 1,74,-1
 434 1495 l 1,75,-1
 434 1488 l 2,76,77
 434 1464 434 1464 471 1464 c 1,78,-1
 471 1505 l 1,79,-1
 506 1464 l 1,80,-1
 529 1512 l 1,81,-1
 561 1512 l 1,82,-1
 561 1405 l 2,83,84
 561 1337 561 1337 570 1202.5 c 128,-1,85
 579 1068 579 1068 579 1002 c 1,86,87
 627 1062 627 1062 648.5 1120 c 128,-1,88
 670 1178 670 1178 670 1257 c 1,89,90
 692.67862969 1258.61990212 692.67862969 1258.61990212 704.5 1432 c 0,91,92
 709 1498 709 1498 715 1515 c 1,93,-1
 723 1512 l 1,94,-1
 723 1488 l 1,95,-1
 741 1464 l 1,96,-1
 741 1488 l 1,97,98
 768 1512 768 1512 813 1512 c 1,99,100
 819 1493 819 1493 963 1468 c 128,-1,101
 1107 1443 1107 1443 1162 1441 c 1,102,103
 1103 1408 1103 1408 1011.5 1312.5 c 128,-1,104
 920 1217 920 1217 868 1186 c 1,105,-1
 886 1186 l 1,106,-1
 868 1164 l 1,107,108
 868 1112 868 1112 839.5 1015 c 128,-1,109
 811 918 811 918 811 866 c 1,110,111
 838 834 838 834 838 758 c 1,112,-1
 831 632 l 1,113,-1
 851 447 l 1,114,-1
 831 447 l 1,115,116
 862.270833333 369.645833333 862.270833333 369.645833333 884.635416667 257.822916667 c 128,-1,117
 907 146 907 146 917 108 c 1,118,-1
 922 122 l 1,119,-1
 922 -22 l 2,120,121
 922 -74 922 -74 907 -109 c 1,122,-1
 904 -107 l 1,123,124
 904 -76.96875 904 -76.96875 880.5 -40.984375 c 128,-1,125
 857 -5 857 -5 851 6 c 1,126,127
 805 6 805 6 805 -59 c 2,128,-1
 805 -73 l 1,129,130
 803 -72 803 -72 778 -70 c 1,0,-1
713 -41 m 1,131,-1
 705 -41 l 1,132,-1
 705 -36 l 2,133,134
 705 -37 705 -37 713 -41 c 1,131,-1
431 -68 m 1,135,-1
 431 -66 l 1,136,-1
 431 -68 l 1,135,-1
EndSplineSet
EndChar

StartChar: L
Encoding: 45 76 11
Width: 854
VWidth: 2308
Flags: HW
HStem: 255 25<899 904.384> 1438 69<50 70> 1438 46<50 70>
VStem: 171 380<880 1110.91 1229 1272.93> 210 345<534 789> 350 22<-135.251 -71.3073> 490 57<-87 -22> 490 40<-107 -84.6671> 623 21<-113.248 -61.4247> 662 0<-87 -73> 759 45<-138 -113.096>
LayerCount: 2
Fore
SplineSet
551 -84 m 1,0,1
 538.857142857 -103.428571429 538.857142857 -103.428571429 530 -130 c 1,2,-1
 512 -130 l 1,3,-1
 490 -107 l 1,4,-1
 490 -22 l 1,5,-1
 472 -22 l 1,6,-1
 451 -7 l 1,7,-1
 431 -22 l 1,8,9
 367 -22 367 -22 356 -68 c 1,10,11
 283.058878724 -0.0321369927281 283.058878724 -0.0321369927281 253 252 c 0,12,13
 240 361 240 361 231 396 c 1,14,-1
 250 418 l 1,15,-1
 231 464 l 1,16,-1
 250 487 l 1,17,-1
 231 510 l 1,18,-1
 231 534 l 1,19,-1
 210 534 l 1,20,-1
 210 789 l 1,21,-1
 171 834 l 1,22,-1
 190 880 l 1,23,-1
 171 880 l 1,24,-1
 171 1135 l 1,25,26
 157 1156 157 1156 150 1204.5 c 128,-1,27
 143 1253 143 1253 129 1275 c 1,28,-1
 151 1322 l 1,29,-1
 129 1367 l 1,30,-1
 116 1367 l 1,31,-1
 129 1390 l 1,32,-1
 111 1390 l 1,33,-1
 90 1414 l 1,34,-1
 90 1460 l 1,35,-1
 70 1438 l 1,36,-1
 50 1438 l 1,37,-1
 50 1460 l 1,38,-1
 -3 1484 l 1,39,40
 13 1484 13 1484 43 1495.5 c 128,-1,41
 73 1507 73 1507 90 1507 c 2,42,-1
 431 1507 l 1,43,-1
 451 1488 l 1,44,45
 458 1508 458 1508 490 1508 c 1,46,-1
 512 1507 l 1,47,-1
 530 1484 l 1,48,-1
 570 1484 l 1,49,-1
 570 1507 l 1,50,-1
 739 1507 l 1,51,52
 735 1503 735 1503 723 1489.5 c 128,-1,53
 711 1476 711 1476 707 1472 c 128,-1,54
 703 1468 703 1468 692.5 1456.5 c 128,-1,55
 682 1445 682 1445 676.5 1440.5 c 128,-1,56
 671 1436 671 1436 661 1427 c 128,-1,57
 651 1418 651 1418 643.5 1413 c 0,58,59
 618 1396 618 1396 606 1390 c 1,60,61
 606 1348.5 606 1348.5 593.5 1329.75 c 128,-1,62
 581 1311 581 1311 568.5 1296 c 2,63,-1
 551 1275 l 1,64,-1
 551 1229 l 1,65,-1
 530 1229 l 1,66,-1
 530 1207 l 1,67,68
 551 1207 551 1207 561.5 1199.5 c 128,-1,69
 572 1192 572 1192 572 1170 c 2,70,-1
 570 1112 l 1,71,72
 549 1084 549 1084 549 1003 c 1,73,-1
 551 928 l 2,74,75
 551 917 551 917 530 858 c 1,76,77
 555 837 555 837 555 635 c 1,78,-1
 551 418 l 1,79,-1
 537 418 l 1,80,81
 537 410 537 410 554.5 371 c 128,-1,82
 572 332 572 332 572 312 c 1,83,-1
 571 301 l 1,84,-1
 589 280 l 1,85,-1
 650 282 l 2,86,87
 673 283 673 283 720 268.5 c 128,-1,88
 767 254 767 254 784.5 254.5 c 128,-1,89
 802 255 802 255 820 267.5 c 128,-1,90
 838 280 838 280 848 280 c 2,91,-1
 879 280 l 2,92,93
 882.636363636 280 882.636363636 280 900.818181818 290 c 128,-1,94
 919 300 919 300 920 301 c 1,95,-1
 920 255 l 1,96,-1
 899 255 l 1,97,-1
 899 185 l 1,98,-1
 879 185 l 1,99,-1
 899 164 l 1,100,101
 860 75 860 75 860 -68 c 1,102,-1
 839 -68 l 1,103,-1
 800 -113 l 1,104,105
 804 -117 804 -117 804 -124 c 0,106,107
 804 -151 804 -151 759 -155 c 1,108,-1
 726 -118 l 1,109,-1
 737 -116 l 1,110,111
 744 -138 744 -138 759 -138 c 1,112,-1
 759 -91 l 1,113,-1
 739 -91 l 1,114,-1
 759 -68 l 1,115,-1
 719 -68 l 1,116,-1
 678 -22 l 1,117,-1
 662 -46 l 1,118,-1
 662 -87 l 1,119,120
 656 -60 656 -60 644 -60 c 1,121,-1
 623 -138 l 1,122,123
 623 -81 623 -81 606 -18.5 c 128,-1,124
 589 44 589 44 589 46 c 1,125,126
 547 43 547 43 547 -87 c 1,127,128
 547 -86 547 -86 548.5 -85.5 c 128,-1,129
 550 -85 550 -85 551 -84 c 1,0,1
350 -138 m 1,130,131
 350 -87 350 -87 356 -68 c 1,132,-1
 372 -97 l 1,133,134
 372 -134 372 -134 355.5 -137 c 2,135,-1
 350 -138 l 1,130,131
879 233 m 1,136,-1
 879 209 l 1,137,-1
 899 209 l 1,138,-1
 879 233 l 1,136,-1
726 -118 m 1,139,-1
 719 -120 l 1,140,-1
 719 -109 l 1,141,-1
 726 -118 l 1,139,-1
EndSplineSet
EndChar

StartChar: M
Encoding: 46 77 12
Width: 1517
VWidth: 2308
Flags: HW
HStem: -84 97<400.226 438.481> 13 11<924 947> 21 27<885.898 905.742> 189 2<1218 1222> 1207 24<179.911 202.906> 1370 69<1326.4 1367> 1510 20G<664.783 678> 1536 19<816.001 822>
VStem: 245 1020<813 1041.34> 345 55<22.2825 46> 498 27<-33 0> 656 210<327.565 536.765> 806 10<1527.98 1536> 844 2<238 247.907> 947 321<287.448 739.406> 949 273<77.8093 233> 1108 79<2 65.5179>
LayerCount: 2
Fore
SplineSet
896 21 m 0,0,1
 885 21 885 21 885 33.5 c 128,-1,2
 885 46 885 46 887 48 c 1,3,4
 949 60 949 60 949 365 c 0,5,6
 949 421 949 421 937 510 c 128,-1,7
 925 599 925 599 925 645 c 1,8,-1
 947 651 l 1,9,-1
 947 696 l 1,10,11
 911 654 911 654 888.5 503 c 128,-1,12
 866 352 866 352 866 257 c 1,13,-1
 857 260 l 1,14,15
 852 260 852 260 846 248 c 1,16,-1
 846 250 l 1,17,18
 835 219 835 219 825 142 c 1,19,-1
 844 118 l 1,20,21
 824.152671756 114.946564885 824.152671756 114.946564885 814.076335878 76.4732824427 c 0,22,23
 795.0739507 3.91872085276 795.0739507 3.91872085276 726 2 c 1,24,-1
 730 29 l 1,25,26
 730 44 730 44 690 182.5 c 128,-1,27
 650 321 650 321 645 327 c 1,28,29
 656 360 656 360 656 367 c 0,30,31
 656 437 656 437 612 541 c 128,-1,32
 568 645 568 645 565 694 c 1,33,-1
 565 602 l 2,34,35
 565 541 565 541 586 422.5 c 128,-1,36
 607 304 607 304 607 257 c 1,37,-1
 602 257 l 1,38,-1
 607 24 l 1,39,40
 560 24 560 24 525 72 c 1,41,-1
 501 29 l 1,42,-1
 505 24 l 1,43,44
 504 20 504 20 515.5 12 c 128,-1,45
 527 4 527 4 527 0 c 2,46,-1
 525 -38 l 1,47,-1
 498 -33 l 1,48,-1
 466 72 l 1,49,-1
 424 72 l 1,50,-1
 400 46 l 1,51,52
 400 32 400 32 446 13 c 1,53,-1
 446 2 l 2,54,55
 446 -24 446 -24 424 -84 c 1,56,57
 379.046511628 -84 379.046511628 -84 361 -35.5 c 0,58,59
 346.984962406 2.16541353383 346.984962406 2.16541353383 345 24 c 1,60,61
 342 162 342 162 317 336 c 128,-1,62
 292 510 292 510 256 638 c 1,63,-1
 266 651 l 1,64,-1
 245 675 l 1,65,-1
 266 696 l 1,66,-1
 229 745 l 1,67,-1
 240 813 l 1,68,-1
 245 813 l 1,69,70
 243 822 243 822 233.5 916.5 c 128,-1,71
 224 1011 224 1011 204 1044 c 1,72,-1
 204 1031 l 1,73,74
 199.166666667 1031 199.166666667 1031 197 1044 c 2,75,-1
 185 1160 l 1,76,-1
 204 1207 l 1,77,-1
 180 1207 l 1,78,79
 178 1209 178 1209 178 1214 c 128,-1,80
 178 1219 178 1219 184 1225 c 128,-1,81
 190 1231 190 1231 195.5 1231 c 128,-1,82
 201 1231 201 1231 203 1229 c 2,83,-1
 44 1462 l 1,84,85
 78 1470 78 1470 226 1489 c 0,86,87
 627.680511182 1540.56709265 627.680511182 1540.56709265 645 1555 c 1,88,89
 645 1528 645 1528 669 1528 c 0,90,91
 676 1528 676 1528 680 1530 c 1,92,-1
 645 1484 l 1,93,94
 649 1429 649 1429 697.5 1289.5 c 128,-1,95
 746 1150 746 1150 746 1087 c 2,96,-1
 746 1069 l 1,97,98
 749 1082 749 1082 765.5 1142.5 c 128,-1,99
 782 1203 782 1203 794.5 1251 c 0,100,101
 829 1383.48 829 1383.48 829 1439 c 1,102,-1
 806 1543 l 1,103,104
 806 1551 806 1551 807 1555 c 1,105,-1
 825 1555 l 1,106,-1
 846 1530 l 1,107,-1
 846 1555 l 1,108,109
 900.333333333 1555 900.333333333 1555 903 1531 c 128,-1,110
 905.666666667 1507 905.666666667 1507 947 1507 c 1,111,112
 967 1527 967 1527 1001 1527 c 2,113,-1
 1008 1527 l 1,114,-1
 1026 1555 l 1,115,-1
 1047 1555 l 1,116,117
 1048.60833333 1519.61666667 1048.60833333 1519.61666667 1338 1467 c 0,118,119
 1448 1447 1448 1447 1469 1439 c 1,120,-1
 1367 1370 l 1,121,122
 1327.12195122 1370 1327.12195122 1370 1317 1328.5 c 0,123,124
 1309 1295.7 1309 1295.7 1309 1253 c 1,125,-1
 1327 1229 l 1,126,-1
 1292 1184 l 1,127,-1
 1309 1160 l 1,128,-1
 1286 1113 l 1,129,-1
 1272 1125 l 1,130,-1
 1268 1113 l 1,131,-1
 1293 1082 l 1,132,133
 1265 1045 1265 1045 1265 842 c 1,134,-1
 1268 651 l 1,135,136
 1268 549 1268 549 1254 421.5 c 128,-1,137
 1240 294 1240 294 1207 257 c 1,138,-1
 1222 233 l 1,139,-1
 1213 168.5 l 2,140,141
 1187 -17.8333333333 1187 -17.8333333333 1187 -45 c 1,142,-1
 1168 -20 l 1,143,144
 1163 -27 1163 -27 1151 -41 c 0,145,146
 1126 -70.1666666667 1126 -70.1666666667 1126 -86 c 1,147,-1
 1102 -38 l 1,148,149
 1115 -35 1115 -35 1126 -20 c 1,150,-1
 1108 2 l 1,151,152
 1108 44 1108 44 1088.5 58.5 c 128,-1,153
 1069 73 1069 73 1028 73 c 1,154,-1
 1006 72 l 1,155,156
 980 67 980 67 969 42.5 c 128,-1,157
 958 18 958 18 947 13 c 1,158,159
 922 13 922 13 923 17 c 128,-1,160
 924 21 924 21 923.608868477 22.3848656334 c 2,161,-1
 924 24 l 1,162,-1
 947 24 l 1,163,-1
 925 48 l 1,164,-1
 901 23 l 2,165,166
 899 21 899 21 896 21 c 0,0,1
1309 1091 m 1,167,-1
 1293 1082 l 1,168,169
 1296 1091 1296 1091 1309 1091 c 1,167,-1
816 1530 m 1,170,171
 816 1527 816 1527 819 1527 c 128,-1,172
 822 1527 822 1527 822 1531.5 c 128,-1,173
 822 1536 822 1536 820 1536 c 1,174,-1
 816 1530 l 1,170,171
846 233 m 1,175,-1
 844 238 l 1,176,-1
 844 243 l 2,177,178
 844 244 844 244 845 245.5 c 128,-1,179
 846 247 846 247 846 248 c 2,180,-1
 846 233 l 1,175,-1
595 257 m 1,181,-1
 586 257 l 1,182,183
 586 255 586 255 589.5 255 c 128,-1,184
 593 255 593 255 595 257 c 1,181,-1
1222 191 m 1,185,-1
 1228 187 l 2,186,187
 1224 189 1224 189 1218 189 c 1,188,189
 1220 191 1220 191 1222 191 c 1,185,-1
1209 185 m 1,190,-1
 1211 185 l 1,191,-1
 1214 189 l 1,192,-1
 1209 185 l 1,190,-1
EndSplineSet
EndChar

StartChar: N
Encoding: 47 78 13
Width: 1251
VWidth: 2308
Flags: HW
HStem: 1330 93<81 102> 1423 26<1158 1185.75> 1495 20G<516 561 678 743.5> 1495 20G<516 561 678 743.5>
VStem: 409 34<-106 -81> 516 58<1493 1515> 516 37<-314 -293 -291.811 -198.997 -196.963 -106> 715 108<-128.926 -15.489> 715 37<-292.165 -245> 715 19<-313.159 -279.993 -241.548 -176.653 -152 -130> 742 311<946.174 1315.74> 860 53<-151.947 -14.8411>
LayerCount: 2
Fore
SplineSet
624 195 m 1,0,-1
 607 334 l 1,1,-1
 571 381 l 1,2,-1
 571 450 l 1,3,4
 543 491 543 491 529 531 c 1,5,6
 536 456 536 456 536 410 c 128,-1,7
 536 364 536 364 535 330.5 c 128,-1,8
 534 297 534 297 534 288 c 1,9,10
 528 294 528 294 522 294 c 128,-1,11
 516 294 516 294 516 266 c 1,12,-1
 534 266 l 1,13,-1
 553 -118 l 1,14,15
 553 -173 553 -173 534 -198 c 1,16,17
 555 -230 555 -230 555 -268 c 128,-1,18
 555 -306 555 -306 553 -314 c 1,19,-1
 534 -337 l 1,20,-1
 516 -314 l 1,21,-1
 526 -293 l 1,22,23
 515 -265 515 -265 515 -193.5 c 128,-1,24
 515 -122 515 -122 516 -106 c 1,25,-1
 482 -60 l 1,26,-1
 443 -81 l 1,27,-1
 443 -106 l 1,28,-1
 426 -124 l 1,29,-1
 409 -106 l 1,30,-1
 409 -81 l 1,31,-1
 372 -106 l 1,32,-1
 372 -245 l 1,33,-1
 385 -267 l 1,34,-1
 372 -293 l 1,35,36
 376 -295 376 -295 376 -300.5 c 128,-1,37
 376 -306 376 -306 370.5 -312 c 128,-1,38
 365 -318 365 -318 361 -318 c 128,-1,39
 357 -318 357 -318 353 -314 c 2,40,-1
 337 -293 l 1,41,-1
 281 472 l 1,42,-1
 261 472 l 1,43,-1
 261 543 l 1,44,45
 242 566 242 566 211.5 844 c 128,-1,46
 181 1122 181 1122 181 1202 c 128,-1,47
 181 1282 181 1282 160 1308 c 1,48,-1
 180 1330 l 1,49,50
 107.875 1330 107.875 1330 96.9375 1342.5 c 128,-1,51
 86 1355 86 1355 83.5 1363.5 c 0,52,53
 76.6826568266 1386.67896679 76.6826568266 1386.67896679 45 1399 c 1,54,-1
 81 1423 l 1,55,-1
 100 1423 l 1,56,57
 102 1425 102 1425 102 1430.5 c 128,-1,58
 102 1436 102 1436 98 1442.5 c 128,-1,59
 94 1449 94 1449 91.5 1449 c 128,-1,60
 89 1449 89 1449 86 1445 c 2,61,-1
 100 1470 l 1,62,63
 174 1470 174 1470 312 1481.5 c 128,-1,64
 450 1493 450 1493 516 1493 c 1,65,-1
 516 1515 l 1,66,-1
 553 1515 l 2,67,68
 574 1515 574 1515 574 1452 c 1,69,-1
 571 1399 l 1,70,71
 582 1385 582 1385 585.5 1355.5 c 128,-1,72
 589 1326 589 1326 592 1305 c 128,-1,73
 595 1284 595 1284 607 1284 c 1,74,-1
 624 1260 l 1,75,-1
 624 1240 l 1,76,-1
 642 1214 l 1,77,-1
 624 1214 l 1,78,-1
 662 1168 l 1,79,80
 662 1141 662 1141 689 1059.5 c 128,-1,81
 716 978 716 978 734 936 c 1,82,-1
 742 1221 l 1,83,84
 742 1390 742 1390 678 1515 c 1,85,-1
 697 1515 l 2,86,87
 742 1515 742 1515 844.5 1493.5 c 128,-1,88
 947 1472 947 1472 1008 1472 c 128,-1,89
 1069 1472 1069 1472 1093 1445 c 1,90,-1
 1149 1449 l 2,91,92
 1156.21428571 1449 1156.21428571 1449 1182.10714286 1436.5 c 128,-1,93
 1208 1424 1208 1424 1211 1423 c 1,94,95
 1170.34917733 1421.30621572 1170.34917733 1421.30621572 1092 1313 c 0,96,97
 1058 1266 1058 1266 1053 1260 c 1,98,99
 1053 1120 1053 1120 1015.5 870 c 128,-1,100
 978 620 978 620 971 543 c 1,101,-1
 952 151 l 1,102,103
 929 122 929 122 929 75 c 1,104,-1
 934 -7 l 1,105,106
 934 -50 934 -50 913 -81 c 1,107,108
 913 -117.6 913 -117.6 899 -135.8 c 128,-1,109
 885 -154 885 -154 878 -168 c 1,110,-1
 860 -152 l 1,111,-1
 864 -66 l 2,112,113
 864 -60 864 -60 841 -14 c 1,114,115
 823 -50 823 -50 823 -71 c 128,-1,116
 823 -92 823 -92 841 -130 c 1,117,118
 818 -148 818 -148 805 -198 c 1,119,-1
 807 -180 l 1,120,121
 807 -142 807 -142 789 -106 c 1,122,-1
 768 -176 l 1,123,-1
 734 -130 l 1,124,-1
 734 -168 l 1,125,-1
 715 -152 l 1,126,-1
 715 -106 l 1,127,128
 704 -92 704 -92 701 -62 c 128,-1,129
 698 -32 698 -32 694.5 -11 c 128,-1,130
 691 10 691 10 678 10 c 1,131,-1
 680 55 l 2,132,133
 680 75 680 75 662 102 c 1,134,-1
 678 102 l 1,135,136
 655 134 655 134 648.5 154 c 128,-1,137
 642 174 642 174 642 217 c 1,138,-1
 624 195 l 1,0,-1
752 -245 m 1,139,140
 752 -268 752 -268 734 -293 c 1,141,-1
 734 -314 l 1,142,143
 727 -314 727 -314 721 -307.5 c 128,-1,144
 715 -301 715 -301 715 -293 c 2,145,-1
 715 -211 l 2,146,147
 715 -176 715 -176 734 -176 c 1,148,-1
 734 -198 l 2,149,150
 734 -245 734 -245 752 -245 c 1,139,140
EndSplineSet
EndChar

StartChar: O
Encoding: 48 79 14
Width: 1034
VWidth: 2308
Flags: HW
HStem: 2 185<481.678 567.041> 349 24<578 595> 1487 20G<395.5 502.652 507.478 539.5 615.478 651>
VStem: 53 889<1089 1310> 134 280<488.002 510 511.181 763.26> 195 239<257.067 394.157> 396 48<-138.821 -42.4678> 578 70<-174.936 -52.625> 648 1<-134.211 -130> 741 57<-93.0917 -21.9688> 838 21<1390 1416>
LayerCount: 2
Fore
SplineSet
576 -175 m 1,0,-1
 578 -138 l 1,1,2
 578 2 578 2 528 2 c 0,3,4
 501.615384615 2 501.615384615 2 491.807692308 -6.5 c 128,-1,5
 482 -15 482 -15 476 -21 c 128,-1,6
 470 -27 470 -27 466 -38.5 c 128,-1,7
 462 -50 462 -50 459 -58 c 128,-1,8
 456 -66 456 -66 453.5 -81 c 128,-1,9
 451 -96 451 -96 450 -103.5 c 128,-1,10
 449 -111 449 -111 447 -128.5 c 128,-1,11
 445 -146 445 -146 444 -152 c 1,12,13
 396 -152 396 -152 396 -91 c 0,14,15
 396 -44.9358974359 396 -44.9358974359 304 10.5 c 0,16,17
 265 34 265 34 253 46 c 1,18,-1
 253 24 l 1,19,-1
 235 24 l 1,20,-1
 253 46 l 1,21,22
 249 51 249 51 229.5 75 c 128,-1,23
 210 99 210 99 201.5 111.5 c 0,24,25
 174 151.941176471 174 151.941176471 174 187 c 1,26,-1
 195 187 l 1,27,28
 195 242 195 242 164.5 345 c 128,-1,29
 134 448 134 448 134 523 c 128,-1,30
 134 598 134 598 104.5 749.5 c 128,-1,31
 75 901 75 901 75 974 c 1,32,-1
 53 998 l 1,33,-1
 75 979 l 1,34,-1
 69 1046 l 1,35,-1
 62 1041 l 1,36,-1
 53 1044 l 1,37,-1
 75 1069 l 1,38,-1
 53 1089 l 1,39,40
 53 1197 53 1197 123.5 1296 c 128,-1,41
 194 1395 194 1395 294.5 1451 c 128,-1,42
 395 1507 395 1507 487 1507 c 1,43,-1
 505 1484 l 1,44,-1
 524 1507 l 1,45,46
 539 1507 539 1507 568 1495.5 c 128,-1,47
 597 1484 597 1484 613 1484 c 1,48,-1
 632 1507 l 1,49,50
 677 1451 677 1451 798 1438 c 1,51,-1
 838 1390 l 1,52,-1
 838 1416 l 1,53,-1
 859 1416 l 1,54,-1
 857 1390 l 1,55,-1
 877 1367 l 1,56,-1
 859 1344 l 1,57,58
 882 1344 882 1344 912 1336.5 c 128,-1,59
 942 1329 942 1329 942 1310 c 0,60,61
 942 1306 942 1306 938 1300 c 1,62,-1
 979 1251 l 1,63,-1
 959 1251 l 1,64,65
 959 1127.66666667 959 1127.66666667 971.5 1094.33333333 c 128,-1,66
 984 1061 984 1061 999 1044 c 1,67,68
 959 1044 959 1044 959 1003 c 128,-1,69
 959 962 959 962 973 942 c 1,70,71
 957 912 957 912 957 898.5 c 128,-1,72
 957 885 957 885 959 882 c 1,73,-1
 979 882 l 1,74,-1
 979 868 l 2,75,76
 979 464 979 464 918 464 c 1,77,-1
 899 324 l 1,78,-1
 918 324 l 1,79,-1
 870 250 l 1,80,-1
 877 233 l 1,81,82
 869 143 869 143 798 46 c 1,83,84
 798 -2.22222222222 798 -2.22222222222 780.5 -58.6111111111 c 128,-1,85
 763 -115 763 -115 759 -130 c 1,86,87
 740 -130 740 -130 738 -140 c 1,88,-1
 741 -60 l 2,89,90
 741 -49 741 -49 733.5 -34.5 c 128,-1,91
 726 -20 726 -20 716 -20 c 1,92,-1
 705 -22 l 1,93,94
 671 -63 671 -63 660 -85.5 c 128,-1,95
 649 -108 649 -108 648 -135 c 1,96,-1
 649 -130 l 2,97,98
 649 -134 649 -134 648 -135 c 1,99,-1
 648 -140 l 1,100,101
 643 -154 643 -154 632.5 -164.5 c 128,-1,102
 622 -175 622 -175 613 -175 c 2,103,-1
 576 -175 l 1,0,-1
560 835 m 1,104,105
 560 858 560 858 536 858 c 2,106,-1
 524 858 l 1,107,-1
 524 882 l 1,108,-1
 505 882 l 1,109,110
 505 858 505 858 487 858 c 1,111,-1
 487 835 l 1,112,-1
 469 835 l 1,113,-1
 434 766 l 1,114,115
 434 739 434 739 424 692.5 c 128,-1,116
 414 646 414 646 414 590.5 c 128,-1,117
 414 535 414 535 434 510 c 1,118,-1
 414 510 l 1,119,120
 414 496 414 496 418 492 c 128,-1,121
 422 488 422 488 434 488 c 1,122,-1
 434 373 l 1,123,124
 442.923076923 361.846153846 442.923076923 361.846153846 452.961538462 309.423076923 c 128,-1,125
 463 257 463 257 469 257 c 1,126,127
 473 250 473 250 481.5 229 c 0,128,129
 498.5 187 498.5 187 524 187 c 0,130,131
 557 187 557 187 576 244 c 128,-1,132
 595 301 595 301 595 349 c 1,133,-1
 578 349 l 1,134,-1
 578 373 l 1,135,-1
 595 373 l 1,136,-1
 613 396 l 1,137,-1
 613 580 l 2,138,139
 613 611 613 611 604 656 c 128,-1,140
 595 701 595 701 595 746 c 2,141,-1
 595 766 l 1,142,-1
 560 835 l 1,104,105
449 -135 m 1,143,144
 449.027333469 -135.681666326 449.027333469 -135.681666326 448.513666735 -137.840833163 c 128,-1,145
 448 -140 448 -140 448 -142 c 2,146,-1
 448 -138 l 2,147,148
 448 -137 448 -137 449 -135 c 1,143,144
EndSplineSet
EndChar

StartChar: P
Encoding: 49 80 15
Width: 1117
VWidth: 2308
Flags: HW
HStem: -111 21G<611 611.5> 1505 20G<568.5 575.5 695.349 721> 1505 20G<568.5 575.5 597 599 695.349 721>
VStem: 325 289<274.16 296 574 718.268> 538 38<-97 -73> 611 19<-106 -87>
LayerCount: 2
Fore
SplineSet
325 362 m 2,0,-1
 325 399 l 2,1,2
 325 505 325 505 277.5 740 c 128,-1,3
 230 975 230 975 230 1110.5 c 128,-1,4
 230 1246 230 1246 173 1322 c 0,5,6
 154 1348 154 1348 102.5 1386.5 c 128,-1,7
 51 1425 51 1425 29 1454 c 1,8,9
 298 1500 298 1500 499 1500 c 2,10,-1
 541 1500 l 1,11,12
 558 1525 558 1525 573 1525 c 1,13,-1
 588 1522 l 1,14,15
 594 1522 594 1522 599 1527 c 1,16,17
 599 1500 599 1500 649 1500 c 1,18,-1
 667 1482 l 1,19,-1
 720 1525 l 1,20,21
 721 1511 721 1511 746 1502 c 0,22,23
 779.333333333 1490 779.333333333 1490 831 1490 c 1,24,-1
 831 1500 l 1,25,26
 887 1500 887 1500 934 1467.5 c 128,-1,27
 981 1435 981 1435 1009.5 1383 c 0,28,29
 1070 1272.61403509 1070 1272.61403509 1070 1154 c 1,30,31
 1018.41081417 1096.67868241 1018.41081417 1096.67868241 1016 878.5 c 0,32,33
 1013.60311165 661.581604637 1013.60311165 661.581604637 977 506.5 c 0,34,35
 958 426 958 426 906.5 373 c 128,-1,36
 855 320 855 320 774 320 c 1,37,-1
 757 342 l 1,38,-1
 752 342 l 2,39,40
 744 342 744 342 739.5 331 c 128,-1,41
 735 320 735 320 726 320 c 2,42,-1
 720 320 l 1,43,-1
 720 342 l 1,44,-1
 674 315 l 1,45,-1
 667 342 l 1,46,-1
 649 342 l 1,47,-1
 649 320 l 1,48,-1
 630 342 l 1,49,-1
 630 320 l 1,50,-1
 614 296 l 1,51,-1
 630 43 l 1,52,-1
 614 19 l 1,53,54
 627 19 627 19 629.5 -4.5 c 128,-1,55
 632 -28 632 -28 633.5 -58.5 c 128,-1,56
 635 -89 635 -89 645 -101 c 1,57,-1
 630 -87 l 1,58,-1
 630 -106 l 1,59,60
 612 -106 612 -106 611 -111 c 1,61,62
 611 -90 611 -90 614 -81 c 1,63,-1
 604 -56 l 1,64,-1
 576 -73 l 1,65,-1
 576 -97 l 1,66,-1
 559 -97 l 1,67,68
 576 -111 576 -111 576 -135 c 1,69,-1
 559 -97 l 1,70,-1
 538 -99 l 1,71,-1
 541 -84 l 2,72,73
 541 -80 541 -80 532 -69 c 128,-1,74
 523 -58 523 -58 523 -51 c 1,75,-1
 486 -24 l 1,76,77
 480 -26 480 -26 469.5 -28 c 128,-1,78
 459 -30 459 -30 454.5 -31.5 c 128,-1,79
 450 -33 450 -33 444 -37.5 c 0,80,81
 434 -45 434 -45 434 -73 c 1,82,-1
 448 -97 l 1,83,-1
 434 -97 l 2,84,85
 398 -97 398 -97 369 21.5 c 128,-1,86
 340 140 340 140 340 194 c 128,-1,87
 340 248 340 248 360 274 c 1,88,89
 346.769230769 274 346.769230769 274 341.384615385 284 c 128,-1,90
 336 294 336 294 333 300.5 c 128,-1,91
 330 307 330 307 328.5 317 c 0,92,93
 325 340.333333333 325 340.333333333 325 362 c 2,0,-1
774 805 m 1,94,-1
 740 876 l 1,95,-1
 594 876 l 1,96,-1
 594 854 l 1,97,98
 607 854 607 854 610.5 850 c 128,-1,99
 614 846 614 846 614 829 c 2,100,-1
 614 783 l 2,101,102
 614 766 614 766 611 763 c 128,-1,103
 608 760 608 760 594 760 c 1,104,-1
 614 738 l 1,105,-1
 614 574 l 1,106,-1
 630 551 l 1,107,-1
 630 528 l 1,108,109
 649 528 649 528 649 551 c 1,110,-1
 774 551 l 1,111,-1
 774 805 l 1,94,-1
EndSplineSet
EndChar

StartChar: Q
Encoding: 50 81 16
Width: 1066
VWidth: 2308
Flags: HW
VStem: 48 456<735.892 884.514> 687 319<378.554 449 449.429 882.889>
LayerCount: 2
Fore
SplineSet
120 1257 m 0,0,1
 103 1257 103 1257 103 1275 c 0,2,3
 103 1301 103 1301 195 1357.5 c 128,-1,4
 287 1414 287 1414 389.5 1458.5 c 128,-1,5
 492 1503 492 1503 524 1503 c 0,6,7
 693.833333333 1503 693.833333333 1503 750.5 1463 c 0,8,9
 776 1445 776 1445 791.5 1426 c 0,10,11
 835.170989433 1372.4678194 835.170989433 1372.4678194 895 1352 c 1,12,-1
 886 1375 l 1,13,14
 963 1283 963 1283 984.5 1225.5 c 128,-1,15
 1006 1168 1006 1168 1006 1094 c 128,-1,16
 1006 1020 1006 1020 1015 965.5 c 128,-1,17
 1024 911 1024 911 1026 888 c 1,18,-1
 1006 888 l 1,19,20
 1006 767 1006 767 996 580 c 128,-1,21
 986 393 986 393 967 355 c 1,22,-1
 985 355 l 1,23,24
 977 336 977 336 965 294.5 c 0,25,26
 940.458483755 209.627256318 940.458483755 209.627256318 906 170 c 1,27,-1
 926 146 l 1,28,-1
 916 148 l 1,29,-1
 904 135 l 1,30,-1
 906 123 l 1,31,-1
 926 123 l 1,32,-1
 926 100 l 1,33,-1
 997 31 l 1,34,35
 1035 31 1035 31 1046 55 c 1,36,37
 1046 -21.5454545455 1046 -21.5454545455 1017 -40 c 0,38,39
 986.566666667 -59.3666666667 986.566666667 -59.3666666667 985 -86 c 1,40,41
 942.076923077 -86 942.076923077 -86 892 -225.5 c 0,42,43
 885 -245 885 -245 881 -256 c 0,44,45
 868.2 -291.2 868.2 -291.2 865 -304 c 1,46,-1
 865 -270 l 1,47,-1
 845 -270 l 1,48,49
 845 -211 845 -211 821 -172 c 128,-1,50
 797 -133 797 -133 746 -132 c 1,51,-1
 747 -122 l 1,52,53
 747 -95 747 -95 726 -60 c 1,54,55
 653 -86 653 -86 522 -86 c 0,56,57
 518.333333333 -86 518.333333333 -86 470.166666667 -52 c 128,-1,58
 422 -18 422 -18 418 -16 c 1,59,-1
 432 -16 l 1,60,61
 412 11 412 11 369 55 c 128,-1,62
 326 99 326 99 307 123 c 1,63,-1
 307 108 l 1,64,65
 300.668874172 139.655629139 300.668874172 139.655629139 268.834437086 172.32781457 c 128,-1,66
 237 205 237 205 229 217 c 1,67,-1
 249 217 l 1,68,69
 239 228 239 228 202 295 c 128,-1,70
 165 362 165 362 168 367 c 1,71,-1
 179 398 l 1,72,-1
 131 449 l 1,73,74
 152 489 152 489 152 522 c 128,-1,75
 152 555 152 555 150 564 c 1,76,77
 129 586 129 586 88.5 749 c 128,-1,78
 48 912 48 912 48 943.5 c 128,-1,79
 48 975 48 975 58 1007 c 128,-1,80
 68 1039 68 1039 68 1049 c 0,81,82
 68 1072 68 1072 46 1072 c 2,83,-1
 39 1072 l 1,84,85
 58 1114 58 1114 81 1122 c 1,86,-1
 68 1122 l 1,87,88
 92 1148 92 1148 109.5 1187 c 128,-1,89
 127 1226 127 1226 127 1260 c 1,90,91
 124 1257 124 1257 120 1257 c 0,0,1
504 657 m 1,92,-1
 488 493 l 1,93,94
 501 492 501 492 511.5 446.5 c 128,-1,95
 522 401 522 401 522 377 c 1,96,97
 536 360 536 360 549 318 c 128,-1,98
 562 276 562 276 576.5 246.5 c 128,-1,99
 591 217 591 217 614 217 c 1,100,101
 614 224 614 224 626 255 c 128,-1,102
 638 286 638 286 649 286 c 1,103,-1
 649 380 l 1,104,105
 655 377 655 377 667 377 c 1,106,107
 667 391 667 391 676 403.5 c 128,-1,108
 685 416 685 416 685 449 c 1,109,-1
 668 449 l 1,110,111
 687 457 687 457 687 527 c 128,-1,112
 687 597 687 597 678 659.5 c 128,-1,113
 669 722 669 722 667.5 738 c 128,-1,114
 666 754 666 754 665 775 c 128,-1,115
 664 796 664 796 662.5 807 c 128,-1,116
 661 818 661 818 658.5 837 c 128,-1,117
 656 856 656 856 651 866.5 c 128,-1,118
 646 877 646 877 638.5 888.5 c 0,119,120
 623.826086957 911 623.826086957 911 594.913043478 911 c 128,-1,121
 566 911 566 911 546.5 882.5 c 128,-1,122
 527 854 527 854 518.5 808.5 c 0,123,124
 504 730.882352941 504 730.882352941 504 657 c 1,92,-1
662 766 m 1,125,126
 665 757 665 757 665 750 c 1,127,-1
 662 766 l 1,125,126
EndSplineSet
EndChar

StartChar: R
Encoding: 51 82 17
Width: 1227
VWidth: 2308
Flags: HW
HStem: 1291 138<142 195.782> 1495 20G<506.5 576> 1495 20G<506.5 576>
VStem: 262 919<903.996 1202.87> 391 39<-48.1133 -29.6007> 647 15<-99 -50.7422> 662 2<-137.907 -130.092> 831 64<-91 -38.8423>
LayerCount: 2
Fore
SplineSet
831 -91 m 1,0,-1
 850 -38 l 1,1,-1
 838 -28 l 1,2,-1
 812 -28 l 1,3,4
 812 -30 812 -30 790 -36 c 1,5,6
 769 9 769 9 769 55.5 c 128,-1,7
 769 102 769 102 771 125 c 1,8,-1
 753 156 l 1,9,-1
 758 231 l 1,10,-1
 763 221 l 1,11,-1
 766 228 l 1,12,-1
 753 250 l 1,13,-1
 753 272 l 1,14,-1
 735 296 l 1,15,-1
 737 319 l 1,16,17
 737 339 737 339 729 367 c 1,18,19
 707.9375 367 707.9375 367 678.46875 355.5 c 128,-1,20
 649 344 649 344 643 342 c 1,21,-1
 643 365 l 1,22,-1
 627 342 l 1,23,-1
 635 342 l 1,24,-1
 643 272 l 1,25,-1
 622 233 l 1,26,-1
 643 228 l 1,27,28
 643 166 643 166 652.5 48.5 c 128,-1,29
 662 -69 662 -69 662 -130 c 1,30,-1
 647 -101 l 1,31,-1
 645 -96 l 1,32,-1
 647 -99 l 1,33,34
 647 -54 647 -54 631.5 -30.5 c 128,-1,35
 616 -7 616 -7 572 -7 c 1,36,37
 535 -53 535 -53 535 -122 c 1,38,39
 568 -92 568 -92 572 -81 c 1,40,-1
 572 -109 l 1,41,-1
 554 -132 l 1,42,43
 518 -132 518 -132 514 -101 c 1,44,45
 514 -105 514 -105 516 -112 c 128,-1,46
 518 -119 518 -119 518 -122 c 1,47,48
 510 -111 510 -111 504 -86 c 128,-1,49
 498 -61 498 -61 489 -44.5 c 128,-1,50
 480 -28 480 -28 462 -28 c 0,51,52
 430 -28 430 -28 430 -66 c 1,53,54
 431 -59 431 -59 437 -52 c 128,-1,55
 443 -45 443 -45 446 -45 c 1,56,-1
 428 -89 l 1,57,58
 423 -74 423 -74 413 -54.5 c 0,59,60
 391 -11.6 391 -11.6 391 23 c 0,61,62
 391 190 391 190 356 272 c 1,63,-1
 373 272 l 1,64,-1
 355 460 l 1,65,-1
 356 483 l 1,66,-1
 336 483 l 1,67,-1
 318 574 l 1,68,-1
 336 597 l 1,69,70
 336 623 336 623 312 623 c 1,71,-1
 299 620 l 1,72,-1
 301 667 l 1,73,74
 318 680 318 680 318 714 c 1,75,-1
 282 714 l 1,76,-1
 262 1107 l 1,77,78
 236.32967033 1135.87912088 236.32967033 1135.87912088 221.164835165 1187.43956044 c 128,-1,79
 206 1239 206 1239 188 1261.5 c 128,-1,80
 170 1284 170 1284 142 1291 c 1,81,82
 142 1341.2972973 142 1341.2972973 91.5 1364.5 c 128,-1,83
 41 1387.7027027 41 1387.7027027 41 1429 c 1,84,85
 86 1429 86 1429 171.5 1453.5 c 128,-1,86
 257 1478 257 1478 301 1478 c 1,87,-1
 336 1454 l 1,88,89
 373.88372093 1500.30232558 373.88372093 1500.30232558 420.441860465 1506.65116279 c 0,90,91
 481.666666667 1515 481.666666667 1515 538 1515 c 0,92,93
 727 1515 727 1515 790 1482 c 1,94,-1
 821 1503 l 1,95,-1
 871 1500 l 1,96,97
 883 1484 883 1484 943.5 1451 c 128,-1,98
 1004 1418 1004 1418 1029 1409.5 c 128,-1,99
 1054 1401 1054 1401 1092 1357 c 128,-1,100
 1130 1313 1130 1313 1151 1313 c 1,101,102
 1181 1283 1181 1283 1181 1135.5 c 128,-1,103
 1181 988 1181 988 1151 714 c 0,104,105
 1149 695 1149 695 1114 612 c 128,-1,106
 1079 529 1079 529 1079 501 c 128,-1,107
 1079 473 1079 473 1086 462 c 1,108,-1
 1070 459 l 1,109,110
 1060 447 1060 447 1038.5 441 c 128,-1,111
 1017 435 1017 435 1004 424.5 c 128,-1,112
 991 414 991 414 991 387 c 1,113,114
 1041.18444949 329.380817253 1041.18444949 329.380817253 1048.5 225.5 c 0,115,116
 1051 190 1051 190 1051 133 c 1,117,-1
 1028 118 l 1,118,-1
 1031 89 l 1,119,120
 1075 32.4285714286 1075 32.4285714286 1075 -65 c 1,121,-1
 1040 -124 l 1,122,-1
 1031 -122 l 1,123,-1
 991 -76 l 1,124,-1
 991 -97 l 1,125,126
 935 -97 935 -97 928 -76 c 0,127,128
 917.775 -45.325 917.775 -45.325 891 -28 c 1,129,-1
 895 -70 l 2,130,131
 895 -79 895 -79 884 -95.5 c 128,-1,132
 873 -112 873 -112 871 -116 c 1,133,-1
 831 -91 l 1,0,-1
674.5 621 m 128,-1,135
 692 617 692 617 731.353276353 615.847578348 c 128,-1,136
 770.706552707 614.695156695 770.706552707 614.695156695 769 642 c 1,137,-1
 790 642 l 1,138,139
 790 669 790 669 812 690 c 1,140,-1
 812 760 l 1,141,142
 820 760 820 760 825.5 767.5 c 128,-1,143
 831 775 831 775 831 783.5 c 128,-1,144
 831 792 831 792 821.5 805.5 c 128,-1,145
 812 819 812 819 812 829 c 1,146,-1
 735 898 l 1,147,-1
 662 898 l 1,148,-1
 643 876 l 1,149,-1
 627 898 l 1,150,-1
 627 876 l 1,151,-1
 608 876 l 1,152,-1
 627 851 l 1,153,-1
 627 760 l 1,154,155
 608 760 608 760 608 736 c 1,156,-1
 627 736 l 1,157,158
 627 730 627 730 627 710.5 c 128,-1,159
 627 691 627 691 627.5 679 c 128,-1,160
 628 667 628 667 632.5 651.5 c 128,-1,161
 637 636 637 636 647 630.5 c 128,-1,134
 657 625 657 625 674.5 621 c 128,-1,135
769 597 m 1,162,-1
 753 620 l 1,163,-1
 753 597 l 1,164,-1
 769 597 l 1,162,-1
662 -130 m 1,165,166
 664 -132 664 -132 664 -134 c 128,-1,167
 664 -136 664 -136 662 -138 c 1,168,-1
 662 -130 l 1,165,166
645 -96 m 1,169,170
 643 -96 643 -96 643 -91 c 1,171,-1
 645 -96 l 1,169,170
EndSplineSet
EndChar

StartChar: S
Encoding: 52 83 18
Width: 1034
VWidth: 2308
Flags: HW
HStem: 1492 20G<554.5 620.5>
VStem: 400 17<-84.9061 -63> 509 35<-68 -38> 582 16<-178 -105.381> 688 54<-87 -70> 707 35<-87 -70.0156>
LayerCount: 2
Fore
SplineSet
942 726 m 1,0,-1
 942 702 l 1,1,-1
 962 726 l 1,2,-1
 942 726 l 1,0,-1
539 -38 m 1,3,4
 539 -40 539 -40 541.5 -44.5 c 128,-1,5
 544 -49 544 -49 540.5 -58 c 0,6,7
 530 -85 530 -85 527 -91 c 1,8,-1
 509 -68 l 1,9,-1
 509 -38 l 1,10,-1
 417 -38 l 1,11,12
 417 -55 417 -55 426 -88 c 128,-1,13
 435 -121 435 -121 435 -138 c 1,14,-1
 400 -87 l 1,15,-1
 400 -63 l 1,16,-1
 383 -63 l 1,17,-1
 362 -41 l 1,18,-1
 362 -63 l 1,19,20
 338 -81 338 -81 331.5 -81 c 128,-1,21
 325 -81 325 -81 306.5 -59.5 c 128,-1,22
 288 -38 288 -38 270 -38 c 1,23,24
 194 38 194 38 192 77 c 1,25,26
 130 171 130 171 130 204.5 c 128,-1,27
 130 238 130 238 112 238 c 2,28,-1
 90 238 l 1,29,30
 138 319 138 319 274 319 c 1,31,-1
 435 309 l 1,32,-1
 454 330 l 1,33,-1
 452 319 l 1,34,35
 452 284 452 284 472 284 c 1,36,-1
 472 192 l 1,37,-1
 482 195 l 1,38,39
 509 195 509 195 509 168 c 1,40,-1
 527 168 l 1,41,42
 559 191 559 191 617 261 c 1,43,-1
 598 284 l 1,44,-1
 598 309 l 1,45,-1
 582 330 l 1,46,-1
 582 377 l 1,47,-1
 520 373 l 1,48,49
 476 369 476 369 454 399 c 1,50,51
 449 398 449 398 428.5 398 c 128,-1,52
 408 398 408 398 382 411 c 128,-1,53
 356 424 356 424 346 447 c 1,54,-1
 327 424 l 1,55,56
 220 481 220 481 163.5 535.5 c 0,57,58
 50 644.982300885 50 644.982300885 50 894 c 1,59,-1
 70 1120 l 1,60,-1
 130 1234 l 1,61,62
 130 1283 130 1283 161 1325.5 c 128,-1,63
 192 1368 192 1368 238.5 1395.5 c 128,-1,64
 285 1423 285 1423 340.5 1445.5 c 128,-1,65
 396 1468 396 1468 443.5 1480 c 128,-1,66
 491 1492 491 1492 525 1500.5 c 128,-1,67
 559 1509 559 1509 561 1512 c 1,68,69
 650 1512 650 1512 702.5 1492 c 128,-1,70
 755 1472 755 1472 835 1409 c 1,71,-1
 842 1419 l 1,72,73
 867 1389 867 1389 922.5 1337 c 128,-1,74
 978 1285 978 1285 1002 1257 c 1,75,-1
 1002 1234 l 1,76,-1
 982 1234 l 1,77,-1
 962 726 l 1,78,-1
 982 726 l 1,79,-1
 982 702 l 1,80,-1
 962 676 l 1,81,-1
 938.5 691.5 l 2,82,83
 884.677419355 727 884.677419355 727 875.838709677 727 c 128,-1,84
 867 727 867 727 863 726 c 1,85,-1
 842 702 l 1,86,-1
 781 748 l 1,87,-1
 781 726 l 1,88,-1
 634 726 l 2,89,90
 593 726 593 726 593 779 c 0,91,92
 593 792 593 792 598 842 c 1,93,-1
 582 817 l 1,94,-1
 544 865 l 1,95,-1
 509 865 l 2,96,97
 506 865 506 865 489.5 854 c 128,-1,98
 473 843 473 843 472 842 c 1,99,-1
 472 817 l 1,100,-1
 454 793 l 1,101,102
 454 759 454 759 477.5 717.5 c 128,-1,103
 501 676 501 676 527 676 c 1,104,-1
 527 656 l 1,105,-1
 544 676 l 1,106,107
 631.793103448 676 631.793103448 676 732.5 617 c 0,108,109
 843.675797797 551.866704321 843.675797797 551.866704321 890 461 c 0,110,111
 916 410 916 410 916 373 c 128,-1,112
 916 336 916 336 908 296.5 c 128,-1,113
 900 257 900 257 888 257 c 0,114,115
 885 257 885 257 882 260 c 2,116,-1
 901 238 l 1,117,118
 901 213 901 213 876 177 c 128,-1,119
 851 141 851 141 826 102.5 c 128,-1,120
 801 64 801 64 801 31 c 1,121,-1
 761 -38 l 1,122,-1
 764 -70 l 1,123,-1
 742 -70 l 1,124,-1
 742 -87 l 1,125,-1
 707 -107 l 1,126,127
 706 -104 706 -104 701 -93.5 c 0,128,129
 688 -66.2 688 -66.2 688 -63 c 1,130,-1
 742 -63 l 1,131,-1
 688 -18 l 1,132,-1
 617 -63 l 1,133,-1
 617 -87 l 1,134,135
 598 -112.333333333 598 -112.333333333 598 -138.916666667 c 2,136,-1
 598 -178 l 1,137,-1
 582 -178 l 1,138,-1
 582 -155 l 2,139,140
 582 -90 582 -90 598 -63 c 1,141,-1
 598 -33 l 1,142,143
 595 -36 595 -36 582 -38 c 1,144,-1
 539 -38 l 1,3,4
EndSplineSet
EndChar

StartChar: T
Encoding: 53 84 19
Width: 1275
VWidth: 2308
Flags: HW
HStem: -195 21G<774 775>
VStem: 517 321<526 548 572.712 688 713.107 779.62> 517 39<-192 -173.696> 538 280<-96.1358 178> 556 22<-191.906 -189> 677 41<-192 -145> 774 23<-186 -124.481>
LayerCount: 2
Fore
SplineSet
517 -233 m 1,0,-1
 538 178 l 1,1,-1
 517 201 l 1,2,-1
 501 481 l 1,3,-1
 517 503 l 1,4,-1
 517 548 l 1,5,-1
 501 572 l 1,6,7
 517 592 517 592 517 660.1 c 128,-1,8
 517 728.2 517 728.2 481 781 c 1,9,10
 485 786 485 786 485 791 c 0,11,12
 485 803 485 803 448.5 803 c 128,-1,13
 412 803 412 803 391 781 c 1,14,15
 326 781 326 781 280 758 c 1,16,-1
 260 781 l 1,17,-1
 220 735 l 1,18,19
 220 974 220 974 205.5 1082 c 128,-1,20
 191 1190 191 1190 120 1383 c 1,21,-1
 60 1429 l 1,22,-1
 79 1452 l 1,23,-1
 139 1449 l 1,24,25
 152 1447 152 1447 177 1461 c 128,-1,26
 202 1475 202 1475 231 1474.5 c 128,-1,27
 260 1474 260 1474 342 1486 c 128,-1,28
 424 1498 424 1498 465 1498 c 2,29,-1
 758 1498 l 2,30,31
 832 1498 832 1498 982.5 1464 c 128,-1,32
 1133 1430 1133 1430 1205 1429 c 1,33,34
 1205 1362.86486486 1205 1362.86486486 1154.5 1311 c 128,-1,35
 1104 1259.13513514 1104 1259.13513514 1104 1221 c 1,36,-1
 1086 1197 l 1,37,-1
 1126 1174 l 1,38,-1
 1066 735 l 1,39,-1
 1045 758 l 1,40,-1
 1025 758 l 1,41,-1
 1005 781 l 1,42,43
 970 781 970 781 916.5 804 c 128,-1,44
 863 827 863 827 838 827 c 1,45,46
 838 735 838 735 818 712 c 1,47,-1
 838 688 l 1,48,-1
 838 526 l 1,49,-1
 818 503 l 1,50,-1
 818 431 l 1,51,-1
 838 409 l 1,52,-1
 799 294 l 1,53,-1
 818 271 l 1,54,-1
 818 250 l 1,55,-1
 799 226 l 1,56,-1
 818 201 l 1,57,-1
 818 -53 l 1,58,-1
 797 -186 l 1,59,60
 776 -186 776 -186 774 -195 c 1,61,62
 774 -149 774 -149 779 -124 c 1,63,-1
 739 -99 l 1,64,-1
 718 -124 l 1,65,-1
 718 -192 l 1,66,-1
 677 -192 l 1,67,-1
 677 -145 l 1,68,69
 654 -175 654 -175 614 -175 c 1,70,-1
 558 -168 l 1,71,72
 556 -176 556 -176 556 -192 c 1,73,74
 556 -191 556 -191 567 -189 c 128,-1,75
 578 -187 578 -187 578 -186 c 1,76,77
 578 -207 578 -207 557.5 -220 c 128,-1,78
 537 -233 537 -233 517 -233 c 1,0,-1
EndSplineSet
EndChar

StartChar: U
Encoding: 54 85 20
Width: 1306
VWidth: 2308
Flags: HW
HStem: 1441 25<28 87.9971> 1492 20G<316 598 749.217 753.5>
VStem: 249 338<264.354 469.059 679.462 998.96> 249 320<400.218 493 562 586 632 673.374> 249 300<562 586 632 998.96> 415 12<-75.0247 -36.3252> 660 20<-78.1618 6> 716 288<447 562 610 632 676 702> 999 23<1466.14 1487.05>
LayerCount: 2
Fore
SplineSet
488 -38 m 1,0,-1
 470 -79 l 1,1,-1
 448 -79 l 1,2,3
 428 -57 428 -57 427 -55 c 0,4,5
 418 -1 418 -1 386 38 c 128,-1,6
 354 77 354 77 308 77 c 1,7,-1
 330 100 l 1,8,9
 305 127 305 127 295 192 c 128,-1,10
 285 257 285 257 277.5 312 c 128,-1,11
 270 367 270 367 249 377 c 1,12,-1
 249 493 l 1,13,-1
 228 515 l 1,14,-1
 228 539 l 1,15,-1
 249 562 l 1,16,-1
 249 586 l 1,17,-1
 228 586 l 1,18,-1
 228 610 l 1,19,-1
 249 632 l 1,20,21
 249 650 249 650 223 854.5 c 128,-1,22
 197 1059 197 1059 188 1120 c 1,23,-1
 167 1120 l 1,24,-1
 188 1142 l 1,25,26
 165 1166 165 1166 165 1239 c 128,-1,27
 165 1312 165 1312 167 1327 c 1,28,29
 150 1346 150 1346 135.5 1371.5 c 128,-1,30
 121 1397 121 1397 113.5 1409.5 c 0,31,32
 94.6 1441 94.6 1441 28 1441 c 1,33,-1
 28 1466 l 1,34,35
 87 1466 87 1466 202 1489 c 128,-1,36
 317 1512 317 1512 369 1512 c 2,37,-1
 598 1512 l 1,38,-1
 569 1466 l 1,39,-1
 575 1329 l 2,40,41
 579 1249 579 1249 549 1211 c 1,42,43
 556 1202 556 1202 571.5 1153.5 c 128,-1,44
 587 1105 587 1105 587 1094 c 2,45,-1
 587 888 l 2,46,47
 587 852 587 852 568 782.5 c 128,-1,48
 549 713 549 713 549 681 c 128,-1,49
 549 649 549 649 560 590 c 128,-1,50
 571 531 571 531 571 497 c 1,51,-1
 569 470 l 1,52,53
 589 446 589 446 589 399 c 1,54,-1
 587 337 l 1,55,-1
 608 261 l 1,56,-1
 660 261 l 1,57,-1
 698 309 l 1,58,-1
 698 332 l 2,59,60
 698 400 698 400 716 424 c 1,61,-1
 698 424 l 1,62,63
 716 450 716 450 716 503 c 2,64,-1
 716 562 l 1,65,-1
 734 586 l 1,66,-1
 716 610 l 1,67,-1
 716 632 l 1,68,-1
 734 656 l 1,69,-1
 716 676 l 1,70,-1
 716 702 l 1,71,-1
 734 702 l 1,72,-1
 752 1188 l 1,73,-1
 739 1211 l 1,74,-1
 752 1211 l 1,75,-1
 752 1257 l 1,76,-1
 734 1282 l 1,77,-1
 752 1304 l 1,78,-1
 769 1466 l 1,79,-1
 734 1512 l 1,80,81
 779 1482 779 1482 856 1482 c 1,82,-1
 901 1484 l 1,83,84
 958 1484 958 1484 1004 1466 c 1,85,86
 999 1470 999 1470 999 1476 c 0,87,88
 999 1488 999 1488 1022 1488 c 1,89,-1
 1022 1466 l 1,90,91
 1055 1466 1055 1466 1118.5 1451.5 c 128,-1,92
 1182 1437 1182 1437 1202 1419 c 1,93,-1
 1283 1419 l 1,94,-1
 1181 1350 l 1,95,-1
 1140 1257 l 1,96,-1
 1161 1234 l 1,97,-1
 1140 1234 l 1,98,-1
 1140 1211 l 1,99,100
 1122 1104 1122 1104 1090 995.5 c 128,-1,101
 1058 887 1058 887 1041.5 789.5 c 128,-1,102
 1025 692 1025 692 1025 529 c 0,103,104
 1025 492 1025 492 1004 470 c 1,105,-1
 1004 447 l 1,106,-1
 1022 424 l 1,107,-1
 1004 424 l 1,108,-1
 1004 394 l 2,109,110
 1004 354 1004 354 986 330 c 1,111,-1
 1004 309 l 1,112,-1
 986 309 l 1,113,-1
 986 296 l 2,114,115
 986 263 986 263 968 214 c 1,116,-1
 986 192 l 1,117,-1
 968 192 l 1,118,-1
 950 168 l 1,119,-1
 968 146 l 1,120,-1
 950 146 l 1,121,-1
 913 77 l 1,122,-1
 923 53 l 1,123,-1
 806 53 l 1,124,-1
 812 -51 l 2,125,126
 813.609699769 -73.5357967667 813.609699769 -73.5357967667 793.304849885 -103.267898383 c 128,-1,127
 773 -133 773 -133 769 -140 c 1,128,129
 752 -106 752 -106 752 -89 c 128,-1,130
 752 -72 752 -72 769.5 -31 c 128,-1,131
 787 10 787 10 787 31 c 1,132,-1
 734 53 l 1,133,-1
 679 6 l 1,134,-1
 680 -35 l 2,135,136
 680 -63 680 -63 660 -86 c 1,137,-1
 660 53 l 1,138,-1
 626 100 l 1,139,-1
 587 100 l 2,140,141
 566 100 566 100 566 69 c 1,142,-1
 569 33 l 1,143,144
 569 6 569 6 549 6 c 1,145,-1
 549 -18 l 1,146,-1
 508 6 l 1,147,-1
 488 53 l 1,148,-1
 488 6 l 1,149,-1
 470 -18 l 1,150,-1
 488 -38 l 1,0,-1
429 -86 m 1,151,152
 415 -81 415 -81 415 -36 c 1,153,154
 416 -40 416 -40 427 -55 c 1,155,156
 429 -65 429 -65 429 -86 c 1,151,152
EndSplineSet
EndChar

StartChar: V
Encoding: 55 86 21
Width: 1168
VWidth: 2308
Flags: HW
HStem: 1495 3<1078 1199.46> 1505 20G<488 511.953 696 723.2 734.2 763> 1505 20G<488 511.953 696 723.2 734.2 763>
LayerCount: 2
Fore
SplineSet
930 944 m 1,0,1
 898 868 898 868 869.5 671.5 c 128,-1,2
 841 475 841 475 797 389 c 1,3,-1
 799 349 l 1,4,5
 799 316 799 316 780 296 c 1,6,7
 780 242 780 242 757.5 160.5 c 128,-1,8
 735 79 735 79 707 43 c 1,9,-1
 707 19 l 1,10,-1
 726 19 l 1,11,12
 696.031904287 -4.65902293121 696.031904287 -4.65902293121 697.5 -81 c 0,13,14
 698 -107 698 -107 676 -134.5 c 128,-1,15
 654 -162 654 -162 604 -176 c 1,16,-1
 588 -130 l 1,17,18
 595 -121 595 -121 604 -103 c 128,-1,19
 613 -85 613 -85 624 -73 c 1,20,21
 571.259259259 -73 571.259259259 -73 566 -108.5 c 128,-1,22
 560.740740741 -144 560.740740741 -144 498 -144 c 1,23,-1
 484 -122 l 1,24,-1
 460 -122 l 1,25,-1
 435 -111 l 1,26,-1
 444 -81 l 1,27,-1
 421 -107 l 1,28,-1
 421 -109 l 1,29,-1
 407 -130 l 1,30,31
 377 -117 377 -117 377 -84.5 c 128,-1,32
 377 -52 377 -52 358.5 -11 c 128,-1,33
 340 30 340 30 340 43 c 0,34,35
 340 172 340 172 303 274 c 1,36,-1
 321 296 l 1,37,38
 274.507936508 296 274.507936508 296 272 454 c 0,39,40
 271 517 271 517 268 528 c 0,41,42
 239 626 239 626 231.5 758.5 c 128,-1,43
 224 891 224 891 219.5 1029 c 128,-1,44
 215 1167 215 1167 193 1261 c 1,45,-1
 173 1238 l 1,46,-1
 173 1330 l 1,47,48
 131 1390 131 1390 75.5 1430 c 128,-1,49
 20 1470 20 1470 -32 1470 c 1,50,51
 -6 1473 -6 1473 129.5 1485.5 c 0,52,53
 482.367869616 1518.0523865 482.367869616 1518.0523865 498 1525 c 1,54,-1
 528 1482 l 1,55,-1
 498 1500 l 1,56,57
 478 1476 478 1476 478 1421 c 2,58,-1
 478 1385 l 1,59,-1
 498 1395 l 1,60,-1
 498 1380 l 1,61,-1
 485 1362 l 1,62,63
 493 1305 493 1305 515 1291 c 1,64,-1
 498 1269 l 1,65,-1
 498 1222 l 2,66,67
 498 1152 498 1152 514 1017.5 c 128,-1,68
 530 883 530 883 533 835 c 1,69,-1
 515 854 l 1,70,71
 515 784 515 784 524 645.5 c 128,-1,72
 533 507 533 507 533 437 c 1,73,-1
 569 551 l 1,74,-1
 551 574 l 1,75,76
 556 584 556 584 626 1003.5 c 128,-1,77
 696 1423 696 1423 696 1431 c 1,78,-1
 716 1470 l 1,79,-1
 713 1500 l 1,80,-1
 696 1500 l 1,81,-1
 696 1525 l 1,82,-1
 730 1500 l 1,83,-1
 751 1525 l 1,84,85
 778 1498 778 1498 1020 1498 c 2,86,-1
 1107 1498 l 2,87,88
 1124 1498 1124 1498 1154 1496.5 c 128,-1,89
 1184 1495 1184 1495 1201 1495 c 1,90,91
 1158 1490 1158 1490 1112 1429 c 128,-1,92
 1066 1368 1066 1368 1030.5 1280.5 c 0,93,94
 958.561508636 1103.18681706 958.561508636 1103.18681706 930 945 c 1,95,-1
 930 944 l 1,0,1
EndSplineSet
EndChar

StartChar: W
Encoding: 56 87 22
Width: 1593
VWidth: 2308
Flags: HW
HStem: 1336 22<-0.0133057 29.774> 1502 20G<1094.83 1098 1214 1224>
VStem: 292 300<946.725 1081 1104.19 1139.45> 665 17<17.3594 37.6243> 718 40<-19.718 37.5283> 755 3<-33 -17.704> 812 316<340.188 545.178> 831 19<3 16> 850 182<39.0818 242.812> 1098 37<1505 1522>
LayerCount: 2
Fore
SplineSet
738 -38 m 1,0,1
 722.25 -38 722.25 -38 718 -4 c 1,2,-1
 718 0 l 1,3,4
 710 28 710 28 701 38 c 1,5,-1
 683 38 l 1,6,7
 682 30 682 30 682 13 c 1,8,9
 680 17 680 17 672.5 24.5 c 128,-1,10
 665 32 665 32 665 38 c 1,11,-1
 628 85 l 1,12,13
 620 66 620 66 612 16 c 1,14,15
 595 39 595 39 549 198 c 128,-1,16
 503 357 503 357 503 387 c 1,17,-1
 484 387 l 1,18,-1
 503 409 l 1,19,20
 483 457 483 457 468 537 c 128,-1,21
 453 617 453 617 433.5 686 c 128,-1,22
 414 755 414 755 376 803 c 1,23,-1
 358 803 l 1,24,-1
 376 827 l 1,25,-1
 342 874 l 1,26,-1
 322 874 l 1,27,-1
 304 1081 l 1,28,-1
 286 1104 l 1,29,30
 292 1110 292 1110 292 1115.5 c 128,-1,31
 292 1121 292 1121 278 1127.5 c 128,-1,32
 264 1134 264 1134 264 1140.5 c 128,-1,33
 264 1147 264 1147 269 1152 c 1,34,-1
 236 1152 l 1,35,-1
 250 1174 l 1,36,-1
 232 1197 l 1,37,-1
 211 1197 l 1,38,-1
 232 1221 l 1,39,40
 210 1246 210 1246 152.5 1278.5 c 128,-1,41
 95 1311 95 1311 72 1336 c 1,42,-1
 49 1336 l 2,43,44
 9 1336 9 1336 -7 1358 c 1,45,46
 0 1359 0 1359 93.5 1387.5 c 0,47,48
 358 1468.12299465 358 1468.12299465 358 1454 c 1,49,50
 358 1480.52941176 358 1480.52941176 401 1478 c 0,51,52
 448.702586207 1475.19396552 448.702586207 1475.19396552 468 1498 c 1,53,-1
 503 1452 l 1,54,-1
 520 1474 l 1,55,-1
 539 1474 l 1,56,-1
 520 1498 l 1,57,-1
 539 1498 l 1,58,-1
 557 1474 l 1,59,-1
 557 1464 l 2,60,61
 557 1406 557 1406 574 1383 c 1,62,-1
 557 1387 l 1,63,-1
 557 1313 l 1,64,-1
 574 1313 l 1,65,-1
 573 1247 l 2,66,67
 573 1214 573 1214 593 1152 c 1,68,-1
 592 1132 l 1,69,70
 592 1060 592 1060 628 944 c 1,71,72
 628 1073 628 1073 683 1313 c 1,73,-1
 665 1313 l 1,74,75
 689 1325 689 1325 720 1474 c 1,76,-1
 710 1482 l 1,77,-1
 720 1498 l 1,78,-1
 720 1488 l 1,79,-1
 738 1522 l 1,80,-1
 720 1522 l 1,81,-1
 738 1546 l 1,82,-1
 912 1546 l 1,83,-1
 899 1498 l 1,84,85
 919 1474 919 1474 919 1418 c 2,86,-1
 919 1383 l 1,87,88
 932.953982301 1365.94513274 932.953982301 1365.94513274 958.97699115 1221.47256637 c 128,-1,89
 985 1077 985 1077 990 1058 c 1,90,91
 996 1075 996 1075 1008.5 1118.5 c 0,92,93
 1034.13976378 1207.72637795 1034.13976378 1207.72637795 1063 1243 c 1,94,-1
 1045 1267 l 1,95,-1
 1045 1291 l 1,96,97
 1102 1358 1102 1358 1102 1441 c 0,98,99
 1102 1454 1102 1454 1098 1498 c 1,100,-1
 1079 1522 l 1,101,-1
 1098 1505 l 1,102,-1
 1098 1522 l 1,103,-1
 1116 1546 l 1,104,-1
 1135 1522 l 1,105,-1
 1135 1498 l 1,106,107
 1139 1497 1139 1497 1163.5 1497 c 128,-1,108
 1188 1497 1188 1497 1224 1522 c 1,109,-1
 1224 1498 l 1,110,111
 1318.95833333 1498 1318.95833333 1498 1449.47916667 1445.5 c 128,-1,112
 1580 1393 1580 1393 1611 1383 c 1,113,-1
 1550 1358 l 1,114,-1
 1550 1354 l 1,115,-1
 1532 1358 l 1,116,117
 1484.1509434 1346.03773585 1484.1509434 1346.03773585 1464.0754717 1327.01886792 c 128,-1,118
 1444 1308 1444 1308 1423 1282 c 128,-1,119
 1402 1256 1402 1256 1390 1243 c 1,120,-1
 1390 1221 l 1,121,-1
 1372 1197 l 1,122,-1
 1386 1197 l 1,123,124
 1310.14772163 1167.6934379 1310.14772163 1167.6934379 1218.5 879.5 c 0,125,126
 1177 749 1177 749 1171 735 c 1,127,-1
 1211 712 l 1,128,-1
 1203 712 l 1,129,130
 1181 636 1181 636 1154.5 519 c 128,-1,131
 1128 402 1128 402 1128 373 c 128,-1,132
 1128 344 1128 344 1130 340 c 1,133,-1
 1109 340 l 1,134,-1
 1130 317 l 1,135,-1
 1109 294 l 1,136,-1
 1091 294 l 1,137,138
 1086 276 1086 276 1071.5 226.5 c 128,-1,139
 1057 177 1057 177 1051 153.5 c 0,140,141
 1032 79.0833333333 1032 79.0833333333 1032 16 c 0,142,143
 1032 9 1032 9 1021 -5 c 128,-1,144
 1010 -19 1010 -19 1010 -26 c 1,145,-1
 997 -16 l 1,146,147
 1005 -8 1005 -8 1010 -7 c 1,148,149
 995 -7 995 -7 983 0 c 1,150,-1
 970 16 l 1,151,-1
 977 0 l 1,152,153
 968 4 968 4 947 15 c 0,154,155
 903.090909091 38 903.090909091 38 870 38 c 1,156,157
 874 34 874 34 874 29.5 c 128,-1,158
 874 25 874 25 868.5 19 c 128,-1,159
 863 13 863 13 858 13 c 128,-1,160
 853 13 853 13 850 16 c 1,161,-1
 850 3 l 1,162,-1
 831 -8 l 1,163,-1
 830 38 l 1,164,165
 850 64 850 64 850 118.5 c 128,-1,166
 850 173 850 173 831 293 c 128,-1,167
 812 413 812 413 812 447 c 128,-1,168
 812 481 812 481 803 512 c 128,-1,169
 794 543 794 543 793 548 c 1,170,171
 793 488 793 488 774 374 c 128,-1,172
 755 260 755 260 755 201 c 1,173,-1
 738 201 l 1,174,-1
 736 178 l 1,175,176
 736 143 736 143 746.5 69.5 c 128,-1,177
 757 -4 757 -4 758 -33 c 1,178,-1
 755 -16 l 1,179,-1
 738 -38 l 1,0,1
EndSplineSet
EndChar

StartChar: X
Encoding: 57 88 23
Width: 1203
VWidth: 2308
Flags: HW
HStem: 498 33<766.141 781.988> 1408 21<-8.97266 78.156> 1452 46<692 710.531> 1502 20G<464 475 674 692>
VStem: 369 17<-124 -99> 874 36<-99 -68.6854>
LayerCount: 2
Fore
SplineSet
874 -76 m 1,0,1
 854.833333333 -53 854.833333333 -53 801 -53 c 1,2,-1
 782 -28 l 1,3,-1
 728 -28 l 1,4,-1
 711 -53 l 1,5,-1
 655 -53 l 1,6,7
 655 126 655 126 601 272 c 1,8,-1
 601 182 l 1,9,10
 565 182 565 182 565 26 c 0,11,12
 565 -14 565 -14 567.5 -28 c 128,-1,13
 570 -42 570 -42 584 -76 c 1,14,-1
 548 -28 l 1,15,-1
 530 -28 l 1,16,-1
 530 -58 l 1,17,-1
 495 -53 l 1,18,-1
 475 -76 l 1,19,-1
 459 -76 l 1,20,-1
 440 -53 l 1,21,-1
 404 -99 l 1,22,-1
 386 -99 l 1,23,-1
 386 -124 l 1,24,-1
 369 -124 l 1,25,-1
 369 -76 l 1,26,-1
 349 -99 l 1,27,-1
 331 -76 l 1,28,-1
 331 -28 l 1,29,-1
 369 41 l 1,30,31
 372 81 372 81 396 128 c 1,32,-1
 386 132 l 1,33,-1
 386 156 l 1,34,35
 415.014132278 194.245901639 415.014132278 194.245901639 422.5 324.5 c 0,36,37
 425 368 425 368 440 387 c 1,38,-1
 422 387 l 1,39,-1
 440 409 l 1,40,-1
 440 456 l 1,41,-1
 475 526 l 1,42,43
 475 552 475 552 458 574.5 c 128,-1,44
 441 597 441 597 440 610 c 1,45,-1
 436 608 l 1,46,-1
 422 620 l 1,47,-1
 440 620 l 1,48,49
 407 775 407 775 404 793 c 1,50,-1
 422 758 l 1,51,-1
 422 803 l 1,52,-1
 404 967 l 1,53,54
 390 990 390 990 360 1066.5 c 128,-1,55
 330 1143 330 1143 296 1174 c 1,56,57
 293.945560596 1233.57874271 293.945560596 1233.57874271 238.5 1286 c 0,58,59
 189.765822785 1332.07594937 189.765822785 1332.07594937 142.382911392 1365.03797468 c 128,-1,60
 95 1398 95 1398 82 1408 c 1,61,-1
 61 1408 l 2,62,63
 3 1408 3 1408 -17 1429 c 1,64,65
 38 1429 38 1429 142 1452.5 c 128,-1,66
 246 1476 246 1476 296 1476 c 1,67,-1
 296 1498 l 1,68,-1
 386 1495 l 1,69,70
 450 1490 450 1490 475 1522 c 1,71,-1
 475 1498 l 1,72,-1
 462 1498 l 1,73,-1
 511 1476 l 1,74,-1
 530 1498 l 1,75,-1
 530 1476 l 1,76,-1
 601 1408 l 1,77,-1
 566 1408 l 1,78,-1
 566 1360 l 1,79,80
 584 1338 584 1338 584 1298 c 2,81,-1
 584 1267 l 1,82,83
 614 1215 614 1215 623 1180 c 1,84,85
 638 1210 638 1210 674.5 1313.5 c 128,-1,86
 711 1417 711 1417 711 1449 c 2,87,-1
 711 1452 l 1,88,-1
 692 1452 l 1,89,-1
 692 1476 l 1,90,-1
 674 1476 l 1,91,-1
 674 1498 l 1,92,-1
 692 1510 l 1,93,-1
 692 1498 l 1,94,95
 768 1498 768 1498 976.5 1457.5 c 128,-1,96
 1185 1417 1185 1417 1221 1383 c 1,97,-1
 1236 1383 l 1,98,99
 962 1305 962 1305 891 1130 c 1,100,-1
 910 1130 l 1,101,-1
 910 1104 l 1,102,-1
 891 1130 l 1,103,104
 862 1063 862 1063 848.5 966 c 128,-1,105
 835 869 835 869 819 777.5 c 128,-1,106
 803 686 803 686 766 620 c 1,107,-1
 782 596 l 1,108,-1
 782 549 l 1,109,-1
 766 549 l 1,110,-1
 766 526 l 1,111,112
 771 531 771 531 776.5 531 c 128,-1,113
 782 531 782 531 782 514.5 c 128,-1,114
 782 498 782 498 776.5 498 c 128,-1,115
 771 498 771 498 766 505 c 1,116,117
 766 462 766 462 783.5 379.5 c 128,-1,118
 801 297 801 297 801 261 c 2,119,-1
 801 250 l 1,120,121
 843 195 843 195 869 54 c 128,-1,122
 895 -87 895 -87 910 -124 c 1,123,-1
 891 -124 l 1,124,-1
 874 -99 l 1,125,-1
 874 -76 l 1,0,1
EndSplineSet
EndChar

StartChar: Y
Encoding: 58 89 24
Width: 1411
VWidth: 2308
Flags: HW
HStem: -53 5<925.093 927> 1346 27<1369.68 1446> 1488 20G<259 275 350.545 583>
LayerCount: 2
Fore
SplineSet
18 1441 m 1,0,1
 175.5 1486 175.5 1486 259 1486 c 1,2,-1
 259 1508 l 1,3,4
 276 1508 276 1508 305 1497.5 c 128,-1,5
 334 1487 334 1487 349 1486 c 1,6,-1
 366 1508 l 1,7,-1
 583 1508 l 1,8,-1
 583 1486 l 1,9,10
 591 1477 591 1477 614 1433 c 128,-1,11
 637 1389 637 1389 637 1373 c 2,12,-1
 637 1371 l 1,13,-1
 655 1346 l 1,14,15
 657 1350 657 1350 662 1350 c 128,-1,16
 667 1350 667 1350 671.5 1344 c 128,-1,17
 676 1338 676 1338 676 1332.5 c 128,-1,18
 676 1327 676 1327 673 1324 c 1,19,-1
 764 1140 l 1,20,-1
 871 1371 l 1,21,-1
 853 1393 l 1,22,-1
 853 1418 l 1,23,-1
 871 1418 l 1,24,25
 871 1438 871 1438 880.5 1475 c 128,-1,26
 890 1512 890 1512 890 1533 c 1,27,28
 905 1508 905 1508 939 1508 c 2,29,-1
 961 1508 l 1,30,31
 985 1478 985 1478 1025.5 1471.5 c 128,-1,32
 1066 1465 1066 1465 1104 1462.5 c 128,-1,33
 1142 1460 1142 1460 1160 1441 c 1,34,-1
 1256 1441 l 1,35,36
 1256 1405.11538462 1256 1405.11538462 1404 1379.5 c 0,37,38
 1430 1375 1430 1375 1450 1373 c 1,39,-1
 1446 1346 l 1,40,41
 1381 1346 1381 1346 1318 1312.5 c 128,-1,42
 1255 1279 1255 1279 1217 1222 c 1,43,-1
 1221 1219 l 1,44,45
 1221 1207 1221 1207 1199 1196 c 128,-1,46
 1177 1185 1177 1185 1177 1186 c 2,47,-1
 1051 1023 l 1,48,49
 1029 948 1029 948 1004.5 678.5 c 128,-1,50
 980 409 980 409 980 302.5 c 128,-1,51
 980 196 980 196 967.5 71.5 c 128,-1,52
 955 -53 955 -53 931 -53 c 0,53,54
 930 -53 930 -53 925 -48 c 1,55,-1
 926 -46 l 1,56,57
 926 -23 926 -23 907 -18 c 1,58,59
 871.25 -59.7083333333 871.25 -59.7083333333 776 -65 c 1,60,-1
 764 -94 l 1,61,-1
 745 -70 l 1,62,63
 737 -11 737 -11 727 132 c 128,-1,64
 717 275 717 275 707 378.5 c 128,-1,65
 697 482 697 482 665 602 c 128,-1,66
 633 722 633 722 583 791 c 1,67,68
 583 857 583 857 533 953 c 128,-1,69
 483 1049 483 1049 474 1092 c 1,70,-1
 493 1092 l 1,71,72
 460 1097 460 1097 424.5 1137 c 128,-1,73
 389 1177 389 1177 366 1186 c 1,74,-1
 366 1231 l 1,75,76
 364 1226 364 1226 359 1226 c 128,-1,77
 354 1226 354 1226 349.5 1233 c 128,-1,78
 345 1240 345 1240 345 1245.5 c 128,-1,79
 345 1251 345 1251 349 1255 c 1,80,81
 336 1263 336 1263 251 1319.5 c 0,82,83
 68.2123893805 1441 68.2123893805 1441 -2 1441 c 1,84,-1
 -2 1462 l 1,85,-1
 18 1441 l 1,0,1
EndSplineSet
EndChar

StartChar: Z
Encoding: 59 90 25
Width: 1424
VWidth: 2308
Flags: HW
HStem: -7 291<673 807.255> 1492 20G<384 599 618 850.5>
VStem: 384 90<-22.0546 6> 439 18<-36 -22.4546> 586 13<-36 -14.9634>
LayerCount: 2
Fore
SplineSet
457 373 m 2,0,1
 457 399 457 399 472 399 c 2,2,-1
 491 399 l 1,3,-1
 491 449 l 1,4,-1
 474 449 l 1,5,-1
 510 493 l 1,6,-1
 510 539 l 1,7,-1
 528 539 l 1,8,9
 528 647.529411765 528 647.529411765 573 696.5 c 128,-1,10
 618 745.470588235 618 745.470588235 618 770 c 1,11,12
 646 793 646 793 654 842 c 1,13,-1
 547 842 l 2,14,15
 523 842 523 842 482 818.5 c 128,-1,16
 441 795 441 795 418 795 c 1,17,-1
 290 702 l 1,18,-1
 311 726 l 1,19,-1
 290 726 l 1,20,-1
 271 748 l 1,21,22
 271 973.052631579 271 973.052631579 203.5 1127 c 0,23,24
 175 1192 175 1192 146.5 1243.5 c 0,25,26
 76.66495836 1369.69314542 76.66495836 1369.69314542 74 1411 c 1,27,-1
 100 1441 l 1,28,29
 150 1447 150 1447 264.5 1479.5 c 128,-1,30
 379 1512 379 1512 439 1512 c 2,31,-1
 599 1512 l 1,32,33
 594 1507 594 1507 594 1498.5 c 128,-1,34
 594 1490 594 1490 608 1490 c 128,-1,35
 622 1490 622 1490 622 1498.5 c 128,-1,36
 622 1507 622 1507 618 1512 c 1,37,-1
 817 1512 l 1,38,-1
 1016 1490 l 1,39,-1
 1016 1466 l 1,40,41
 1048 1470 1048 1470 1083 1470 c 128,-1,42
 1118 1470 1118 1470 1235 1433.5 c 128,-1,43
 1352 1397 1352 1397 1418 1397 c 1,44,45
 1411 1388 1411 1388 1384.5 1365.5 c 0,46,47
 1320.6259626 1311.26732673 1320.6259626 1311.26732673 1319 1282 c 1,48,49
 1285 1223 1285 1223 1206.5 1050 c 128,-1,50
 1128 877 1128 877 1072 799 c 1,51,52
 1073 801 1073 801 1073 805 c 0,53,54
 1073 817 1073 817 1051 817 c 1,55,-1
 1051 795 l 1,56,-1
 1033 770 l 1,57,58
 1029 768 1029 768 1021 768 c 2,59,-1
 997 770 l 1,60,-1
 997 748 l 1,61,62
 962.432432432 748 962.432432432 748 938 691.5 c 0,63,64
 930 673 930 673 927 673 c 1,65,66
 927 676 927 676 925 679 c 1,67,-1
 889 656 l 1,68,-1
 889 632 l 1,69,-1
 817 539 l 1,70,-1
 817 515 l 1,71,-1
 798 493 l 1,72,73
 796 497 796 497 791 497 c 128,-1,74
 786 497 786 497 781.5 491 c 128,-1,75
 777 485 777 485 777 479.5 c 128,-1,76
 777 474 777 474 781 470 c 1,77,-1
 763 449 l 1,78,79
 768 442 768 442 768 436 c 128,-1,80
 768 430 768 430 753 423.5 c 128,-1,81
 738 417 738 417 738 412 c 128,-1,82
 738 407 738 407 744 399 c 1,83,-1
 727 377 l 1,84,-1
 709 377 l 1,85,-1
 727 355 l 1,86,-1
 691 332 l 1,87,-1
 691 309 l 1,88,-1
 673 284 l 1,89,90
 701.25 284 701.25 284 720.125 284 c 128,-1,91
 739 284 739 284 765 283.5 c 128,-1,92
 791 283 791 283 806.5 281.5 c 128,-1,93
 822 280 822 280 846.5 278 c 128,-1,94
 871 276 871 276 887.5 272.5 c 128,-1,95
 904 269 904 269 923 264.5 c 0,96,97
 955.495327103 256.803738318 955.495327103 256.803738318 979 238 c 1,98,-1
 983 217 l 1,99,-1
 979 168 l 1,100,-1
 943 146 l 1,101,-1
 925 100 l 1,102,-1
 943 77 l 1,103,-1
 853 -58 l 1,104,-1
 835 -58 l 1,105,-1
 817 -36 l 1,106,107
 817 -41 817 -41 826 -50 c 128,-1,108
 835 -59 835 -59 835 -63 c 1,109,110
 829 -61 829 -61 793 -45.5 c 128,-1,111
 757 -30 757 -30 743 -25 c 0,112,113
 692.6 -7 692.6 -7 664.8 -7 c 128,-1,114
 637 -7 637 -7 599 -16 c 1,115,-1
 599 -36 l 1,116,-1
 586 -36 l 1,117,118
 586 31 586 31 510 31 c 1,119,-1
 474 6 l 1,120,-1
 474 -16 l 1,121,122
 455 -20 455 -20 455 -33 c 1,123,-1
 457 -46 l 1,124,-1
 439 -36 l 1,125,-1
 439 -24 l 1,126,127
 384 -15 384 -15 384 6 c 1,128,-1
 366 6 l 1,129,130
 344 37 344 37 344 82.5 c 128,-1,131
 344 128 344 128 355.5 156.5 c 128,-1,132
 367 185 367 185 389.5 228 c 128,-1,133
 412 271 412 271 418 284 c 1,134,-1
 439 284 l 1,135,136
 439 331 439 331 457 355 c 1,137,-1
 457 373 l 2,0,1
EndSplineSet
EndChar

StartChar: a
Encoding: 66 97 26
Width: 982
VWidth: 2308
Flags: HW
HStem: 69 22<463 476> 620 25<534 547.44> 1507 20G<512.5 607.5 816.5 1021> 1507 20G<512.5 607.5 816.5 1021>
VStem: 196 263<-27.9557 46 320.892 458.827 460 597.786> 314 57<-180.161 -163> 560 239<437.703 575.947 645.008 667> 581 211<-91 36> 804 2<770 775> 818 20<481.157 529 551 588.192>
LayerCount: 2
Fore
SplineSet
827 1145 m 2,0,-1
 827 1038 l 2,1,2
 827 845 827 845 785 760 c 1,3,4
 804 760 804 760 804 783 c 2,5,-1
 804 791 l 1,6,-1
 822 806 l 1,7,8
 806 790 806 790 806 751.5 c 128,-1,9
 806 713 806 713 820.5 639 c 128,-1,10
 835 565 835 565 836 551 c 1,11,-1
 817 551 l 1,12,-1
 817 590 l 1,13,14
 799 554 799 554 799 515 c 2,15,-1
 799 505 l 1,16,-1
 822 477 l 1,17,-1
 818 529 l 1,18,-1
 838 529 l 1,19,-1
 838 521 l 2,20,21
 838 436 838 436 815 266.5 c 128,-1,22
 792 97 792 97 792 -24.5 c 128,-1,23
 792 -146 792 -146 761 -150 c 1,24,-1
 746 -134 l 1,25,-1
 722 -138 l 1,26,-1
 706 -116 l 1,27,-1
 662 -135 l 1,28,-1
 665 -132 l 1,29,-1
 621 -91 l 1,30,-1
 584 -118 l 1,31,-1
 560 -116 l 1,32,-1
 581 -91 l 1,33,34
 581 -70 581 -70 586.5 -28 c 128,-1,35
 592 14 592 14 592 36 c 1,36,-1
 574 24 l 1,37,-1
 556 46 l 1,38,-1
 572 46 l 1,39,40
 547 79 547 79 529 116 c 1,41,-1
 499 110 l 1,42,-1
 476 128 l 1,43,-1
 458 91 l 1,44,-1
 476 91 l 1,45,-1
 478 69 l 1,46,-1
 463 72 l 1,47,-1
 464 55 l 1,48,49
 464 34 464 34 455.5 3 c 128,-1,50
 447 -28 447 -28 436.5 -28 c 128,-1,51
 426 -28 426 -28 422 -12 c 1,52,53
 416 -102 416 -102 394 -163 c 1,54,-1
 371 -140 l 1,55,-1
 371 -154 l 2,56,57
 371 -170 371 -170 359.5 -177.5 c 0,58,59
 346.466666667 -186 346.466666667 -186 314 -186 c 1,60,-1
 312 -163 l 1,61,62
 283 -173 283 -173 237 -180 c 1,63,64
 202.492091388 -138.590509666 202.492091388 -138.590509666 201.746045694 -52.795254833 c 128,-1,65
 201 33 201 33 200 46 c 1,66,-1
 216 44 l 1,67,-1
 220 69 l 1,68,69
 201.90399137 73.9352750809 201.90399137 73.9352750809 193.451995685 147.46763754 c 128,-1,70
 185 221 185 221 183 228 c 1,71,72
 220 228 220 228 220 302 c 2,73,-1
 220 320 l 1,74,-1
 200 298 l 1,75,-1
 196 375 l 1,76,77
 196 422 196 422 203.5 495 c 128,-1,78
 211 568 211 568 222 600 c 1,79,-1
 204 600 l 1,80,-1
 239 700 l 1,81,82
 239 740 239 740 222.5 820 c 128,-1,83
 206 900 206 900 206 943.875 c 128,-1,84
 206 987.75 206 987.75 242 1008 c 1,85,86
 207 1121 207 1121 206 1253 c 1,87,-1
 222 1277 l 1,88,89
 204 1285 204 1285 125.5 1369.5 c 128,-1,90
 47 1454 47 1454 23 1454 c 2,91,-1
 17 1454 l 1,92,93
 17 1480 17 1480 232 1503.5 c 128,-1,94
 447 1527 447 1527 601 1527 c 0,95,96
 616 1527 616 1527 643 1503 c 1,97,98
 718 1528 718 1528 852 1528 c 2,99,-1
 1021 1527 l 1,100,101
 897.952380952 1450.0952381 897.952380952 1450.0952381 859.5 1357 c 0,102,103
 827 1278.31578947 827 1278.31578947 827 1145 c 2,0,-1
468 483 m 1,104,-1
 470 460 l 1,105,-1
 452 460 l 1,106,-1
 459 383 l 1,107,108
 459 346 459 346 440 320 c 1,109,-1
 441 298 l 1,110,-1
 459 320 l 1,111,-1
 569 320 l 1,112,-1
 564 414 l 1,113,-1
 553 437 l 1,114,-1
 560 483 l 1,115,116
 560 576 560 576 536 576 c 1,117,-1
 553 600 l 1,118,-1
 536 600 l 1,119,-1
 551 620 l 1,120,-1
 534 620 l 1,121,-1
 532 645 l 1,122,123
 549 645 549 645 549 667 c 1,124,-1
 531 667 l 1,125,-1
 526 779 l 1,126,127
 521 742 521 742 494.5 641.5 c 128,-1,128
 468 541 468 541 468 483 c 1,104,-1
820 363 m 2,129,-1
 811 367 l 2,130,131
 809 367 809 367 809 355 c 2,132,-1
 809 339 l 2,133,134
 809 341 809 341 824 365 c 1,135,136
 822 363 822 363 820 363 c 2,129,-1
767 -155 m 1,137,-1
 757 -150 l 1,138,-1
 767 -155 l 1,137,-1
660 -138 m 1,139,140
 660 -135 660 -135 662 -135 c 1,141,-1
 660 -138 l 1,139,140
EndSplineSet
EndChar

StartChar: b
Encoding: 67 98 27
Width: 1250
VWidth: 2308
Flags: HW
HStem: 346 251<673.37 780.985>
VStem: 382 57<-101 -63.7988> 799 276<133 319> 799 239<133 276.821> 1001 40<498.991 505>
LayerCount: 2
Fore
SplineSet
255 1454 m 1,0,1
 482.80952381 1500 482.80952381 1500 925 1500 c 0,2,3
 1078.11494253 1500 1078.11494253 1500 1141.5 1365.5 c 0,4,5
 1201 1239.24390244 1201 1239.24390244 1201 992 c 0,6,7
 1201 947 1201 947 1146 789 c 128,-1,8
 1091 631 1091 631 1061 574 c 1,9,-1
 1082 549 l 1,10,-1
 1064 546 l 1,11,-1
 1041 578 l 1,12,13
 1041 483 1041 483 1001 483 c 1,14,-1
 1002 493 l 2,15,16
 1002 496 1002 496 995.5 500.5 c 128,-1,17
 989 505 989 505 983 505 c 2,18,-1
 982 505 l 1,19,-1
 997 483 l 1,20,-1
 941 459 l 1,21,22
 994 454 994 454 1034.5 396.5 c 128,-1,23
 1075 339 1075 339 1075 292.5 c 128,-1,24
 1075 246 1075 246 1056.5 184 c 128,-1,25
 1038 122 1038 122 1038 80.5 c 128,-1,26
 1038 39 1038 39 992.5 -33 c 128,-1,27
 947 -105 947 -105 939 -144 c 1,28,-1
 919 -122 l 1,29,-1
 919 -145 l 1,30,-1
 858 -145 l 1,31,-1
 839 -122 l 1,32,-1
 818 -145 l 1,33,34
 799 -121 799 -121 742 -97 c 128,-1,35
 685 -73 685 -73 655 -73 c 1,36,-1
 636 -97 l 1,37,-1
 616 -70 l 1,38,-1
 600 -122 l 1,39,-1
 563 -76 l 1,40,-1
 582 -51 l 1,41,-1
 565 -51 l 2,42,43
 439 -51 439 -51 439 -101 c 1,44,-1
 419 -122 l 1,45,46
 404 -121 404 -121 393 -82.5 c 128,-1,47
 382 -44 382 -44 382 -20 c 1,48,-1
 387 19 l 1,49,-1
 395 14 l 1,50,-1
 401 19 l 1,51,-1
 364 110 l 1,52,53
 384 133 384 133 384 202 c 1,54,-1
 381 199 l 1,55,-1
 348 228 l 1,56,-1
 344 271 l 1,57,58
 344 282 344 282 364 342 c 1,59,-1
 348 342 l 1,60,-1
 334 365 l 1,61,62
 323 388 323 388 317 494 c 128,-1,63
 311 600 311 600 311 665.5 c 128,-1,64
 311 731 311 731 283 853 c 128,-1,65
 255 975 255 975 255 1036 c 1,66,-1
 292 1082 l 1,67,-1
 274 1079 l 1,68,-1
 274 1107 l 1,69,-1
 268 1104 l 1,70,71
 248.097560976 1104 248.097560976 1104 185.548780488 1215.5 c 128,-1,72
 123 1327 123 1327 113 1338.5 c 128,-1,73
 103 1350 103 1350 74.5 1371 c 128,-1,74
 46 1392 46 1392 34 1409 c 1,75,-1
 54 1405 l 1,76,77
 85 1405 85 1405 136 1428.5 c 128,-1,78
 187 1452 187 1452 212 1454 c 1,79,-1
 212 1433 l 1,80,-1
 233 1454 l 1,81,-1
 255 1429 l 1,82,-1
 255 1454 l 1,0,1
816 781 m 2,83,84
 816 851 816 851 744 851 c 2,85,-1
 671 851 l 1,86,-1
 655 829 l 1,87,-1
 636 829 l 1,88,89
 636 813 636 813 633 809 c 128,-1,90
 630 805 630 805 618 805 c 1,91,-1
 618 781 l 1,92,-1
 636 781 l 1,93,-1
 636 760 l 1,94,-1
 655 736 l 1,95,-1
 655 714 l 1,96,-1
 636 714 l 1,97,-1
 636 642 l 1,98,-1
 646 642 l 2,99,100
 671 642 671 642 671 620 c 1,101,102
 698 620 698 620 731 608.5 c 128,-1,103
 764 597 764 597 781 597 c 1,104,-1
 781 574 l 1,105,-1
 799 597 l 1,106,107
 816 597 816 597 816 619.5 c 128,-1,108
 816 642 816 642 799 642 c 1,109,-1
 816 714 l 1,110,-1
 816 781 l 2,83,84
781 65 m 1,111,-1
 778 106 l 1,112,113
 778 133 778 133 799 133 c 1,114,-1
 799 319 l 1,115,-1
 781 319 l 1,116,117
 781 346 781 346 740 346 c 1,118,-1
 709 344 l 1,119,120
 678 344 678 344 671 365 c 1,121,122
 632 296 632 296 618 296 c 1,123,124
 618 272 618 272 636 272 c 1,125,-1
 636 110 l 1,126,-1
 762 87 l 1,127,128
 762 65 762 65 767 63 c 1,129,130
 767 67 767 67 772 67 c 1,131,-1
 781 65 l 1,111,-1
255 1060 m 1,132,-1
 255 1082 l 1,133,134
 268 1082 268 1082 274 1079 c 1,135,136
 264 1074 264 1074 255 1060 c 1,132,-1
EndSplineSet
EndChar

StartChar: c
Encoding: 68 99 28
Width: 1094
VWidth: 2308
Flags: HW
HStem: 1487 41G<410.5 452 519 603.5> 1508 20G<519 603.5>
VStem: 432 61<-91 -23.3223> 550 55<-91 -46>
LayerCount: 2
Fore
SplineSet
824 600 m 2,0,1
 801 600 801 600 711 627 c 1,2,-1
 694 602 l 1,3,-1
 676 627 l 1,4,5
 676 639 676 639 685 650.5 c 128,-1,6
 694 662 694 662 694 676 c 128,-1,7
 694 690 694 690 682 723.5 c 128,-1,8
 670 757 670 757 658 764 c 1,9,-1
 676 789 l 1,10,-1
 662 786 l 1,11,-1
 658 806 l 1,12,-1
 640 789 l 1,13,14
 619 825 619 825 619 839.5 c 128,-1,15
 619 854 619 854 621 858 c 1,16,17
 598 858 598 858 577.5 841.5 c 128,-1,18
 557 825 557 825 553 799 c 1,19,-1
 550 813 l 1,20,-1
 532 829 l 1,21,-1
 532 813 l 1,22,23
 510 813 510 813 510 783 c 0,24,25
 510 778 510 778 513 760 c 1,26,-1
 493 742 l 1,27,-1
 491 733 l 1,28,29
 491 712 491 712 504.5 672 c 128,-1,30
 518 632 518 632 518 610 c 1,31,32
 514 606 514 606 501.5 575 c 128,-1,33
 489 544 489 544 489 541 c 0,34,35
 489 456 489 456 512 323 c 128,-1,36
 535 190 535 190 569 141 c 1,37,38
 581 141 581 141 594 163 c 128,-1,39
 607 185 607 185 621 185 c 1,40,-1
 621 209 l 1,41,42
 642 237 642 237 647 269.5 c 128,-1,43
 652 302 652 302 661.5 334 c 128,-1,44
 671 366 671 366 704 398 c 1,45,46
 749 398 749 398 820.5 376.5 c 128,-1,47
 892 355 892 355 920 324 c 1,48,-1
 920 327 l 1,49,-1
 942 324 l 1,50,51
 906 272 906 272 900 233 c 1,52,-1
 920 233 l 1,53,-1
 900 209 l 1,54,-1
 903 183 l 1,55,56
 903 116.80952381 903 116.80952381 845 45 c 0,57,58
 824 19 824 19 821 3 c 1,59,-1
 802 24 l 1,60,61
 787 4 787 4 758.5 -43 c 128,-1,62
 730 -90 730 -90 711 -113 c 1,63,-1
 711 -91 l 1,64,-1
 676 -138 l 1,65,66
 667 -96 667 -96 642 -59 c 128,-1,67
 617 -22 617 -22 585 -22 c 1,68,-1
 605 -46 l 1,69,-1
 605 -91 l 1,70,-1
 578 -94 l 1,71,72
 550 -95.75 550 -95.75 550 -46 c 1,73,-1
 513 -46 l 1,74,75
 495 -20 495 -20 475 -10 c 1,76,77
 478 -21 478 -21 483.5 -36 c 0,78,79
 493 -61.9090909091 493 -61.9090909091 493 -91 c 1,80,-1
 452 -113 l 1,81,-1
 432 -91 l 1,82,-1
 434 -56 l 2,83,84
 434 -42 434 -42 420.5 -32 c 128,-1,85
 407 -22 407 -22 395 -22 c 128,-1,86
 383 -22 383 -22 363 -34 c 128,-1,87
 343 -46 343 -46 333 -46 c 0,88,89
 312 -46 312 -46 298 -11.5 c 128,-1,90
 284 23 284 23 274 57.5 c 128,-1,91
 264 92 264 92 253 92 c 1,92,-1
 274 118 l 1,93,94
 201 118 201 118 193 349 c 1,95,-1
 172 349 l 1,96,97
 172 393 172 393 152 476 c 128,-1,98
 132 559 132 559 132 602 c 1,99,-1
 158 637 l 1,100,-1
 153 649 l 1,101,-1
 132 628 l 1,102,-1
 132 649 l 1,103,104
 125 683 125 683 100.5 776 c 0,105,106
 53 956.306122449 53 956.306122449 53 1048.15306122 c 128,-1,107
 53 1140 53 1140 87.5 1224.5 c 128,-1,108
 122 1309 122 1309 172 1367 c 1,109,-1
 213 1344 l 1,110,-1
 213 1377 l 1,111,112
 261 1427 261 1427 328 1466.5 c 128,-1,113
 395 1506 395 1506 452 1507 c 1,114,-1
 452 1484 l 1,115,116
 466 1502 466 1502 489.5 1515 c 128,-1,117
 513 1528 513 1528 555.5 1528 c 128,-1,118
 598 1528 598 1528 639.5 1524.5 c 128,-1,119
 681 1521 681 1521 735 1508.5 c 0,120,121
 837.281411997 1484.82374722 837.281411997 1484.82374722 920 1390 c 1,122,-1
 900 1390 l 1,123,-1
 900 1367 l 1,124,-1
 920 1367 l 1,125,-1
 942 1390 l 1,126,-1
 981 1344 l 1,127,128
 981 1303.30769231 981 1303.30769231 1018 1269.15384615 c 128,-1,129
 1055 1235 1055 1235 1060 1229 c 1,130,131
 1060 1182 1060 1182 1016 1142 c 1,132,133
 1044 1132.66666667 1044 1132.66666667 1044 1036.83333333 c 128,-1,134
 1044 941 1044 941 1001 580 c 1,135,136
 963 602 963 602 902 602 c 1,137,-1
 824 600 l 2,0,1
569 -28 m 1,138,139
 567 -39 567 -39 553 -46 c 1,140,141
 569 -46 569 -46 569 -28 c 1,138,139
340 -20 m 1,142,143
 338 -18 338 -18 336 -18 c 128,-1,144
 334 -18 334 -18 334 -22 c 1,145,146
 334 -20 334 -20 340 -20 c 1,142,143
EndSplineSet
EndChar

StartChar: d
Encoding: 69 100 29
Width: 1175
VWidth: 2308
Flags: HW
HStem: 355 69<601.004 617> 1492 20G<544 657.5>
VStem: 617 37<740.607 748>
LayerCount: 2
Fore
SplineSet
76 1399 m 1,0,1
 76 1419 76 1419 44 1419 c 2,2,-1
 21 1419 l 1,3,4
 44 1422 44 1422 95 1444 c 128,-1,5
 146 1466 146 1466 200.5 1466 c 128,-1,6
 255 1466 255 1466 400 1489 c 128,-1,7
 545 1512 545 1512 601 1512 c 128,-1,8
 657 1512 657 1512 735 1490 c 128,-1,9
 813 1468 813 1468 856 1468 c 2,10,-1
 871 1468 l 1,11,-1
 909 1441 l 1,12,13
 918 1441 918 1441 1020 1334.5 c 128,-1,14
 1122 1228 1122 1228 1127 1211 c 1,15,-1
 1107 1211 l 1,16,17
 1143.42523364 1170.93224299 1143.42523364 1170.93224299 1147 1090.5 c 0,18,19
 1148 1068 1148 1068 1148 992 c 128,-1,20
 1148 916 1148 916 1120 789.5 c 128,-1,21
 1092 663 1092 663 1058.5 564 c 0,22,23
 968.805433417 298.932474874 968.805433417 298.932474874 967 122 c 1,24,-1
 947 122 l 1,25,26
 947 44 947 44 919 -31 c 128,-1,27
 891 -106 891 -106 842 -152 c 1,28,-1
 835 -134 l 1,29,-1
 817 -155 l 1,30,-1
 829 -155 l 1,31,-1
 781 -178 l 1,32,-1
 762 -155 l 1,33,-1
 727 -201 l 1,34,-1
 690 -155 l 1,35,-1
 671 -183 l 1,36,-1
 636 -178 l 1,37,38
 636 -106.666666667 636 -106.666666667 626 -90.8333333333 c 0,39,40
 606.526315789 -60 606.526315789 -60 568.263157895 -60 c 128,-1,41
 530 -60 530 -60 505.5 -68 c 128,-1,42
 481 -76 481 -76 469 -94 c 128,-1,43
 457 -112 457 -112 451 -132 c 0,44,45
 427.84 -209.2 427.84 -209.2 402 -250 c 1,46,-1
 383 -224 l 1,47,-1
 383 -183 l 2,48,49
 383 -124.25 383 -124.25 366 -86 c 1,50,-1
 383 -86 l 1,51,-1
 366 -63 l 1,52,53
 366 276 366 276 292.5 671 c 128,-1,54
 219 1066 219 1066 95 1350 c 1,55,-1
 104 1346 l 1,56,-1
 116 1397 l 1,57,-1
 95 1419 l 1,58,-1
 76 1399 l 1,0,1
637 141 m 2,59,-1
 636 100 l 1,60,-1
 654 100 l 1,61,62
 654 115 654 115 657 118.5 c 128,-1,63
 660 122 660 122 673 122 c 1,64,-1
 673 168 l 1,65,-1
 690 168 l 1,66,-1
 709 146 l 1,67,-1
 727 146 l 1,68,-1
 744 168 l 1,69,70
 765 168 765 168 765 207 c 1,71,-1
 762 261 l 1,72,73
 766 267 766 267 773.5 291 c 0,74,75
 793.5 355 793.5 355 798 355 c 1,76,-1
 795 411 l 1,77,78
 795 447 795 447 817 447 c 1,79,80
 817 470 817 470 803 470 c 1,81,82
 817 474 817 474 817 493 c 2,83,-1
 817 586 l 2,84,85
 817 632 817 632 798 656 c 1,86,87
 798 713 798 713 776 753 c 128,-1,88
 754 793 754 793 709 793 c 2,89,-1
 654 793 l 1,90,91
 654 770 654 770 644 748 c 128,-1,92
 634 726 634 726 617 726 c 1,93,-1
 617 748 l 1,94,-1
 601 748 l 1,95,96
 601 740 601 740 606 733 c 128,-1,97
 611 726 611 726 617 726 c 1,98,-1
 617 656 l 1,99,-1
 601 632 l 1,100,-1
 601 610 l 1,101,-1
 617 610 l 1,102,-1
 617 539 l 2,103,104
 617 520.714285714 617 520.714285714 613 517.857142857 c 128,-1,105
 609 515 609 515 601 515 c 1,106,-1
 601 447 l 2,107,108
 601 428.571428571 601 428.571428571 605 426.285714286 c 128,-1,109
 609 424 609 424 617 424 c 1,110,-1
 617 355 l 1,111,-1
 601 355 l 1,112,113
 601 330 601 330 617 330 c 1,114,-1
 601 309 l 1,115,-1
 601 261 l 2,116,117
 601 237 601 237 617 214 c 1,118,-1
 617 192 l 1,119,120
 637 166 637 166 637 141 c 2,59,-1
835 -155 m 1,121,-1
 842 -152 l 1,122,-1
 848 -155 l 1,123,-1
 835 -155 l 1,121,-1
EndSplineSet
EndChar

StartChar: e
Encoding: 70 101 30
Width: 1295
VWidth: 2308
Flags: HW
HStem: -43 255<700.217 865> -43 232<700.217 865> 351 277<646 827>
VStem: 303 623<353.266 558.297> 885 41<-134 -66>
LayerCount: 2
Fore
SplineSet
699 -66 m 1,0,-1
 655 -65 l 1,1,-1
 625 -89 l 1,2,-1
 585 -43 l 1,3,-1
 585 -18 l 1,4,5
 565 3 565 3 526 3 c 2,6,-1
 486 3 l 1,7,-1
 465 -18 l 1,8,-1
 465 -43 l 1,9,10
 447 -43 447 -43 435 -78 c 128,-1,11
 423 -113 423 -113 406 -113 c 1,12,-1
 406 -134 l 1,13,14
 396 -80 396 -80 365.5 63.5 c 0,15,16
 303 357.557377049 303 357.557377049 303 513 c 0,17,18
 303 544 303 544 305 559 c 1,19,-1
 286 582 l 1,20,-1
 188 1162 l 1,21,-1
 208 1162 l 1,22,-1
 208 1186 l 1,23,-1
 188 1186 l 1,24,25
 185 1191 185 1191 175.5 1210.5 c 128,-1,26
 166 1230 166 1230 163 1236 c 128,-1,27
 160 1242 160 1242 151 1259.5 c 128,-1,28
 142 1277 142 1277 137.5 1284 c 128,-1,29
 133 1291 133 1291 123.5 1305.5 c 128,-1,30
 114 1320 114 1320 107.5 1327 c 128,-1,31
 101 1334 101 1334 91 1345.5 c 128,-1,32
 81 1357 81 1357 71.5 1364 c 0,33,34
 42.4411764706 1385.41176471 42.4411764706 1385.41176471 26 1393 c 1,35,-1
 48 1393 l 1,36,37
 102 1439 102 1439 236 1466 c 0,38,39
 429.555555556 1505 429.555555556 1505 682.277777778 1505 c 128,-1,40
 935 1505 935 1505 1239 1439 c 1,41,42
 1199 1395 1199 1395 1138.5 1282.5 c 128,-1,43
 1078 1170 1078 1170 1078 1119 c 128,-1,44
 1078 1068 1078 1068 1058 1046 c 1,45,-1
 1060 1013 l 1,46,47
 1060 933 1060 933 1018 745 c 1,48,49
 935 791 935 791 891 791 c 128,-1,50
 847 791 847 791 827 813 c 1,51,52
 774.166666667 813 774.166666667 813 736.583333333 818.5 c 128,-1,53
 699 824 699 824 664.5 829 c 128,-1,54
 630 834 630 834 611 837 c 1,55,56
 629 827 629 827 629 736 c 1,57,-1
 625 628 l 1,58,-1
 926 628 l 1,59,-1
 926 466 l 2,60,61
 926 436 926 436 913 372.5 c 128,-1,62
 900 309 900 309 885 304 c 1,63,-1
 827 351 l 1,64,-1
 646 351 l 1,65,-1
 625 329 l 1,66,-1
 625 164 l 1,67,-1
 646 148 l 1,68,-1
 664 164 l 1,69,-1
 646 212 l 1,70,71
 693 211 693 211 798.5 200 c 128,-1,72
 904 189 904 189 962 189 c 1,73,-1
 962 164 l 1,74,-1
 944 73 l 1,75,-1
 926 48 l 1,76,-1
 944 26 l 1,77,-1
 944 3 l 1,78,-1
 926 3 l 1,79,-1
 926 -18 l 1,80,-1
 944 -43 l 1,81,82
 926 -68.2 926 -68.2 926 -96.1 c 2,83,-1
 926 -158 l 1,84,-1
 908 -134 l 1,85,-1
 885 -134 l 1,86,-1
 885 -66 l 1,87,-1
 865 -43 l 1,88,-1
 766 -43 l 1,89,90
 746 -66 746 -66 699 -66 c 1,0,-1
EndSplineSet
EndChar

StartChar: f
Encoding: 71 102 31
Width: 1146
VWidth: 2308
Flags: HW
HStem: 409 279<624 660 696.659 825.453> 735 46<930.085 948>
VStem: 286 20<-124 -86.7207> 304 302<178.989 294 317 364.013 387 409> 306 14<-133.251 -93.7007> 306 0<-134 -118> 606 18<-132.377 -57.3302> 624 36<409 431>
LayerCount: 2
Fore
SplineSet
605 360 m 1,0,-1
 606 317 l 1,1,-1
 586 317 l 1,2,-1
 606 294 l 1,3,-1
 606 185 l 1,4,-1
 624 -178 l 1,5,-1
 606 -201 l 1,6,-1
 606 -178 l 1,7,-1
 586 -155 l 1,8,9
 606 -115 606 -115 606 -86 c 0,10,11
 606 -30 606 -30 527 -30 c 1,12,13
 509 -58 509 -58 507.5 -120 c 128,-1,14
 506 -182 506 -182 487 -205 c 1,15,-1
 487 -180 l 1,16,-1
 466 -155 l 1,17,-1
 466 -77 l 1,18,19
 413.5 -7 413.5 -7 389.75 -7 c 128,-1,20
 366 -7 366 -7 353 -23 c 128,-1,21
 340 -39 340 -39 328 -64 c 128,-1,22
 316 -89 316 -89 306 -99 c 1,23,-1
 306 -155 l 1,24,-1
 286 -124 l 1,25,-1
 286 178 l 1,26,27
 304 203 304 203 304 250 c 2,28,-1
 304 290 l 2,29,30
 304 339 304 339 326 365 c 1,31,-1
 306 387 l 1,32,-1
 306 409 l 1,33,-1
 286 431 l 1,34,-1
 305 456 l 1,35,-1
 286 481 l 1,36,-1
 286 758 l 1,37,38
 275 772 275 772 272 802 c 128,-1,39
 269 832 269 832 265.5 853 c 128,-1,40
 262 874 262 874 248 874 c 1,41,-1
 248 1152 l 2,42,43
 248 1175 248 1175 228.5 1211 c 128,-1,44
 209 1247 209 1247 209 1267 c 1,45,46
 158 1333 158 1333 29 1452 c 1,47,-1
 248 1498 l 1,48,49
 268 1474 268 1474 305 1474 c 1,50,-1
 323 1498 l 1,51,-1
 557 1498 l 1,52,53
 577 1474 577 1474 606 1474 c 128,-1,54
 635 1474 635 1474 666 1498 c 1,55,-1
 666 1452 l 1,56,-1
 701 1498 l 1,57,58
 741 1491 741 1491 819.5 1483 c 0,59,60
 994.225806452 1465.19354839 994.225806452 1465.19354839 1088 1429 c 1,61,62
 1042 1429 1042 1429 1007.5 1347.5 c 128,-1,63
 973 1266 973 1266 957.5 1148 c 0,64,65
 928 923.419354839 928 923.419354839 928 781 c 1,66,-1
 948 781 l 1,67,-1
 948 735 l 1,68,69
 919 742 919 742 849.5 772.5 c 128,-1,70
 780 803 780 803 738 803 c 1,71,-1
 738 827 l 1,72,-1
 720 827 l 1,73,-1
 720 803 l 1,74,-1
 630 803 l 1,75,76
 613 823 613 823 575 827 c 1,77,78
 595 797 595 797 595 758.5 c 128,-1,79
 595 720 595 720 593 712 c 1,80,-1
 575 688 l 1,81,-1
 847 688 l 1,82,-1
 861 663 l 1,83,-1
 847 642 l 1,84,-1
 847 503 l 1,85,-1
 827 503 l 1,86,87
 830 498 830 498 845 477 c 0,88,89
 877 432.2 877 432.2 877 418.6 c 0,90,91
 877 388.75 877 388.75 858 365 c 1,92,93
 837 414 837 414 747 414 c 0,94,95
 731 414 731 414 696 409 c 1,96,-1
 696 431 l 1,97,-1
 678 431 l 1,98,-1
 678 409 l 1,99,-1
 660 431 l 1,100,-1
 660 409 l 1,101,-1
 624 409 l 1,102,-1
 624 431 l 1,103,104
 605 407 605 407 605 360 c 1,0,-1
306 -124 m 2,105,106
 306 -107 306 -107 320 -91 c 1,107,108
 308 -121 308 -121 306 -134 c 1,109,-1
 306 -124 l 2,105,106
322 -87 m 1,110,-1
 326 -77 l 1,111,-1
 326 -86 l 1,112,113
 324 -86 324 -86 322 -87 c 1,110,-1
EndSplineSet
EndChar

StartChar: g
Encoding: 72 103 32
Width: 1120
VWidth: 2308
Flags: HW
HStem: 1487 20G<446 466 494.5 521 538 569.304>
VStem: 502 36<-171.585 -115.224> 664 19<-161 -138>
LayerCount: 2
Fore
SplineSet
610 789 m 1,0,1
 593.125 834 593.125 834 557 834 c 1,2,-1
 538 858 l 1,3,-1
 521 834 l 1,4,-1
 484 834 l 1,5,-1
 484 791 l 2,6,7
 484 743 484 743 466 717 c 1,8,-1
 466 627 l 1,9,-1
 448 627 l 1,10,-1
 448 602 l 1,11,-1
 466 580 l 1,12,-1
 466 551 l 2,13,14
 466 547 466 547 448 487 c 1,15,-1
 466 464 l 1,16,-1
 484 464 l 1,17,-1
 483 421 l 2,18,19
 483 394 483 394 502 371 c 1,20,-1
 502 330 l 2,21,22
 502 282 502 282 521 255 c 1,23,-1
 502 255 l 1,24,-1
 502 233 l 1,25,-1
 521 245 l 1,26,-1
 538 209 l 1,27,-1
 521 187 l 1,28,-1
 538 187 l 1,29,-1
 574 141 l 1,30,-1
 574 118 l 1,31,-1
 592 141 l 1,32,-1
 610 141 l 1,33,-1
 628 118 l 1,34,-1
 628 141 l 1,35,36
 685 141 685 141 718 187 c 1,37,-1
 728 187 l 1,38,-1
 718 280 l 1,39,-1
 701 280 l 2,40,41
 683 280 683 280 653 258.5 c 128,-1,42
 623 237 623 237 610 233 c 1,43,44
 610 284 610 284 601 385 c 128,-1,45
 592 486 592 486 592 536 c 1,46,47
 597 534 597 534 805 487 c 128,-1,48
 1013 440 1013 440 1028 440 c 1,49,50
 996.464240903 375.17649519 996.464240903 375.17649519 992.5 191.5 c 0,51,52
 988.523034154 7.23391580619 988.523034154 7.23391580619 965.761517077 -41.8830420969 c 128,-1,53
 943 -91 943 -91 906 -91 c 1,54,55
 843 -144 843 -144 809 -161 c 1,56,-1
 809 -147 l 2,57,58
 809 -113 809 -113 790 -113 c 1,59,-1
 790 -91 l 1,60,-1
 773 -81 l 1,61,-1
 754 -113 l 1,62,-1
 732 -125 l 1,63,-1
 718 -113 l 1,64,-1
 701 -138 l 1,65,-1
 683 -138 l 1,66,-1
 683 -113 l 1,67,-1
 664 -138 l 1,68,-1
 683 -138 l 1,69,-1
 683 -161 l 1,70,-1
 664 -176 l 1,71,-1
 664 -138 l 1,72,-1
 646 -161 l 1,73,-1
 610 -113 l 1,74,-1
 574 -113 l 1,75,-1
 574 -91 l 1,76,-1
 557 -91 l 1,77,-1
 557 -113 l 1,78,79
 538 -138 538 -138 538 -185 c 1,80,81
 502 -183.105263158 502 -183.105263158 502 -113 c 1,82,-1
 484 -91 l 1,83,-1
 466 -91 l 1,84,85
 464 -119 464 -119 449 -140 c 128,-1,86
 434 -161 434 -161 411 -161 c 1,87,-1
 394 -138 l 1,88,-1
 411 -138 l 1,89,-1
 411 -113 l 1,90,-1
 376 -113 l 1,91,-1
 358 -91 l 1,92,93
 334 -91 334 -91 322 -22 c 1,94,-1
 308 -35 l 1,95,96
 280.951456311 -35 280.951456311 -35 247 99.5 c 0,97,98
 234 151 234 151 223 164 c 1,99,100
 223 377 223 377 123 627 c 1,101,-1
 142 627 l 1,102,103
 124 647 124 647 92.5 850.5 c 128,-1,104
 61 1054 61 1054 61 1118 c 128,-1,105
 61 1182 61 1182 84 1207 c 1,106,-1
 84 1298 l 1,107,-1
 163 1367 l 1,108,-1
 202 1367 l 1,109,110
 202 1419 202 1419 256.5 1453.5 c 128,-1,111
 311 1488 311 1488 365 1488 c 0,112,113
 378 1488 378 1488 394 1484 c 1,114,115
 412 1507 412 1507 458 1507 c 2,116,-1
 466 1507 l 1,117,-1
 466 1484 l 1,118,-1
 484 1484 l 1,119,120
 484 1508 484 1508 501 1508 c 2,121,-1
 521 1507 l 1,122,-1
 484 1438 l 1,123,-1
 521 1484 l 1,124,-1
 557 1462 l 1,125,-1
 538 1484 l 1,126,-1
 538 1507 l 1,127,-1
 574 1484 l 1,128,129
 612 1495 612 1495 615 1495 c 0,130,131
 808.130081301 1495 808.130081301 1495 945 1365.5 c 0,132,133
 1010 1304 1010 1304 1048 1208.5 c 128,-1,134
 1086 1113 1086 1113 1086 998 c 0,135,136
 1086 969 1086 969 1052.5 827 c 128,-1,137
 1019 685 1019 685 1019 630 c 128,-1,138
 1019 575 1019 575 1037 558 c 1,139,140
 970 558 970 558 853 580 c 128,-1,141
 736 602 736 602 683 602 c 1,142,143
 664 626 664 626 664 649 c 2,144,-1
 664 673 l 1,145,-1
 683 673 l 1,146,-1
 646 717 l 1,147,-1
 664 742 l 1,148,-1
 646 742 l 1,149,-1
 628 766 l 1,150,-1
 628 801 l 1,151,-1
 610 789 l 1,0,1
EndSplineSet
EndChar

StartChar: h
Encoding: 73 104 33
Width: 1496
VWidth: 2308
Flags: HW
HStem: -68 46<335.23 350.848> 1487 41G<403.5 435 664 687 835 861.5 996.143 1035.5 1115 1132.14 1139 1291> 1508 20G<664 687 835 861.5 996.143 1035.5 1115 1132.14>
VStem: 191 440<913.105 1344> 311 320<24 394.446 418 440> 351 280<24 288 418 439.953> 796 319<-24.0398 44.0788 69.0677 324> 847 72<-112.238 -68.1882>
LayerCount: 2
Fore
SplineSet
1155 510 m 1,0,-1
 1135 349 l 1,1,-1
 1097 317 l 1,2,-1
 1115 324 l 1,3,4
 1115 258 1115 258 1094.5 129 c 128,-1,5
 1074 0 1074 0 1074 -68 c 1,6,-1
 1076 -68 l 1,7,8
 1076 -101 1076 -101 1051 -119.5 c 128,-1,9
 1026 -138 1026 -138 995 -138 c 1,10,-1
 1025 -68 l 1,11,-1
 1016 -46 l 1,12,-1
 1012 -45 l 1,13,-1
 963 -70 l 1,14,-1
 954 -68 l 1,15,-1
 916 -28 l 1,16,-1
 919 -55 l 1,17,18
 919 -113 919 -113 875 -113 c 1,19,20
 873 -111 873 -111 865 -104.5 c 0,21,22
 847 -89.875 847 -89.875 847 -81.9375 c 128,-1,23
 847 -74 847 -74 854 -68 c 1,24,-1
 815 -46 l 1,25,-1
 794 -76 l 1,26,27
 795 -57 795 -57 805 -16.5 c 128,-1,28
 815 24 815 24 815 46 c 1,29,-1
 775 24 l 1,30,-1
 758 69 l 1,31,32
 796 69 796 69 796 238 c 1,33,-1
 794 327 l 2,34,35
 794 345 794 345 805.5 378.5 c 128,-1,36
 817 412 817 412 817 427 c 128,-1,37
 817 442 817 442 803 442 c 1,38,-1
 794 440 l 1,39,-1
 775 464 l 1,40,41
 751 464 751 464 703.5 452 c 128,-1,42
 656 440 656 440 631 440 c 1,43,-1
 631 418 l 1,44,-1
 604 387 l 1,45,-1
 620 396 l 1,46,47
 635 291 635 291 635 288 c 2,48,-1
 631 24 l 1,49,-1
 552 -22 l 1,50,-1
 554 -7 l 1,51,-1
 547 -2 l 1,52,-1
 471 -2 l 1,53,-1
 431 -22 l 1,54,55
 428.405405405 -58.3243243243 428.405405405 -58.3243243243 351 -68 c 1,56,-1
 307 -28 l 1,57,58
 307 -22 307 -22 323 -22 c 128,-1,59
 339 -22 339 -22 351 -30 c 1,60,61
 350 45 350 45 330.5 201.5 c 128,-1,62
 311 358 311 358 311 455.5 c 128,-1,63
 311 553 311 553 281 696.5 c 128,-1,64
 251 840 251 840 221 981 c 128,-1,65
 191 1122 191 1122 191 1219 c 128,-1,66
 191 1316 191 1316 134 1374.5 c 128,-1,67
 77 1433 77 1433 -4 1438 c 1,68,69
 164.441176471 1438 164.441176471 1438 285.220588235 1459.5 c 128,-1,70
 406 1481 406 1481 431 1507 c 1,71,-1
 436 1482 l 1,72,-1
 440 1480 l 1,73,74
 453 1480 453 1480 453 1500 c 1,75,-1
 451 1507 l 1,76,77
 496 1507 496 1507 580.5 1517.5 c 128,-1,78
 665 1528 665 1528 704 1528 c 1,79,80
 671.692307692 1484.38461538 671.692307692 1484.38461538 613 1367 c 1,81,-1
 631 1344 l 1,82,-1
 613 696 l 1,83,-1
 704 717 l 1,84,-1
 704 696 l 1,85,-1
 835 717 l 1,86,-1
 835 706 l 1,87,88
 861 740 861 740 861 888 c 1,89,-1
 854 1135 l 2,90,91
 854 1162 854 1162 874 1218.5 c 128,-1,92
 894 1275 894 1275 914 1275 c 1,93,94
 914 1295.45454545 914 1295.45454545 893.5 1312.22727273 c 0,95,96
 854 1344.54545455 854 1344.54545455 854 1414 c 1,97,-1
 835 1528 l 1,98,99
 936 1528 936 1528 995 1507 c 1,100,-1
 1019 1528 l 1,101,-1
 1115 1507 l 1,102,-1
 1115 1528 l 1,103,-1
 1139 1500 l 1,104,-1
 1276 1507 l 1,105,106
 1291 1485 1291 1485 1343.5 1483 c 128,-1,107
 1396 1481 1396 1481 1415 1460 c 1,108,-1
 1471 1460 l 1,109,110
 1397.87684729 1447.81280788 1397.87684729 1447.81280788 1299 1174 c 1,111,112
 1255 1062 1255 1062 1253 1020 c 2,113,-1
 1251 974 l 1,114,-1
 1237 974 l 1,115,-1
 1255 952 l 1,116,117
 1203 776 1203 776 1174 714 c 1,118,-1
 1196 673 l 1,119,120
 1151 673 1151 673 1151 587 c 1,121,-1
 1155 510 l 1,0,-1
EndSplineSet
EndChar

StartChar: i
Encoding: 74 105 34
Width: 844
VWidth: 2308
Flags: HW
HStem: 1500 20G<319 392.522 514 562>
VStem: 239 360<550.155 1032.74> 464 94<-30 -8.32521 -8 34.1932> 464 75<-55 -41>
LayerCount: 2
Fore
SplineSet
581 349 m 1,0,-1
 558 -30 l 1,1,2
 579 -30 579 -30 579 -66 c 2,3,-1
 579 -77 l 1,4,5
 546 -70 546 -70 539 -41 c 1,6,-1
 539 -55 l 1,7,-1
 514 -56 l 1,8,9
 496 -58 496 -58 480 -49 c 128,-1,10
 464 -40 464 -40 464 -27.5 c 128,-1,11
 464 -15 464 -15 466 -8 c 1,12,-1
 468 -8 l 1,13,14
 468 38 468 38 432 38 c 0,15,16
 407.5 38 407.5 38 385.75 6.5 c 128,-1,17
 364 -25 364 -25 360 -30 c 1,18,19
 317.98754482 -28.2494810342 317.98754482 -28.2494810342 311.5 258.5 c 0,20,21
 309 369 309 369 306 383.5 c 128,-1,22
 303 398 303 398 295.5 436.5 c 128,-1,23
 288 475 288 475 285.5 488 c 128,-1,24
 283 501 283 501 276.5 536.5 c 128,-1,25
 270 572 270 572 267.5 588 c 2,26,-1
 260 636 l 2,27,28
 255 668 255 668 253 687.5 c 128,-1,29
 251 707 251 707 247.5 736.5 c 128,-1,30
 244 766 244 766 242.5 789 c 0,31,32
 239 842.666666667 239 842.666666667 239 892 c 1,33,-1
 251 1128 l 1,34,-1
 269 1128 l 1,35,-1
 210 1265 l 2,36,37
 202 1284 202 1284 170.5 1307.5 c 128,-1,38
 139 1331 139 1331 114 1357.5 c 128,-1,39
 89 1384 89 1384 90 1418 c 1,40,-1
 90 1426 l 1,41,-1
 49 1452 l 1,42,-1
 61 1474 l 1,43,-1
 31 1452 l 1,44,-1
 12 1474 l 1,45,46
 78 1474 78 1474 199.5 1497 c 128,-1,47
 321 1520 321 1520 376 1520 c 1,48,-1
 395 1497 l 1,49,-1
 539 1520 l 1,50,51
 566 1493 566 1493 674.5 1486 c 128,-1,52
 783 1479 783 1479 800 1474 c 1,53,54
 799 1473 799 1473 791.5 1466 c 128,-1,55
 784 1459 784 1459 781.5 1456 c 128,-1,56
 779 1453 779 1453 771.5 1446 c 128,-1,57
 764 1439 764 1439 760 1434.5 c 128,-1,58
 756 1430 756 1430 749.5 1422.5 c 128,-1,59
 743 1415 743 1415 739.5 1409.5 c 128,-1,60
 736 1404 736 1404 731.5 1397 c 128,-1,61
 727 1390 727 1390 724.5 1384 c 0,62,63
 719 1370.8 719 1370.8 719 1358 c 1,64,-1
 739 1358 l 1,65,66
 694 1306 694 1306 658 1197 c 1,67,-1
 679 1174 l 1,68,69
 599 877 599 877 599 685 c 1,70,-1
 619 548 l 1,71,72
 603 527 603 527 599 483 c 1,73,-1
 579 503 l 1,74,-1
 599 408 l 1,75,-1
 558 387 l 1,76,77
 581 387 581 387 581 349 c 1,0,-1
EndSplineSet
EndChar

StartChar: j
Encoding: 75 106 35
Width: 940
VWidth: 2308
Flags: HW
HStem: 1488 24<248.622 254>
VStem: -38 292<289.204 424> 380 383<676 1093.05> 380 362<676 980.249> 400 321<260 330 377 493 515 608>
LayerCount: 2
Fore
SplineSet
763 986 m 1,0,-1
 742 632 l 1,1,2
 721 608 721 608 721 551 c 2,3,-1
 721 515 l 1,4,-1
 701 515 l 1,5,-1
 721 493 l 1,6,7
 721 313 721 313 680 214 c 1,8,-1
 701 192 l 1,9,-1
 680 192 l 1,10,11
 680 164.2 680 164.2 664 142.6 c 128,-1,12
 648 121 648 121 643.5 110 c 128,-1,13
 639 99 639 99 637.5 46 c 128,-1,14
 636 -7 636 -7 622 -38 c 1,15,-1
 642 -63 l 1,16,-1
 622 -87 l 1,17,18
 599 -87 599 -87 599 -38 c 1,19,-1
 581 -38 l 1,20,21
 561 -16 561 -16 535 -16 c 1,22,-1
 500 -18 l 1,23,-1
 500 -63 l 1,24,-1
 441 -63 l 1,25,-1
 421 -38 l 1,26,-1
 400 -38 l 1,27,-1
 400 -18 l 1,28,-1
 307 -18 l 1,29,-1
 307 -38 l 1,30,-1
 272 6 l 1,31,-1
 272 -18 l 1,32,-1
 254 6 l 1,33,34
 154.217391304 6 154.217391304 6 118.5 32.5 c 0,35,36
 79.1538461538 61.6923076923 79.1538461538 61.6923076923 61.5769230769 96.8461538462 c 2,37,-1
 29 162 l 2,38,39
 14 192 14 192 2 214 c 1,40,-1
 21 238 l 1,41,42
 21 261 21 261 -8.5 316.5 c 128,-1,43
 -38 372 -38 372 -38 424 c 1,44,-1
 -59 424 l 1,45,-1
 2 470 l 1,46,47
 30 470 30 470 90.5 479.5 c 128,-1,48
 151 489 151 489 178 498 c 1,49,-1
 143 470 l 1,50,-1
 162 470 l 2,51,52
 176 470 176 470 191 492.5 c 128,-1,53
 206 515 206 515 218 515 c 1,54,-1
 236 539 l 1,55,-1
 254 539 l 1,56,-1
 254 515 l 1,57,-1
 236 493 l 1,58,-1
 254 493 l 1,59,-1
 254 399 l 1,60,61
 276.013937282 371.905923345 276.013937282 371.905923345 284.006968641 317.952961672 c 0,62,63
 298.253164557 221.791139241 298.253164557 221.791139241 345 214 c 1,64,-1
 400 260 l 1,65,-1
 400 330 l 1,66,-1
 421 355 l 1,67,-1
 400 377 l 1,68,-1
 400 608 l 1,69,-1
 421 632 l 1,70,-1
 380 676 l 1,71,-1
 380 1142 l 1,72,-1
 362 1142 l 1,73,74
 362 1174 362 1174 343.5 1234 c 128,-1,75
 325 1294 325 1294 325 1327 c 1,76,-1
 291 1397 l 1,77,78
 291 1426 291 1426 254 1456 c 1,79,-1
 254 1488 l 1,80,-1
 236 1488 l 1,81,82
 263 1512 263 1512 276 1512 c 0,83,84
 307 1512 307 1512 307 1488 c 1,85,-1
 325 1488 l 1,86,-1
 345 1512 l 1,87,-1
 481 1512 l 2,88,89
 513 1512 513 1512 686 1474 c 128,-1,90
 859 1436 859 1436 902 1419 c 1,91,92
 828.428571429 1374.85714286 828.428571429 1374.85714286 821 1373 c 1,93,-1
 806 1373 l 1,94,-1
 824 1308 l 1,95,-1
 821 1257 l 1,96,97
 811 1256 811 1256 801.5 1215.5 c 0,98,99
 773 1094 773 1094 742 1094 c 1,100,101
 763 1071 763 1071 763 986 c 1,0,-1
EndSplineSet
EndChar

StartChar: k
Encoding: 76 107 36
Width: 1303
VWidth: 2308
Flags: HW
HStem: 608 48<803 823> 1324 95<143.161 194.752> 1490 20G<472 492 573 654 774.174 800 851 870 870 1052.5>
VStem: 311 343<726.243 839 862 1059.85> 393 219<100 320.365> 472 20<1464 1510> 573 81<1466.45 1510> 793 36<-41 -18> 940 84<-41 -18> 1041 19<-41 -18>
LayerCount: 2
Fore
SplineSet
332 562 m 1,0,-1
 311 839 l 1,1,-1
 298 862 l 1,2,-1
 311 862 l 1,3,-1
 311 931 l 2,4,5
 311 968 311 968 243 1114 c 128,-1,6
 175 1260 175 1260 175 1280 c 128,-1,7
 175 1300 175 1300 176 1301 c 2,8,-1
 196 1324 l 1,9,-1
 158 1324 l 1,10,11
 112.352941176 1363.94117647 112.352941176 1363.94117647 16 1419 c 1,12,13
 44.5 1427.55 44.5 1427.55 94.75 1439.275 c 128,-1,14
 145 1451 145 1451 183.5 1460 c 128,-1,15
 222 1469 222 1469 243 1472.5 c 128,-1,16
 264 1476 264 1476 296 1481 c 0,17,18
 353.6 1490 353.6 1490 409 1490 c 1,19,-1
 453 1488 l 1,20,-1
 472 1464 l 1,21,-1
 472 1510 l 1,22,-1
 492 1510 l 1,23,-1
 492 1464 l 1,24,-1
 532 1464 l 1,25,-1
 532 1488 l 1,26,-1
 553 1464 l 1,27,-1
 573 1464 l 1,28,-1
 573 1510 l 1,29,-1
 654 1510 l 1,30,31
 612 1416 612 1416 612 1320 c 128,-1,32
 612 1224 612 1224 633 1025.5 c 128,-1,33
 654 827 654 827 654 724 c 1,34,35
 676.805527638 818.730653266 676.805527638 818.730653266 690.902763819 990.865326633 c 128,-1,36
 705 1163 705 1163 707 1193 c 128,-1,37
 709 1223 709 1223 736.5 1302 c 128,-1,38
 764 1381 764 1381 764 1419 c 2,39,-1
 764 1464 l 1,40,-1
 782 1441 l 1,41,-1
 782 1464 l 1,42,-1
 764 1464 l 1,43,-1
 782 1510 l 1,44,-1
 800 1510 l 1,45,-1
 800 1488 l 1,46,-1
 851 1488 l 1,47,-1
 851 1510 l 1,48,-1
 870 1495 l 1,49,-1
 886 1510 l 1,50,-1
 1014 1510 l 2,51,52
 1125.46153846 1510 1125.46153846 1510 1290 1441 c 1,53,54
 1239 1441 1239 1441 1189.5 1411.5 c 128,-1,55
 1140 1382 1140 1382 1107.5 1345 c 0,56,57
 988.133640553 1209.10599078 988.133640553 1209.10599078 959 1186 c 1,58,-1
 941 1186 l 1,59,60
 941 1005 941 1005 907 909 c 1,61,-1
 886 909 l 1,62,-1
 803 656 l 1,63,-1
 823 656 l 1,64,-1
 823 608 l 1,65,-1
 803 608 l 1,66,67
 849 538 849 538 898.5 375 c 128,-1,68
 948 212 948 212 992 144 c 1,69,-1
 974 122 l 1,70,-1
 974 100 l 1,71,-1
 992 100 l 1,72,-1
 1060 -41 l 1,73,-1
 1041 -41 l 1,74,-1
 1041 -18 l 1,75,-1
 1024 3 l 1,76,-1
 1024 -41 l 1,77,-1
 940 -41 l 1,78,-1
 940 -18 l 1,79,-1
 903 -18 l 1,80,81
 889 -69 889 -69 867 -87 c 1,82,-1
 848 -87 l 1,83,-1
 848 -41 l 1,84,-1
 829 -18 l 1,85,-1
 829 -41 l 1,86,-1
 813 -41 l 1,87,-1
 813 -65 l 1,88,-1
 793 -41 l 1,89,-1
 793 -18 l 1,90,-1
 777 3 l 1,91,92
 777 48 777 48 793 75 c 1,93,94
 792 105 792 105 759 156 c 128,-1,95
 726 207 726 207 725 238 c 1,96,-1
 707 238 l 1,97,-1
 707 260 l 1,98,99
 687 282 687 282 687 320 c 1,100,-1
 689 353 l 1,101,-1
 671 360 l 1,102,103
 659 317 659 317 612 240 c 1,104,-1
 612 209 l 2,105,106
 612 30 612 30 643 -58 c 1,107,-1
 632 -41 l 1,108,-1
 612 -65 l 1,109,-1
 573 -18 l 1,110,-1
 553 -18 l 1,111,-1
 532 0 l 1,112,-1
 513 -18 l 1,113,-1
 492 -18 l 1,114,-1
 492 -41 l 1,115,-1
 472 -65 l 1,116,117
 459 -34 459 -34 411 -18 c 1,118,-1
 411 100 l 1,119,-1
 393 100 l 1,120,-1
 396 211 l 1,121,122
 400 295 400 295 372 330 c 1,123,-1
 372 469 l 1,124,125
 350 470 350 470 350 513 c 1,126,-1
 352 538 l 1,127,-1
 337 538 l 1,128,-1
 352 562 l 1,129,-1
 332 562 l 1,0,-1
EndSplineSet
EndChar

StartChar: l
Encoding: 77 108 37
Width: 899
VWidth: 2308
Flags: HW
HStem: 230 48<922 945> 1320 22<144 162> 1367 69<125 164.875> 1411 116<683 765.043> 1411 25<40.6315 95.9721> 1459 68<718.657 783> 1485 20G<261.5 527 527 544> 1495 20G<527 544>
VStem: 203 403<924.508 1166.9> 283 331<591.591 762> 528 56<-24 -2> 654 35<-48 -24>
LayerCount: 2
Fore
SplineSet
606 990 m 1,0,-1
 614 847 l 1,1,-1
 614 834 l 1,2,-1
 592 462 l 1,3,-1
 610 440 l 1,4,-1
 591 440 l 1,5,-1
 581 431 l 1,6,-1
 608 394 l 1,7,-1
 598 394 l 1,8,-1
 604 370 l 1,9,-1
 591 344 l 1,10,-1
 602 309 l 1,11,-1
 619 322 l 1,12,13
 617.364723468 290.929745889 617.364723468 290.929745889 765.5 274 c 0,14,15
 818 268 818 268 821 266 c 1,16,-1
 827 278 l 1,17,-1
 967 278 l 1,18,-1
 945 230 l 1,19,-1
 922 230 l 1,20,-1
 943 207 l 1,21,-1
 922 207 l 1,22,23
 919 155 919 155 893.5 56 c 128,-1,24
 868 -43 868 -43 864 -94 c 1,25,-1
 823 -94 l 1,26,-1
 801 -118 l 1,27,-1
 820 -140 l 1,28,-1
 779 -140 l 1,29,-1
 762 -94 l 1,30,-1
 742 -94 l 1,31,-1
 744 -70 l 1,32,-1
 723 -70 l 1,33,-1
 725 -48 l 1,34,-1
 709 -24 l 1,35,-1
 690 -24 l 1,36,-1
 689 -48 l 1,37,-1
 671 -48 l 2,38,39
 654 -48 654 -48 654 -19.5 c 128,-1,40
 654 9 654 9 657 23 c 1,41,-1
 641 46 l 1,42,-1
 604 46 l 1,43,-1
 584 23 l 1,44,-1
 584 -24 l 1,45,-1
 528 -24 l 1,46,-1
 529 -2 l 1,47,-1
 475 -2 l 1,48,49
 472 -26 472 -26 431 -26 c 1,50,-1
 418 -24 l 1,51,-1
 414 -94 l 1,52,-1
 429 -118 l 1,53,-1
 413 -118 l 1,54,55
 413 -142 413 -142 390 -142 c 1,56,-1
 376 -140 l 1,57,-1
 360 -118 l 1,58,-1
 301 394 l 1,59,-1
 319 416 l 1,60,-1
 302 416 l 1,61,-1
 286 440 l 1,62,-1
 305 485 l 1,63,-1
 287 485 l 1,64,-1
 289 513 l 1,65,-1
 283 700 l 2,66,67
 283 702 283 702 286 762 c 1,68,-1
 268 762 l 1,69,70
 268 786 268 786 229 786 c 1,71,72
 253 823 253 823 253 849 c 2,73,-1
 253 855 l 1,74,-1
 234 855 l 1,75,-1
 215 878 l 1,76,-1
 222 993 l 1,77,78
 203 1021 203 1021 203 1060 c 1,79,-1
 211 1133 l 1,80,-1
 192 1156 l 1,81,-1
 194 1180 l 1,82,-1
 176 1204 l 1,83,84
 181 1273 181 1273 201 1296 c 1,85,-1
 181 1296 l 1,86,-1
 162 1320 l 1,87,-1
 143 1320 l 1,88,-1
 144 1342 l 1,89,-1
 164 1342 l 1,90,-1
 166 1367 l 1,91,-1
 125 1367 l 1,92,-1
 125 1387 l 1,93,-1
 109 1411 l 1,94,95
 69 1411 69 1411 48 1421.5 c 128,-1,96
 27 1432 27 1432 16 1436 c 1,97,98
 68 1436 68 1436 165 1470.5 c 128,-1,99
 262 1505 262 1505 310 1505 c 2,100,-1
 508 1505 l 1,101,-1
 527 1486 l 1,102,-1
 527 1505 l 1,103,-1
 546 1515 l 1,104,-1
 544 1505 l 1,105,-1
 563 1505 l 1,106,-1
 565 1527 l 1,107,-1
 583 1527 l 1,108,-1
 598 1505 l 1,109,-1
 652 1505 l 1,110,-1
 637 1527 l 1,111,-1
 848 1527 l 1,112,-1
 841 1503 l 1,113,-1
 783 1459 l 1,114,115
 762 1459 762 1459 731.5 1435 c 128,-1,116
 701 1411 701 1411 683 1411 c 1,117,-1
 691 1395 l 1,118,119
 690 1377 690 1377 666.5 1346 c 128,-1,120
 643 1315 643 1315 641 1296 c 1,121,-1
 622 1270 l 1,122,-1
 620 1250 l 1,123,-1
 602 1250 l 1,124,-1
 601 1226 l 1,125,-1
 619 1226 l 1,126,127
 634 1209 634 1209 634 1171.5 c 128,-1,128
 634 1134 634 1134 620 1071.5 c 128,-1,129
 606 1009 606 1009 606 990 c 1,0,-1
EndSplineSet
EndChar

StartChar: m
Encoding: 78 109 38
Width: 1577
VWidth: 2308
Flags: HW
HStem: -94 24<323.074 334> 231 47<574 593> 740 26<210.046 232.905> 1411 25<1482.8 1518> 1507 20G<691.5 700 703.364 720.556> 1507 20G<691.5 700 703.364 720.556>
VStem: 253 321<139.516 205.95 278 600 625 630> 296 278<138 205.95 278 594.282> 334 59<-116 -94 -94 -70 -70 23> 495 79<23 67> 862 37<-24 23> 1044 18<-70 -32.8673>
LayerCount: 2
Fore
SplineSet
233 762 m 1,0,-1
 213 974 l 1,1,-1
 172 974 l 1,2,-1
 172 993 l 2,3,4
 172 1009 172 1009 184 1047.5 c 128,-1,5
 196 1086 196 1086 196 1105.5 c 128,-1,6
 196 1125 196 1125 194 1133 c 1,7,-1
 172 1133 l 1,8,-1
 194 1158 l 1,9,-1
 194 1180 l 2,10,11
 194 1214 194 1214 169 1248 c 128,-1,12
 144 1282 144 1282 114 1304.5 c 0,13,14
 33.6140350877 1364.78947368 33.6140350877 1364.78947368 32 1389 c 1,15,-1
 54 1367 l 1,16,17
 150.834701055 1412.95545135 150.834701055 1412.95545135 562 1495.5 c 0,18,19
 694 1522 694 1522 700 1527 c 1,20,-1
 700 1505 l 1,21,-1
 737 1527 l 1,22,-1
 700 1482 l 1,23,-1
 700 1411 l 2,24,25
 700 1393 700 1393 710 1356 c 128,-1,26
 720 1319 720 1319 720 1300.5 c 128,-1,27
 720 1282 720 1282 718 1273 c 1,28,29
 739 1243 739 1243 745 1194.5 c 128,-1,30
 751 1146 751 1146 754.5 1103.5 c 128,-1,31
 758 1061 758 1061 773 1043 c 1,32,-1
 828 1250 l 1,33,-1
 810 1250 l 1,34,-1
 810 1273 l 1,35,-1
 828 1255 l 1,36,37
 846 1278 846 1278 846 1307 c 128,-1,38
 846 1336 846 1336 844 1342 c 1,39,-1
 881 1411 l 1,40,41
 883 1418 883 1418 883 1433 c 128,-1,42
 883 1448 883 1448 872 1478 c 128,-1,43
 861 1508 861 1508 861 1518 c 1,44,-1
 862 1527 l 1,45,-1
 881 1551 l 1,46,-1
 899 1527 l 1,47,-1
 899 1551 l 1,48,-1
 935 1551 l 1,49,-1
 954 1505 l 1,50,-1
 1025 1505 l 1,51,52
 1035 1528 1035 1528 1086.5 1528 c 128,-1,53
 1138 1528 1138 1528 1216 1512.5 c 128,-1,54
 1294 1497 1294 1497 1393.5 1471 c 128,-1,55
 1493 1445 1493 1445 1538 1436 c 1,56,-1
 1518 1411 l 1,57,-1
 1479 1411 l 1,58,-1
 1418 1367 l 1,59,-1
 1418 1342 l 1,60,-1
 1392 1342 l 1,61,-1
 1337 1273 l 1,62,-1
 1337 1204 l 1,63,-1
 1346 1204 l 1,64,-1
 1317 1158 l 1,65,66
 1317 1139 1317 1139 1311 1118 c 1,67,-1
 1302 1102 l 1,68,-1
 1297 1101 l 1,69,70
 1293 1113 1293 1113 1288 1113 c 128,-1,71
 1283 1113 1283 1113 1279 1112 c 1,72,-1
 1297 1064 l 1,73,74
 1279 995 1279 995 1251 794.5 c 0,75,76
 1181.11582321 294.07937691 1181.11582321 294.07937691 1115 207 c 1,77,-1
 1125 185 l 1,78,-1
 1098 162 l 1,79,-1
 1115 138 l 1,80,-1
 1098 138 l 1,81,-1
 1098 46 l 1,82,83
 1074.3559322 11.8474576271 1074.3559322 11.8474576271 1062 -87 c 1,84,-1
 1044 -70 l 1,85,-1
 1044 0 l 1,86,-1
 1025 23 l 1,87,-1
 1025 -24 l 1,88,-1
 1009 -48 l 1,89,90
 1003 -35 1003 -35 996 -15 c 128,-1,91
 989 5 989 5 985.5 13 c 128,-1,92
 982 21 982 21 973.5 30.5 c 0,93,94
 959.631578947 46 959.631578947 46 917 46 c 1,95,96
 899 20 899 20 899 -24 c 1,97,-1
 862 -24 l 1,98,-1
 862 23 l 1,99,-1
 844 23 l 1,100,-1
 917 600 l 1,101,-1
 899 600 l 1,102,103
 881 575 881 575 881 508 c 1,104,-1
 844 440 l 1,105,-1
 844 428 l 2,106,107
 844 369 844 369 828 346 c 1,108,109
 828 303 828 303 810 278 c 1,110,-1
 810 231 l 1,111,-1
 790 207 l 1,112,113
 790 176 790 176 772 119 c 128,-1,114
 754 62 754 62 754 45 c 128,-1,115
 754 28 754 28 756 14 c 1,116,117
 709 6 709 6 683 -24 c 1,118,-1
 671 -24 l 1,119,-1
 683 0 l 1,120,121
 672 31 672 31 664 135.5 c 128,-1,122
 656 240 656 240 629 278 c 1,123,-1
 628 288 l 1,124,125
 628 309 628 309 642 353 c 1,126,127
 635 364 635 364 609 483.5 c 128,-1,128
 583 603 583 603 574 630 c 1,129,-1
 574 278 l 1,130,-1
 593 278 l 1,131,-1
 593 231 l 1,132,-1
 574 231 l 1,133,-1
 593 207 l 1,134,135
 570 180 570 180 570 113 c 128,-1,136
 570 46 570 46 574 0 c 1,137,-1
 533 0 l 1,138,-1
 495 23 l 1,139,-1
 495 67 l 1,140,-1
 474 46 l 1,141,-1
 454 67 l 1,142,-1
 454 63 l 2,143,144
 454 57 454 57 450 50.5 c 128,-1,145
 446 44 446 44 443.5 44 c 128,-1,146
 441 44 441 44 437 48 c 1,147,-1
 393 23 l 1,148,-1
 393 -116 l 1,149,-1
 373 -140 l 1,150,-1
 334 -140 l 1,151,-1
 334 -94 l 1,152,-1
 331 -94 l 2,153,154
 323 -94 323 -94 323 -82 c 128,-1,155
 323 -70 323 -70 331 -70 c 2,156,-1
 334 -70 l 1,157,-1
 334 23 l 1,158,-1
 312 46 l 1,159,-1
 312 116 l 1,160,-1
 294 138 l 1,161,-1
 296 235 l 2,162,163
 297 297 297 297 275 418.5 c 128,-1,164
 253 540 253 540 253 600 c 1,165,-1
 233 600 l 1,166,-1
 253 625 l 1,167,-1
 253 635 l 2,168,169
 253 658 253 658 245 664.5 c 128,-1,170
 237 671 237 671 213 671 c 1,171,172
 227 722 227 722 253 740 c 1,173,-1
 213 740 l 1,174,175
 209 744 209 744 209 748 c 0,176,177
 209 754 209 754 214.5 760 c 128,-1,178
 220 766 220 766 224.5 766 c 128,-1,179
 229 766 229 766 233 762 c 1,0,-1
EndSplineSet
EndChar

StartChar: n
Encoding: 79 110 39
Width: 1360
VWidth: 2308
Flags: HW
HStem: 1486 9<1340.71 1358.51> 1498 20G<445.5 533.5 580 633 779 808.5>
VStem: 401 34<-103 -79> 507 20<-116.99 -56> 580 53<1495 1518> 725 17<-147 -120.183> 832 394<1195.32 1377.81> 833 35<-147 -125> 907 52<-119.851 -56.3267>
LayerCount: 2
Fore
SplineSet
617 337 m 1,0,1
 580 385.1 580 385.1 580 429 c 1,2,-1
 598 452 l 1,3,-1
 580 452 l 1,4,5
 580 474 580 474 563 502.5 c 128,-1,6
 546 531 546 531 543 538 c 1,7,-1
 543 361 l 1,8,9
 525 335 525 335 525 299.5 c 128,-1,10
 525 264 525 264 543 199 c 1,11,-1
 527 174 l 1,12,-1
 527 -125 l 1,13,14
 507 -102 507 -102 507 -56 c 1,15,-1
 472 -56 l 2,16,17
 469 -56 469 -56 452.5 -67 c 128,-1,18
 436 -78 436 -78 435 -79 c 1,19,-1
 435 -103 l 1,20,-1
 418 -125 l 1,21,-1
 401 -125 l 1,22,-1
 401 -79 l 1,23,24
 380 -103 380 -103 346 -103 c 1,25,-1
 328 -125 l 1,26,-1
 310 -103 l 1,27,-1
 254 429 l 1,28,-1
 273 452 l 1,29,30
 241 468 241 468 216.5 639 c 0,31,32
 173 942.612244898 173 942.612244898 173 1197 c 1,33,-1
 155 1209 l 1,34,-1
 173 1231 l 1,35,36
 167 1241 167 1241 141 1293.5 c 0,37,38
 75.6060606061 1425.54545455 75.6060606061 1425.54545455 55 1441 c 1,39,-1
 55 1464 l 1,40,-1
 14 1488 l 1,41,42
 103 1488 103 1488 275 1503 c 128,-1,43
 447 1518 447 1518 527 1518 c 1,44,45
 544 1495 544 1495 580 1495 c 1,46,-1
 580 1518 l 1,47,-1
 633 1518 l 1,48,-1
 633 1402 l 1,49,-1
 671 1356 l 1,50,-1
 653 1334 l 1,51,52
 653 1301 653 1301 675 1279 c 0,53,54
 688 1266 688 1266 686.5 1263 c 128,-1,55
 685 1260 685 1260 685 1254.5 c 128,-1,56
 685 1249 685 1249 690 1243.5 c 128,-1,57
 695 1238 695 1238 700 1238 c 1,58,-1
 706 1241 l 1,59,60
 706 1201 706 1201 742 1067 c 128,-1,61
 778 933 778 933 798 933 c 1,62,-1
 798 934 l 2,63,64
 798 996 798 996 815 1111 c 128,-1,65
 832 1226 832 1226 832 1288 c 1,66,67
 821.117647059 1305.41176471 821.117647059 1305.41176471 800.058823529 1410.70588235 c 128,-1,68
 779 1516 779 1516 779 1518 c 1,69,-1
 798 1518 l 1,70,71
 825 1486 825 1486 1025 1486 c 128,-1,72
 1225 1486 1225 1486 1360 1495 c 1,73,74
 1333.53204173 1490.03725782 1333.53204173 1490.03725782 1285.26602086 1406.01862891 c 128,-1,75
 1237 1322 1237 1322 1226 1310 c 1,76,-1
 1226 1286 l 1,77,78
 1164.09073482 1209.08242812 1164.09073482 1209.08242812 1130 918 c 0,79,80
 1091.10048309 585.857971014 1091.10048309 585.857971014 1067 500 c 1,81,-1
 1049 500 l 1,82,-1
 1067 477 l 1,83,-1
 1067 452 l 1,84,85
 1045 423 1045 423 1045 387 c 128,-1,86
 1045 351 1045 351 1049 315 c 1,87,-1
 1019 315 l 1,88,-1
 1032 292 l 1,89,90
 1010 264 1010 264 1010 223.5 c 128,-1,91
 1010 183 1010 183 1012 174 c 1,92,93
 1005 164 1005 164 999.5 139 c 0,94,95
 986.96 82 986.96 82 959 82 c 1,96,-1
 959 33 l 2,97,98
 959 -32 959 -32 941 -56 c 1,99,100
 931 -175 931 -175 906 -175 c 1,101,-1
 886 -173 l 1,102,-1
 886 -147 l 2,103,104
 886 -144 886 -144 896.5 -120 c 128,-1,105
 907 -96 907 -96 907 -78 c 128,-1,106
 907 -60 907 -60 906 -56 c 1,107,-1
 886 -33 l 1,108,-1
 868 -56 l 1,109,-1
 868 -147 l 1,110,-1
 833 -219 l 1,111,-1
 833 -125 l 1,112,-1
 761 -103 l 1,113,-1
 742 -173 l 1,114,-1
 725 -147 l 1,115,-1
 725 -103 l 1,116,-1
 706 -103 l 1,117,-1
 706 -147 l 1,118,119
 692 -128 692 -128 682.5 -47.5 c 128,-1,120
 673 33 673 33 673 79 c 128,-1,121
 673 125 673 125 633 174 c 1,122,-1
 653 199 l 1,123,124
 617 258 617 258 617 337 c 1,0,1
EndSplineSet
EndChar

StartChar: o
Encoding: 80 111 40
Width: 1118
VWidth: 2308
Flags: HW
HStem: 6 186<503.743 592.728> 1072 25<53 56> 1492 20G<356.5 546 547.727 583>
VStem: 215 260<205.063 354.984> 619 299<200.093 340.319> 774 44<-154.928 -41.5469>
LayerCount: 2
Fore
SplineSet
449 -73 m 1,0,1
 391 43 391 43 350 43 c 0,2,3
 348 43 348 43 274 16 c 1,4,5
 272 46 272 46 242.5 87.5 c 128,-1,6
 213 129 213 129 213 170 c 1,7,-1
 215 170 l 1,8,9
 215 206 215 206 195 274 c 128,-1,10
 175 342 175 342 161 397 c 128,-1,11
 147 452 147 452 129.5 570 c 128,-1,12
 112 688 112 688 95.5 830.5 c 128,-1,13
 79 973 79 973 67 1050 c 1,14,-1
 60 1046 l 1,15,-1
 53 1048 l 1,16,-1
 73 1072 l 1,17,-1
 53 1072 l 1,18,-1
 53 1097 l 1,19,-1
 56 1097 l 1,20,-1
 53 1120 l 1,21,-1
 62 1118 l 1,22,23
 75 1146 75 1146 75 1172 c 1,24,-1
 73 1188 l 1,25,-1
 54 1188 l 1,26,27
 68.2543352601 1192.75144509 68.2543352601 1192.75144509 102.12716763 1252.87572254 c 128,-1,28
 136 1313 136 1313 174 1354.5 c 128,-1,29
 212 1396 212 1396 259 1431 c 0,30,31
 367.771428571 1512 367.771428571 1512 546 1512 c 1,32,-1
 546 1490 l 1,33,-1
 565 1512 l 1,34,-1
 678 1490 l 1,35,-1
 678 1512 l 1,36,37
 781 1512 781 1512 938 1375 c 1,38,-1
 958 1397 l 1,39,-1
 960 1379 l 1,40,-1
 942 1375 l 1,41,-1
 979 1350 l 1,42,-1
 960 1329 l 1,43,44
 966 1316 966 1316 987 1299 c 128,-1,45
 1008 1282 1008 1282 1021 1282 c 2,46,-1
 1025 1282 l 1,47,-1
 1078 1212 l 1,48,-1
 1064 1212 l 1,49,50
 1058 1186 1058 1186 1058 1129 c 128,-1,51
 1058 1072 1058 1072 1060 1048 c 1,52,-1
 1078 1026 l 1,53,-1
 1060 842 l 1,54,-1
 1078 842 l 1,55,56
 1046 584 1046 584 960 332 c 0,57,58
 956 321 956 321 943 289.5 c 0,59,60
 918 228.923076923 918 228.923076923 918 192 c 1,61,-1
 938 170 l 1,62,63
 916 170 916 170 900 138.5 c 128,-1,64
 884 107 884 107 879 77 c 1,65,66
 841 33 841 33 829.5 -2 c 128,-1,67
 818 -37 818 -37 818 -91 c 2,68,-1
 818 -155 l 1,69,-1
 798 -155 l 2,70,71
 774 -155 774 -155 774 -128 c 1,72,-1
 779 -76 l 1,73,74
 779 -43.3333333333 779 -43.3333333333 739 -38 c 1,75,-1
 739 -60 l 1,76,-1
 726 -58 l 1,77,-1
 698 -86 l 1,78,-1
 678 -66 l 1,79,-1
 678 -109 l 1,80,-1
 650 -134 l 1,81,82
 620 -128 620 -128 607.5 -104.5 c 128,-1,83
 595 -81 595 -81 596 -57 c 0,84,85
 598.625 6 598.625 6 546 6 c 0,86,87
 533 6 533 6 517.5 -8 c 128,-1,88
 502 -22 502 -22 498.5 -22 c 128,-1,89
 495 -22 495 -22 491 -16 c 1,90,-1
 449 -73 l 1,0,1
546 192 m 2,91,92
 619 192 619 192 619 322 c 0,93,94
 619 344 619 344 617 355 c 1,95,-1
 638 355 l 1,96,-1
 638 402 l 1,97,-1
 658 402 l 1,98,-1
 638 424 l 1,99,-1
 638 449 l 2,100,101
 638 471 638 471 658 493 c 1,102,-1
 658 564 l 2,103,104
 658 610 658 610 638 632 c 1,105,-1
 638 683 l 2,106,107
 638 798.09375 638 798.09375 601 845.5 c 0,108,109
 585 866 585 866 563 866 c 2,110,-1
 528 866 l 1,111,-1
 528 842 l 1,112,-1
 509 842 l 1,113,114
 452 762 452 762 452 679 c 2,115,-1
 452 493 l 2,116,117
 452 480 452 480 464 470 c 1,118,-1
 452 470 l 1,119,-1
 452 402 l 2,120,121
 452 376 452 376 475 355 c 1,122,123
 475 320 475 320 491.5 269 c 128,-1,124
 508 218 508 218 528 192 c 1,125,-1
 546 192 l 2,91,92
73 1003 m 1,126,-1
 53 1003 l 1,127,-1
 53 1026 l 1,128,-1
 73 1003 l 1,126,-1
73 981 m 1,129,-1
 53 981 l 1,130,-1
 56 992 l 1,131,-1
 73 981 l 1,129,-1
EndSplineSet
EndChar

StartChar: p
Encoding: 81 112 41
Width: 1141
VWidth: 2308
Flags: HW
HStem: 322 234<606 615 651.603 734.802 735 741> 322 212<615 627 645.093 734.802 735 740.141 741.006 758.748> 1485 20G<419.5 500 542 648.522 655.565 696.37 739 846>
VStem: 327 300<-44.7514 0 46 177.75 185 207 231.666 321.907 322 346> 606 23<-72.5117 -70> 625 2<301.002 306> 627 2<312.094 321.907>
LayerCount: 2
Fore
SplineSet
606 162 m 1,0,-1
 627 46 l 1,1,-1
 606 24 l 1,2,-1
 627 24 l 1,3,-1
 606 -18 l 1,4,-1
 627 0 l 1,5,-1
 629 -43 l 1,6,-1
 606 -89 l 1,7,-1
 606 -70 l 1,8,-1
 570 -66 l 1,9,-1
 548 -81 l 1,10,-1
 548 -63 l 1,11,-1
 525 -91 l 1,12,-1
 507 -70 l 1,13,-1
 509 -46 l 1,14,-1
 487 -46 l 1,15,16
 481 -58 481 -58 439 -68.5 c 128,-1,17
 397 -79 397 -79 386 -91 c 1,18,-1
 386 -94 l 1,19,20
 327 -94 327 -94 327 162 c 2,21,-1
 327 207 l 1,22,-1
 309 231 l 1,23,24
 328 264 328 264 328 292 c 1,25,26
 306 334 306 334 306 383 c 1,27,-1
 309 426 l 2,28,29
 309 430 309 430 289 485 c 1,30,-1
 289 462 l 1,31,32
 285 549 285 549 257.5 743 c 128,-1,33
 230 937 230 937 230 1048 c 0,34,35
 230 1250 230 1250 189 1298 c 0,36,37
 178 1311 178 1311 140 1342 c 0,38,39
 50 1415.42105263 50 1415.42105263 50 1460 c 1,40,41
 60 1461 60 1461 95 1466.5 c 128,-1,42
 130 1472 130 1472 141.5 1473.5 c 128,-1,43
 153 1475 153 1475 185 1479.5 c 128,-1,44
 217 1484 217 1484 231 1485.5 c 128,-1,45
 245 1487 245 1487 274 1490.5 c 128,-1,46
 303 1494 303 1494 319.5 1495.5 c 128,-1,47
 336 1497 336 1497 361.5 1499.5 c 128,-1,48
 387 1502 387 1502 405.5 1502.5 c 128,-1,49
 424 1503 424 1503 446.5 1504 c 128,-1,50
 469 1505 469 1505 484.5 1505 c 128,-1,51
 500 1505 500 1505 516.5 1493.5 c 128,-1,52
 533 1482 533 1482 544 1482 c 1,53,-1
 542 1490 l 1,54,-1
 632 1505 l 1,55,-1
 651 1482 l 1,56,-1
 686 1505 l 1,57,-1
 700 1478 l 1,58,-1
 741 1505 l 1,59,60
 903 1505 903 1505 998 1412 c 128,-1,61
 1093 1319 1093 1319 1093 1140 c 0,62,63
 1093 1089 1093 1089 1070 1089 c 1,64,65
 1070 935.74 1070 935.74 1018 643.5 c 0,66,67
 993 503 993 503 946.5 402 c 128,-1,68
 900 301 900 301 844 301 c 1,69,-1
 735 322 l 1,70,-1
 735 304 l 1,71,72
 730 327 730 327 697 327 c 2,73,-1
 681 327 l 1,74,-1
 681 329 l 2,75,76
 681 351 681 351 674.5 351 c 128,-1,77
 668 351 668 351 661 335.5 c 128,-1,78
 654 320 654 320 650.5 320 c 128,-1,79
 647 320 647 320 645 322 c 1,80,-1
 645 346 l 1,81,-1
 627 346 l 1,82,-1
 627 322 l 1,83,-1
 606 322 l 1,84,85
 627 280 627 280 627 185 c 1,86,-1
 606 178 l 1,87,-1
 606 162 l 1,0,-1
760 534 m 1,88,-1
 758 592 l 1,89,90
 758 644 758 644 778 671 c 1,91,-1
 778 740 l 2,92,93
 778 811 778 811 741 855 c 1,94,-1
 741 880 l 1,95,-1
 725 855 l 1,96,-1
 686 855 l 1,97,98
 686 880 686 880 657 880 c 2,99,-1
 597 880 l 1,100,-1
 597 855 l 2,101,102
 597 840 597 840 600 837 c 128,-1,103
 603 834 603 834 615 834 c 1,104,-1
 615 786 l 1,105,106
 596 767 596 767 592 752 c 1,107,-1
 578 764 l 1,108,-1
 578 740 l 1,109,-1
 597 740 l 1,110,-1
 578 717 l 1,111,-1
 597 717 l 1,112,-1
 597 578 l 1,113,-1
 578 556 l 1,114,-1
 615 556 l 1,115,-1
 615 534 l 1,116,-1
 651 534 l 1,117,118
 653 536 653 536 657 540.5 c 128,-1,119
 661 545 661 545 662 546 c 128,-1,120
 663 547 663 547 666.5 550 c 128,-1,121
 670 553 670 553 672 553.5 c 0,122,123
 682 556 682 556 686 556 c 2,124,-1
 741 556 l 1,125,126
 741 534 741 534 760 534 c 1,88,-1
668 322 m 1,127,-1
 681 327 l 1,128,-1
 681 322 l 1,129,-1
 668 322 l 1,127,-1
627 322 m 1,130,131
 629 320 629 320 629 317 c 128,-1,132
 629 314 629 314 627 312 c 1,133,-1
 627 322 l 1,130,131
625 306 m 1,134,-1
 627 312 l 1,135,-1
 627 301 l 1,136,137
 625 301 625 301 625 306 c 1,134,-1
EndSplineSet
EndChar

StartChar: q
Encoding: 82 113 42
Width: 1152
VWidth: 2308
Flags: HW
HStem: 928 590<515 699.036> 1439 23<890.9 907.498>
VStem: 49 479<751.692 901.249> 153 359<465.226 689.058> 671 2<398.141 417.812> 673 12<787.015 808.407> 748 341<397.397 461.338 766 879.221> 888 20<1438.49 1461>
LayerCount: 2
Fore
SplineSet
49 974 m 1,0,-1
 69 1069 l 1,1,-1
 40 1089 l 1,2,-1
 82 1135 l 1,3,-1
 69 1135 l 1,4,5
 128 1203.83333333 128 1203.83333333 128 1275 c 1,6,7
 126 1273 126 1273 120.5 1273 c 128,-1,8
 115 1273 115 1273 108.5 1278.5 c 128,-1,9
 102 1284 102 1284 102 1291 c 0,10,11
 102 1316 102 1316 199.5 1372 c 128,-1,12
 297 1428 297 1428 406 1473 c 128,-1,13
 515 1518 515 1518 551 1518 c 128,-1,14
 587 1518 587 1518 626 1515.5 c 128,-1,15
 665 1513 665 1513 722.5 1506 c 0,16,17
 851.822498174 1490.25639153 851.822498174 1490.25639153 888 1438 c 1,18,19
 889.866972477 1415.59633028 889.866972477 1415.59633028 909.433486239 1405.29816514 c 128,-1,20
 929 1395 929 1395 949 1386 c 128,-1,21
 969 1377 969 1377 973 1375 c 1,22,23
 969 1379 969 1379 969 1389 c 1,24,-1
 985 1367 l 1,25,26
 1049 1303 1049 1303 1069 1237 c 128,-1,27
 1089 1171 1089 1171 1089 1104.5 c 128,-1,28
 1089 1038 1089 1038 1098 982 c 128,-1,29
 1107 926 1107 926 1109 904 c 1,30,-1
 1089 904 l 1,31,32
 1089 784 1089 784 1079 597.5 c 128,-1,33
 1069 411 1069 411 1050 373 c 1,34,-1
 1068 373 l 1,35,36
 1060 354 1060 354 1047.5 313 c 0,37,38
 1020.83418108 225.536113937 1020.83418108 225.536113937 989 187 c 1,39,-1
 1006 166 l 1,40,41
 1002 166 1002 166 994.5 160.5 c 128,-1,42
 987 155 987 155 987 152 c 0,43,44
 987 141 987 141 999 141 c 0,45,46
 1004 141 1004 141 1008 142 c 1,47,-1
 1008 118 l 1,48,-1
 1080 46 l 1,49,50
 1117 46 1117 46 1129 72 c 1,51,52
 1129 7.70588235294 1129 7.70588235294 1114.5 -7.64705882353 c 128,-1,53
 1100 -23 1100 -23 1091 -29.5 c 0,54,55
 1069.25663717 -45.203539823 1069.25663717 -45.203539823 1066 -68 c 1,56,57
 1048.13043478 -68 1048.13043478 -68 1035.56521739 -85 c 128,-1,58
 1023 -102 1023 -102 1015.5 -114 c 128,-1,59
 1008 -126 1008 -126 1000 -144.5 c 128,-1,60
 992 -163 992 -163 986.5 -176.5 c 128,-1,61
 981 -190 981 -190 974 -210.5 c 128,-1,62
 967 -231 967 -231 963.5 -241.5 c 128,-1,63
 960 -252 960 -252 954.5 -270 c 128,-1,64
 949 -288 949 -288 948 -290 c 1,65,-1
 948 -254 l 1,66,-1
 928 -254 l 1,67,68
 928 -123 928 -123 829 -113 c 1,69,-1
 829 -106 l 2,70,71
 829 -80 829 -80 807 -45 c 1,72,73
 733 -68 733 -68 589 -68 c 0,74,75
 517 -68 517 -68 432 2 c 1,76,-1
 450 2 l 1,77,78
 430 25 430 25 381.5 69.5 c 128,-1,79
 333 114 333 114 311 142 c 1,80,-1
 311 118 l 1,81,82
 309.240786241 149.665847666 309.240786241 149.665847666 272.12039312 188.332923833 c 128,-1,83
 235 227 235 227 230 233 c 1,84,-1
 250 233 l 1,85,86
 231 253 231 253 206.5 304 c 128,-1,87
 182 355 182 355 169 373 c 1,88,-1
 167 380 l 1,89,90
 167 394 167 394 180 411 c 1,91,-1
 132 464 l 1,92,93
 153 514 153 514 153 558 c 1,94,-1
 151 580 l 1,95,96
 130 603 130 603 89.5 765 c 128,-1,97
 49 927 49 927 49 974 c 1,0,-1
528 673 m 1,98,-1
 512 510 l 1,99,100
 525 509 525 509 535.5 464 c 128,-1,101
 546 419 546 419 546 396 c 1,102,103
 559 379 559 379 572.5 335.5 c 128,-1,104
 586 292 586 292 600.5 262.5 c 128,-1,105
 615 233 615 233 638 233 c 1,106,107
 638 244 638 244 649.5 272.5 c 128,-1,108
 661 301 661 301 673 301 c 1,109,-1
 673 398 l 1,110,111
 679 394 679 394 684 394 c 2,112,-1
 748 396 l 1,113,114
 748 408 748 408 758 420 c 128,-1,115
 768 432 768 432 768 464 c 1,116,-1
 748 464 l 1,117,118
 770 472 770 472 770 557 c 128,-1,119
 770 642 770 642 754 690 c 128,-1,120
 738 738 738 738 685 783 c 1,121,-1
 748 766 l 1,122,-1
 748 783 l 2,123,124
 748 827 748 827 705.5 877.5 c 128,-1,125
 663 928 663 928 626.5 928 c 128,-1,126
 590 928 590 928 570.5 899.5 c 128,-1,127
 551 871 551 871 542.5 825 c 0,128,129
 528 746.529411765 528 746.529411765 528 673 c 1,98,-1
908 1462 m 1,130,131
 908 1436 908 1436 902 1436 c 1,132,133
 900 1439 900 1439 895 1439 c 128,-1,134
 890 1439 890 1439 888 1438 c 1,135,136
 888 1462 888 1462 908 1462 c 1,130,131
685 783 m 1,137,138
 673 807 673 807 673 812 c 128,-1,139
 673 817 673 817 675 817 c 128,-1,140
 677 817 677 817 681 801.5 c 128,-1,141
 685 786 685 786 685 783 c 1,137,138
1068 -91 m 1,142,143
 1066 -83 1066 -83 1066 -68 c 1,144,-1
 1068 -91 l 1,142,143
673 398 m 1,145,146
 671 401 671 401 671 407.5 c 128,-1,147
 671 414 671 414 673 418 c 1,148,-1
 673 398 l 1,145,146
EndSplineSet
EndChar

StartChar: r
Encoding: 83 114 43
Width: 1262
VWidth: 2308
Flags: HW
HStem: -87 3<503 517> 1492 20G<500 523 561.5 607 805 837>
VStem: 263 962<923.402 1210.53> 303 339<616.493 724 748 864.898> 342 302<-34.9731 192> 401 2<-133.674 -103.143> 604 19<-63 -39.3271> 731 266<-56.8438 29 29.0015 52.9055 100.31 283.372> 824 300<609.063 769.441>
LayerCount: 2
Fore
SplineSet
739 34 m 2,0,-1
 737 46 l 2,1,2
 737 51 737 51 739 53 c 1,3,-1
 755 53 l 1,4,-1
 755 77 l 1,5,-1
 735 77 l 1,6,-1
 755 100 l 1,7,8
 731 107 731 107 731 182.5 c 128,-1,9
 731 258 731 258 735 284 c 1,10,-1
 714 309 l 1,11,-1
 714 346 l 1,12,13
 709 327 709 327 679.5 327 c 128,-1,14
 650 327 650 327 623 330 c 1,15,-1
 642 260 l 1,16,-1
 623 238 l 1,17,-1
 619 211 l 1,18,-1
 642 192 l 1,19,-1
 644 192 l 1,20,21
 644 146 644 146 633.5 52.5 c 128,-1,22
 623 -41 623 -41 623 -87 c 1,23,-1
 604 -63 l 1,24,-1
 604 -38 l 1,25,-1
 569 -38 l 2,26,27
 505 -38 505 -38 503 -84 c 1,28,29
 491 -82 491 -82 464 -72.5 c 128,-1,30
 437 -63 437 -63 422 -63 c 1,31,-1
 403 -103 l 1,32,-1
 403 -87 l 1,33,-1
 383 -134 l 1,34,35
 340 -134 340 -134 340 57 c 1,36,-1
 342 144 l 1,37,38
 342 213 342 213 322 238 c 1,39,-1
 329 238 l 1,40,41
 342 256 342 256 342 293.5 c 128,-1,42
 342 331 342 331 322 377 c 1,43,-1
 342 447 l 1,44,45
 318.741935484 476.903225806 318.741935484 476.903225806 301 539 c 1,46,-1
 322 562 l 1,47,-1
 322 586 l 1,48,-1
 281 608 l 1,49,50
 281 643 281 643 292 652 c 128,-1,51
 303 661 303 661 303 681 c 128,-1,52
 303 701 303 701 283 853 c 128,-1,53
 263 1005 263 1005 263 1071.5 c 128,-1,54
 263 1138 263 1138 234 1188 c 128,-1,55
 205 1238 205 1238 168.5 1276 c 0,56,57
 63.1532797858 1385.67603748 63.1532797858 1385.67603748 42 1441 c 1,58,59
 237 1441 237 1441 322 1488 c 1,60,-1
 362 1466 l 1,61,62
 406.083333333 1512 406.083333333 1512 523 1512 c 1,63,-1
 523 1488 l 1,64,65
 555 1512 555 1512 563 1512 c 0,66,67
 608 1512 608 1512 688 1500 c 128,-1,68
 768 1488 768 1488 805 1488 c 1,69,-1
 813 1505 l 1,70,71
 824 1497 824 1497 873.5 1482 c 128,-1,72
 923 1467 923 1467 979.5 1447.5 c 128,-1,73
 1036 1428 1036 1428 1093 1400.5 c 128,-1,74
 1150 1373 1150 1373 1187.5 1329.5 c 128,-1,75
 1225 1286 1225 1286 1225 1234 c 0,76,77
 1225 1113 1225 1113 1174.5 892.5 c 128,-1,78
 1124 672 1124 672 1124 562 c 1,79,80
 1056.51085568 479.172413793 1056.51085568 479.172413793 1069 431 c 1,81,82
 1069 421 1069 421 1074 414 c 1,83,-1
 1055 424 l 1,84,-1
 1036 399 l 1,85,86
 974 399 974 399 974 330 c 1,87,88
 997 330 997 330 997 201 c 1,89,-1
 995 106 l 1,90,91
 995 -41 995 -41 1015 -109 c 1,92,-1
 995 -178 l 1,93,-1
 895 -109 l 1,94,95
 881 -109 881 -109 876 -98 c 128,-1,96
 871 -87 871 -87 855 -87 c 128,-1,97
 839 -87 839 -87 830 -90.5 c 128,-1,98
 821 -94 821 -94 818 -98.5 c 128,-1,99
 815 -103 815 -103 808 -114 c 128,-1,100
 801 -125 801 -125 794 -134 c 1,101,102
 794 -99.8 794 -99.8 816 -91 c 1,103,104
 816 -88 816 -88 781 -60 c 1,105,-1
 774 -63 l 1,106,-1
 774 -97 l 1,107,108
 773 -85 773 -85 763 -73 c 0,109,110
 735 -39.4 735 -39.4 735 29 c 1,111,112
 739 29 739 29 739 34 c 2,0,-1
642 724 m 1,113,-1
 639 671 l 1,114,115
 639 608 639 608 747 608 c 2,116,-1
 774 608 l 2,117,118
 795 608 795 608 809.5 654.5 c 128,-1,119
 824 701 824 701 824 724.5 c 128,-1,120
 824 748 824 748 844 770 c 1,121,122
 812 841 812 841 784.5 864.5 c 128,-1,123
 757 888 757 888 698 888 c 0,124,125
 686 888 686 888 679.5 873 c 128,-1,126
 673 858 673 858 671 858 c 1,127,-1
 661 865 l 1,128,-1
 626 865 l 1,129,130
 632 864 632 864 637 855.5 c 128,-1,131
 642 847 642 847 642 839 c 2,132,-1
 642 748 l 1,133,-1
 623 724 l 1,134,-1
 642 724 l 1,113,-1
403 -134 m 1,135,136
 401 -127 401 -127 401 -116.5 c 128,-1,137
 401 -106 401 -106 403 -103 c 1,138,-1
 403 -134 l 1,135,136
503 -84 m 1,139,-1
 517 -87 l 1,140,-1
 503 -87 l 1,141,-1
 503 -84 l 1,139,-1
EndSplineSet
EndChar

StartChar: s
Encoding: 84 115 44
Width: 986
VWidth: 2308
Flags: HW
HStem: 656 23<873 913> 1492 20G<382 492.545 530.5 647.5>
VStem: 117 19<192 204.166> 423 19<284 309>
LayerCount: 2
Fore
SplineSet
604 702 m 1,0,-1
 549 795 l 1,1,-1
 567 817 l 1,2,3
 538.666666667 817 538.666666667 817 536.833333333 822.5 c 0,4,5
 532.8 834.6 532.8 834.6 518 842 c 1,6,-1
 533 842 l 1,7,-1
 513 865 l 1,8,-1
 513 842 l 1,9,-1
 478 865 l 1,10,-1
 442 817 l 1,11,-1
 442 770 l 2,12,13
 442 745 442 745 447 732.5 c 128,-1,14
 452 720 452 720 454 714 c 128,-1,15
 456 708 456 708 463 698 c 128,-1,16
 470 688 470 688 472 684.5 c 0,17,18
 480.666666667 669.333333333 480.666666667 669.333333333 494 656 c 1,19,-1
 494 638 l 1,20,-1
 513 656 l 1,21,22
 671 656 671 656 751 541.5 c 128,-1,23
 831 427 831 427 831 238 c 1,24,-1
 813 238 l 1,25,26
 813 183 813 183 802.5 162 c 128,-1,27
 792 141 792 141 776.5 117.5 c 128,-1,28
 761 94 761 94 752 77 c 1,29,30
 752 60 752 60 737.5 37.5 c 0,31,32
 694 -30 694 -30 694 -86 c 1,33,-1
 675 -73 l 1,34,-1
 675 -86 l 1,35,36
 671 -82 671 -82 656 -72.5 c 128,-1,37
 641 -63 641 -63 633.5 -63 c 128,-1,38
 626 -63 626 -63 603 -74.5 c 128,-1,39
 580 -86 580 -86 567 -86 c 1,40,-1
 567 -63 l 1,41,-1
 513 -63 l 1,42,-1
 513 -86 l 1,43,-1
 494 -86 l 1,44,-1
 478 -63 l 1,45,-1
 478 -86 l 1,46,-1
 404 -86 l 1,47,48
 404 -113 404 -113 367 -113 c 1,49,-1
 314 -109 l 1,50,-1
 236 -16 l 1,51,52
 236 14.1764705882 236 14.1764705882 217 46.5882352941 c 128,-1,53
 198 79 198 79 178 109.5 c 128,-1,54
 158 140 158 140 157 142 c 1,55,-1
 157 192 l 1,56,-1
 140 205 l 1,57,-1
 136 192 l 1,58,-1
 117 192 l 1,59,60
 117 206 117 206 137 225 c 128,-1,61
 157 244 157 244 157 261 c 1,62,63
 208 261 208 261 236 284 c 1,64,-1
 423 284 l 1,65,-1
 423 309 l 1,66,-1
 442 309 l 1,67,-1
 442 238 l 1,68,-1
 460 217 l 1,69,-1
 442 192 l 1,70,71
 442 168 442 168 471 168 c 2,72,-1
 478 168 l 1,73,74
 478 144 478 144 500 144 c 1,75,-1
 533 146 l 1,76,-1
 567 217 l 1,77,-1
 567 261 l 1,78,-1
 549 284 l 1,79,-1
 549 355 l 1,80,-1
 533 332 l 1,81,-1
 513 355 l 1,82,-1
 387 377 l 1,83,84
 373 397 373 397 352 399 c 1,85,-1
 352 424 l 1,86,-1
 333 424 l 1,87,-1
 314 399 l 1,88,89
 166 479 166 479 117 564 c 1,90,91
 117 600 117 600 87 684 c 128,-1,92
 57 768 57 768 57 817 c 2,93,-1
 57 1018 l 2,94,95
 57 1110 57 1110 96 1202 c 128,-1,96
 135 1294 135 1294 195.5 1361 c 128,-1,97
 256 1428 256 1428 331.5 1470 c 128,-1,98
 407 1512 407 1512 478 1512 c 1,99,-1
 494 1490 l 1,100,101
 527 1512 527 1512 533 1512 c 0,102,103
 611 1512 611 1512 674.5 1490.5 c 128,-1,104
 738 1469 738 1469 768.5 1443.5 c 128,-1,105
 799 1418 799 1418 822 1396.5 c 128,-1,106
 845 1375 845 1375 852 1375 c 1,107,108
 852 1354 852 1354 882.5 1338.5 c 128,-1,109
 913 1323 913 1323 913 1304 c 1,110,111
 927 1295 927 1295 941 1267.5 c 128,-1,112
 955 1240 955 1240 955 1229.5 c 128,-1,113
 955 1219 955 1219 954 1211 c 1,114,-1
 933 1211 l 1,115,-1
 892 702 l 1,116,-1
 873 679 l 1,117,-1
 913 679 l 1,118,-1
 913 656 l 1,119,-1
 831 656 l 1,120,-1
 813 679 l 1,121,-1
 813 702 l 1,122,123
 795 686 795 686 771 679 c 1,124,-1
 732 726 l 1,125,-1
 732 702 l 1,126,-1
 604 702 l 1,0,-1
EndSplineSet
EndChar

StartChar: t
Encoding: 85 116 45
Width: 1399
VWidth: 2308
Flags: HW
HStem: 1495 20G<436.5 971.5> 1495 20G<436.5 971.5>
VStem: 255 40<748 769.098> 583 342<259.251 472 493 541> 604 303<195.939 403.61> 623 277<-154 191.574> 783 41<-247.237 -201> 884 21<-270 -201>
LayerCount: 2
Fore
SplineSet
900 -36 m 1,0,-1
 905 -270 l 1,1,-1
 884 -294 l 1,2,-1
 884 -201 l 1,3,-1
 824 -201 l 1,4,-1
 824 -248 l 1,5,-1
 803 -248 l 1,6,7
 783 -228 783 -228 783 -176 c 1,8,-1
 643 -176 l 1,9,-1
 623 -154 l 1,10,-1
 625 -68 l 1,11,12
 625 2 625 2 604 55 c 1,13,-1
 623 31 l 1,14,-1
 623 195 l 1,15,-1
 604 195 l 1,16,-1
 583 452 l 1,17,-1
 583 472 l 1,18,-1
 569 488 l 1,19,-1
 583 493 l 1,20,-1
 583 541 l 1,21,-1
 566 564 l 1,22,-1
 583 632 l 1,23,24
 565 658 565 658 565 690 c 128,-1,25
 565 722 565 722 566 726 c 1,26,27
 547 750 547 750 547 801 c 2,28,-1
 547 835 l 1,29,30
 537.373443983 812.538035961 537.373443983 812.538035961 432.186721992 783.769017981 c 128,-1,31
 327 755 327 755 313 748 c 1,32,-1
 295 773 l 1,33,-1
 295 748 l 1,34,-1
 255 704 l 1,35,36
 255 893.957446809 255 893.957446809 221 1042.9787234 c 0,37,38
 158.259886453 1317.96730619 158.259886453 1317.96730619 35 1419 c 1,39,40
 125 1419 125 1419 196 1468 c 1,41,42
 207 1466 207 1466 239.5 1466 c 128,-1,43
 272 1466 272 1466 354.5 1490.5 c 128,-1,44
 437 1515 437 1515 476 1515 c 2,45,-1
 905 1515 l 2,46,47
 1002.58536585 1515 1002.58536585 1515 1142.29268293 1483 c 128,-1,48
 1282 1451 1282 1451 1328 1443 c 1,49,50
 1328 1431 1328 1431 1271.5 1324.5 c 128,-1,51
 1215 1218 1215 1218 1207 1212 c 1,52,-1
 1189 1212 l 1,53,-1
 1189 1188 l 1,54,-1
 1207 1188 l 1,55,56
 1207 1021 1207 1021 1168 748 c 1,57,-1
 1148 748 l 1,58,-1
 1108 795 l 1,59,60
 1081 789 1081 789 1060 789 c 0,61,62
 1003 789 1003 789 923 842 c 1,63,-1
 905 842 l 1,64,-1
 923 773 l 1,65,-1
 905 726 l 1,66,67
 925 702 925 702 925 629 c 128,-1,68
 925 556 925 556 924 517 c 128,-1,69
 923 478 923 478 923 472 c 1,70,71
 922.445656032 472.184781323 922.445656032 472.184781323 918 477 c 1,72,73
 914 477 914 477 914 470 c 1,74,-1
 927 406 l 1,75,-1
 907 257 l 1,76,77
 907 220 907 220 923 195 c 1,78,79
 900 102 900 102 900 -36 c 1,0,-1
EndSplineSet
EndChar

StartChar: u
Encoding: 86 117 46
Width: 1451
VWidth: 2308
Flags: HW
HStem: 103 150<690.052 760> 1485 20G<337.5 392 394.478 670>
VStem: 291 361<440.903 567.676 578 762> 779 0<29 48> 833 345<441.036 578 647 696>
LayerCount: 2
Fore
SplineSet
870 19 m 1,0,-1
 904 23 l 1,1,-1
 850 46 l 1,2,-1
 797 0 l 1,3,-1
 797 31 l 1,4,5
 793 48 793 48 779 48 c 1,6,-1
 779 29 l 1,7,8
 775 63 775 63 759.5 83 c 128,-1,9
 744 103 744 103 705 103 c 1,10,11
 696 89 696 89 684.5 89 c 128,-1,12
 673 89 673 89 670 91 c 1,13,-1
 673 51 l 1,14,15
 673 -24 673 -24 652 -24 c 1,16,17
 637 27 637 27 612 46 c 1,18,19
 599 46 599 46 595 44 c 1,20,-1
 612 26 l 1,21,-1
 571 -7 l 1,22,-1
 533 16 l 1,23,24
 533 44.75 533 44.75 507 54.5 c 0,25,26
 473.666666667 67 473.666666667 67 411 67 c 1,27,28
 411 79 411 79 382.5 210.5 c 128,-1,29
 354 342 354 342 352 346 c 1,30,31
 348 342 348 342 343.5 342 c 128,-1,32
 339 342 339 342 333.5 348.5 c 128,-1,33
 328 355 328 355 328 360.5 c 128,-1,34
 328 366 328 366 332 370 c 1,35,-1
 311 394 l 1,36,-1
 332 440 l 1,37,-1
 311 440 l 1,38,39
 289 466 289 466 287.5 512 c 128,-1,40
 286 558 286 558 306 568 c 1,41,-1
 291 578 l 1,42,-1
 291 600 l 2,43,44
 291 718.238095238 291 718.238095238 257 886.619047619 c 128,-1,45
 223 1055 223 1055 215 1112 c 1,46,-1
 202 1112 l 1,47,-1
 215 1133 l 1,48,49
 176 1178.5 176 1178.5 176 1280 c 2,50,-1
 176 1320 l 1,51,52
 160 1339 160 1339 141.5 1364 c 128,-1,53
 123 1389 123 1389 115 1398.5 c 128,-1,54
 107 1408 107 1408 91 1419 c 0,55,56
 66.2727272727 1436 66.2727272727 1436 -4 1436 c 1,57,58
 34 1445 34 1445 182 1463.5 c 128,-1,59
 330 1482 330 1482 392 1505 c 1,60,-1
 392 1482 l 1,61,-1
 411 1505 l 1,62,-1
 670 1505 l 1,63,-1
 652 1482 l 1,64,-1
 652 1411 l 1,65,-1
 632 1389 l 2,66,67
 633 1390 633 1390 640 1390 c 0,68,69
 656 1390 656 1390 656 1375 c 0,70,71
 656 1371 656 1371 652 1367 c 2,72,-1
 632 1342 l 1,73,74
 654 1308 654 1308 654 1269 c 128,-1,75
 654 1230 654 1230 632 1204 c 1,76,77
 675 1154 675 1154 675 918 c 0,78,79
 675 814 675 814 670 762 c 1,80,-1
 652 762 l 1,81,-1
 652 600 l 2,82,83
 652 564 652 564 670.5 490.5 c 128,-1,84
 689 417 689 417 689 389 c 2,85,-1
 687 324 l 1,86,87
 687 253 687 253 760 253 c 1,88,-1
 797 278 l 1,89,-1
 797 300 l 1,90,-1
 815 322 l 1,91,-1
 797 346 l 1,92,93
 833 400 833 400 833 526 c 2,94,-1
 833 578 l 1,95,-1
 841 584 l 1,96,-1
 815 625 l 1,97,-1
 833 647 l 1,98,-1
 833 696 l 1,99,-1
 850 696 l 1,100,-1
 870 1158 l 1,101,-1
 850 1180 l 1,102,-1
 850 1204 l 1,103,-1
 870 1204 l 1,104,105
 874 1209 874 1209 874 1214.5 c 128,-1,106
 874 1220 874 1220 858.5 1225.5 c 128,-1,107
 843 1231 843 1231 843 1235.25 c 128,-1,108
 843 1239.5 843 1239.5 850 1250 c 1,109,-1
 833 1270 l 1,110,-1
 836 1269 l 1,111,112
 840 1269 840 1269 845 1275 c 128,-1,113
 850 1281 850 1281 850 1285 c 128,-1,114
 850 1289 850 1289 846 1291 c 1,115,116
 871 1316 871 1316 871 1381 c 128,-1,117
 871 1446 871 1446 870 1459 c 1,118,-1
 850 1482 l 1,119,-1
 959 1482 l 2,120,121
 1037 1482 1037 1482 1140 1436 c 1,122,-1
 1157 1459 l 1,123,124
 1209 1459 1209 1459 1311 1413 c 128,-1,125
 1413 1367 1413 1367 1471 1367 c 1,126,127
 1391 1320 1391 1320 1309 1226 c 1,128,-1
 1329 1207 l 1,129,-1
 1325 1207 l 2,130,131
 1318 1207 1318 1207 1312 1200.5 c 128,-1,132
 1306 1194 1306 1194 1306 1188 c 128,-1,133
 1306 1182 1306 1182 1309 1180 c 2,134,-1
 1331 1158 l 1,135,-1
 1309 1158 l 1,136,137
 1178 897 1178 897 1178 517 c 0,138,139
 1178 479 1178 479 1157 440 c 1,140,-1
 1157 394 l 1,141,-1
 1140 394 l 1,142,-1
 1142 365 l 1,143,144
 1142 322 1142 322 1122 322 c 1,145,-1
 1140 278 l 1,146,-1
 1104 185 l 2,147,148
 1106 189 1106 189 1110.5 189 c 128,-1,149
 1115 189 1115 189 1120 182.5 c 128,-1,150
 1125 176 1125 176 1125 170.5 c 128,-1,151
 1125 165 1125 165 1122 162 c 1,152,-1
 1104 185 l 1,153,-1
 1085 138 l 1,154,-1
 1104 116 l 1,155,-1
 1085 116 l 1,156,-1
 1048 46 l 1,157,-1
 1048 23 l 1,158,159
 1042 21 1042 21 1010 21 c 128,-1,160
 978 21 978 21 941 46 c 1,161,162
 934 27 934 27 917.5 1 c 128,-1,163
 901 -25 901 -25 886 -26 c 1,164,-1
 870 19 l 1,0,-1
EndSplineSet
EndChar

StartChar: v
Encoding: 87 118 47
Width: 1319
VWidth: 2308
Flags: HW
HStem: 1505 22<559 576> 1507 20G<831.636 848>
VStem: 596 35<-140 -116>
LayerCount: 2
Fore
SplineSet
880 207 m 1,0,-1
 863 34 l 1,1,2
 833.772058824 6.72058823529 833.772058824 6.72058823529 831.886029412 -12.1397058824 c 128,-1,3
 830 -31 830 -31 830 -48 c 1,4,-1
 811 -70 l 2,5,6
 810 -71 810 -71 809 -72.5 c 0,7,8
 803.571428571 -80.6428571429 803.571428571 -80.6428571429 796.785714286 -71.8214285714 c 128,-1,9
 790 -63 790 -63 790 -58.5 c 128,-1,10
 790 -54 790 -54 793 -48 c 1,11,-1
 757 -48 l 1,12,13
 757 -97 757 -97 740 -116 c 1,14,-1
 686 -116 l 1,15,-1
 667 -94 l 1,16,-1
 649 -94 l 1,17,-1
 631 -116 l 1,18,-1
 631 -140 l 1,19,-1
 596 -140 l 1,20,-1
 596 -116 l 1,21,22
 573 -116 573 -116 573 -42.5 c 128,-1,23
 573 31 573 31 576 46 c 1,24,25
 514 89 514 89 474 278 c 1,26,-1
 455 253 l 1,27,28
 453 257 453 257 453 274.5 c 128,-1,29
 453 292 453 292 474 322 c 1,30,-1
 455 322 l 1,31,-1
 455 346 l 1,32,-1
 437 370 l 1,33,-1
 437 416 l 1,34,35
 387.581296081 459.241365929 387.581296081 459.241365929 292.5 962 c 0,36,37
 256 1155 256 1155 241 1204 c 1,38,-1
 207 1204 l 1,39,-1
 221 1226 l 1,40,41
 207 1304 207 1304 168.5 1366 c 128,-1,42
 130 1428 130 1428 94 1429 c 1,43,-1
 94 1452 l 1,44,-1
 -6 1452 l 1,45,46
 271 1505 271 1505 542 1505 c 1,47,-1
 542 1527 l 1,48,-1
 576 1527 l 1,49,-1
 598 1505 l 1,50,-1
 559 1505 l 1,51,-1
 559 1436 l 1,52,-1
 576 1411 l 1,53,-1
 576 1296 l 1,54,-1
 596 1296 l 1,55,-1
 576 1273 l 1,56,57
 596 1233 596 1233 596 1212 c 2,58,-1
 596 1204 l 1,59,60
 616 1177 616 1177 616 1112 c 1,61,-1
 613 1018 l 2,62,63
 613 1001 613 1001 627.5 935.5 c 128,-1,64
 642 870 642 870 649 855 c 1,65,-1
 636 872 l 1,66,67
 651 845 651 845 653 748.5 c 128,-1,68
 655 652 655 652 659.5 560 c 128,-1,69
 664 468 664 468 686 444 c 1,70,71
 709 521 709 521 721 701 c 128,-1,72
 733 881 733 881 740 926 c 1,73,-1
 722 949 l 1,74,-1
 740 974 l 1,75,76
 740 1137 740 1137 757 1204 c 1,77,78
 754 1201 754 1201 751 1201 c 0,79,80
 738 1201 738 1201 738 1216.5 c 128,-1,81
 738 1232 738 1232 766.5 1310.5 c 128,-1,82
 795 1389 795 1389 795 1410.5 c 128,-1,83
 795 1432 795 1432 793 1436 c 1,84,-1
 811 1459 l 1,85,-1
 811 1505 l 1,86,-1
 830 1505 l 1,87,-1
 848 1527 l 1,88,-1
 848 1505 l 1,89,90
 927 1505 927 1505 1085.5 1488.5 c 128,-1,91
 1244 1472 1244 1472 1324 1472 c 1,92,-1
 1243 1428 l 1,93,94
 1170 1378 1170 1378 1106 1195.5 c 128,-1,95
 1042 1013 1042 1013 1042 878 c 1,96,-1
 1024 878 l 1,97,98
 1024 822 1024 822 988 651.5 c 128,-1,99
 952 481 952 481 933 440 c 1,100,-1
 951 440 l 1,101,-1
 951 416 l 1,102,-1
 933 394 l 1,103,104
 933 350 933 350 917.5 294.5 c 128,-1,105
 902 239 902 239 880 207 c 1,0,-1
EndSplineSet
EndChar

StartChar: w
Encoding: 88 119 48
Width: 1443
VWidth: 2308
Flags: HW
HStem: 1164 26<212.897 235.859> 1490 20G<655 815 982.182 1022.26>
VStem: 273 255<1029.44 1141.67> 329 35<1464 1488> 634 181<1327 1461.84> 655 160<1329.16 1464> 834 225<30.3352 122 132 189.93> 834 40<3 29>
LayerCount: 2
Fore
SplineSet
1105 632 m 1,0,-1
 1107 330 l 1,1,-1
 1091 301 l 1,2,-1
 1091 306 l 1,3,4
 1059 267 1059 267 1059 168 c 2,5,-1
 1059 98 l 2,6,7
 1059 3 1059 3 1034 3 c 1,8,-1
 1014 -18 l 1,9,10
 1013 7 1013 7 962.5 18 c 128,-1,11
 912 29 912 29 874 29 c 1,12,-1
 874 3 l 1,13,-1
 853 -18 l 1,14,-1
 834 3 l 1,15,-1
 834 122 l 1,16,-1
 848 132 l 1,17,18
 848 145 848 145 833 163 c 128,-1,19
 818 181 818 181 815 191 c 1,20,-1
 834 214 l 1,21,-1
 815 238 l 1,22,23
 815 298 815 298 805 384.5 c 128,-1,24
 795 471 795 471 780 515 c 1,25,26
 746 328 746 328 746 256 c 128,-1,27
 746 184 746 184 726 144 c 1,28,-1
 726 100 l 1,29,-1
 744 100 l 1,30,-1
 726 53 l 1,31,-1
 707 75 l 1,32,-1
 707 53 l 1,33,-1
 671 53 l 1,34,-1
 671 3 l 1,35,-1
 618 75 l 1,36,-1
 599 29 l 1,37,-1
 599 53 l 1,38,-1
 581 29 l 1,39,40
 577 33 577 33 532.5 189 c 0,41,42
 400 653.494382022 400 653.494382022 400 724 c 1,43,-1
 348 815 l 1,44,-1
 348 839 l 1,45,-1
 309 886 l 1,46,47
 307 900 307 900 296.5 952.5 c 0,48,49
 273 1070 273 1070 273 1102.5 c 128,-1,50
 273 1135 273 1135 275 1142 c 1,51,-1
 241 1142 l 1,52,-1
 256 1164 l 1,53,-1
 215 1164 l 1,54,55
 212 1170 212 1170 212 1174.5 c 128,-1,56
 212 1179 212 1179 217.5 1184.5 c 128,-1,57
 223 1190 223 1190 226.5 1190 c 128,-1,58
 230 1190 230 1190 236 1186 c 1,59,60
 236 1227 236 1227 193.5 1277 c 128,-1,61
 151 1327 151 1327 115 1327 c 1,62,63
 105 1345 105 1345 70 1370 c 128,-1,64
 35 1395 35 1395 13 1395 c 2,65,-1
 7 1395 l 1,66,67
 175 1464 175 1464 329 1464 c 1,68,-1
 329 1488 l 1,69,-1
 364 1488 l 1,70,-1
 364 1464 l 1,71,-1
 382 1464 l 2,72,73
 389 1464 389 1464 419 1488 c 1,74,75
 438 1464 438 1464 477 1464 c 2,76,-1
 490 1464 l 1,77,-1
 473 1488 l 1,78,-1
 490 1488 l 1,79,-1
 508 1464 l 1,80,-1
 490 1441 l 1,81,82
 510 1410 510 1410 510 1372.5 c 128,-1,83
 510 1335 510 1335 508 1327 c 1,84,-1
 528 1301 l 1,85,-1
 528 1186 l 1,86,87
 542 1166 542 1166 565.5 1061.5 c 128,-1,88
 589 957 589 957 599 931 c 1,89,90
 594 983 594 983 594 1022 c 0,91,92
 594 1185 594 1185 634 1280 c 1,93,-1
 618 1301 l 1,94,-1
 618 1327 l 1,95,-1
 634 1327 l 1,96,-1
 655 1464 l 1,97,-1
 671 1488 l 1,98,-1
 655 1510 l 1,99,-1
 815 1510 l 1,100,101
 815 1464 815 1464 831 1394.5 c 128,-1,102
 847 1325 847 1325 870 1301 c 1,103,-1
 870 1232 l 1,104,-1
 888 1211 l 1,105,-1
 907 1211 l 1,106,-1
 888 1186 l 1,107,108
 893 1174 893 1174 902.5 1131 c 128,-1,109
 912 1088 912 1088 924 1071 c 1,110,-1
 924 1031 l 1,111,-1
 979 1232 l 1,112,-1
 959 1257 l 1,113,-1
 979 1280 l 1,114,115
 977 1282 977 1282 982.5 1301.5 c 0,116,117
 1000.5388601 1365.45595855 1000.5388601 1365.45595855 999 1387 c 2,118,-1
 996 1464 l 1,119,-1
 979 1488 l 1,120,-1
 1014 1510 l 1,121,-1
 1033 1464 l 1,122,-1
 1051 1464 l 1,123,-1
 1105 1488 l 1,124,-1
 1122 1464 l 1,125,126
 1219.6875 1464 1219.6875 1464 1350.5 1418 c 0,127,128
 1396 1402 1396 1402 1472 1373 c 1,129,130
 1361 1373 1361 1373 1311 1301 c 1,131,-1
 1311 1257 l 1,132,-1
 1270 1211 l 1,133,-1
 1291 1211 l 1,134,-1
 1270 1186 l 1,135,-1
 1285 1186 l 1,136,137
 1242 1129 1242 1129 1184 973.5 c 128,-1,138
 1126 818 1126 818 1126 719 c 0,139,140
 1126 678 1126 678 1141 653 c 1,141,-1
 1122 632 l 1,142,-1
 1105 632 l 1,0,-1
6 1395 m 1,143,-1
 7 1395 l 1,144,-1
 6 1395 l 1,143,-1
EndSplineSet
EndChar

StartChar: x
Encoding: 89 120 49
Width: 1228
VWidth: 2308
Flags: HW
HStem: 513 23<774 792> 617 11<430 448> 1416 23<2.28458 96.0558> 1462 45<702 715.502> 1510 20G<474 485 682 702>
VStem: 377 19<-113 -91> 882 36<-91 -58.64>
LayerCount: 2
Fore
SplineSet
882 -66 m 1,0,1
 861 -45 861 -45 840.625 -45 c 2,2,-1
 809 -45 l 1,3,-1
 792 -20 l 1,4,-1
 736 -20 l 1,5,-1
 719 -45 l 1,6,-1
 665 -45 l 1,7,8
 665 135 665 135 611 280 c 1,9,-1
 611 187 l 1,10,-1
 610 189 l 1,11,12
 574 189 574 189 574 84 c 128,-1,13
 574 -21 574 -21 592 -66 c 1,14,-1
 556 -20 l 1,15,-1
 538 -20 l 1,16,-1
 538 -48 l 1,17,-1
 503 -45 l 1,18,-1
 485 -66 l 1,19,-1
 467 -66 l 1,20,-1
 448 -45 l 1,21,-1
 412 -91 l 1,22,-1
 396 -91 l 1,23,-1
 396 -113 l 1,24,-1
 377 -113 l 1,25,-1
 377 -66 l 1,26,-1
 357 -91 l 1,27,-1
 340 -66 l 1,28,-1
 340 -20 l 1,29,-1
 377 48 l 1,30,31
 377 83 377 83 404 135 c 1,32,-1
 396 142 l 1,33,-1
 396 164 l 1,34,35
 418 193 418 193 423.5 241 c 128,-1,36
 429 289 429 289 431.5 333.5 c 128,-1,37
 434 378 434 378 448 398 c 1,38,-1
 430 398 l 1,39,-1
 448 419 l 1,40,-1
 448 464 l 1,41,-1
 485 536 l 1,42,43
 485 587 485 587 448 618 c 1,44,-1
 444 617 l 1,45,-1
 430 628 l 1,46,-1
 448 628 l 1,47,48
 444 647 444 647 436 683.5 c 0,49,50
 417.942857143 765.885714286 417.942857143 765.885714286 412 806 c 1,51,-1
 430 766 l 1,52,-1
 430 813 l 1,53,-1
 412 975 l 1,54,55
 398 998 398 998 368 1075 c 128,-1,56
 338 1152 338 1152 304 1184 c 1,57,58
 304 1243.07142857 304 1243.07142857 247 1296 c 0,59,60
 199.352941176 1340.24369748 199.352941176 1340.24369748 150.676470588 1373.62184874 c 128,-1,61
 102 1407 102 1407 90 1416 c 1,62,-1
 69 1416 l 2,63,64
 13 1416 13 1416 -9 1439 c 1,65,66
 46 1439 46 1439 150 1461.5 c 128,-1,67
 254 1484 254 1484 304 1484 c 1,68,-1
 304 1507 l 1,69,-1
 394 1503 l 1,70,71
 460 1498 460 1498 485 1530 c 1,72,-1
 485 1507 l 1,73,-1
 470 1507 l 1,74,-1
 521 1484 l 1,75,-1
 538 1507 l 1,76,-1
 538 1484 l 1,77,-1
 611 1416 l 1,78,-1
 576 1416 l 1,79,-1
 576 1370 l 1,80,81
 594 1344 594 1344 594 1308 c 1,82,-1
 592 1275 l 1,83,84
 621 1227 621 1227 631 1188 c 1,85,86
 645 1212 645 1212 682 1318.5 c 128,-1,87
 719 1425 719 1425 719 1459 c 2,88,-1
 719 1462 l 1,89,-1
 702 1462 l 1,90,-1
 702 1484 l 1,91,-1
 682 1484 l 1,92,-1
 682 1507 l 1,93,-1
 702 1518 l 1,94,-1
 702 1507 l 1,95,96
 782 1507 782 1507 987.5 1467 c 128,-1,97
 1193 1427 1193 1427 1229 1390 c 1,98,-1
 1244 1390 l 1,99,100
 1165 1367 1165 1367 1105.5 1339 c 128,-1,101
 1046 1311 1046 1311 987.5 1258.5 c 128,-1,102
 929 1206 929 1206 899 1137 c 1,103,-1
 918 1137 l 1,104,-1
 918 1113 l 1,105,-1
 899 1137 l 1,106,107
 870 1071 870 1071 857 974.5 c 128,-1,108
 844 878 844 878 828 786.5 c 128,-1,109
 812 695 812 695 774 628 c 1,110,-1
 792 605 l 1,111,-1
 792 558 l 1,112,-1
 774 558 l 1,113,-1
 774 536 l 1,114,-1
 792 536 l 1,115,-1
 792 513 l 1,116,-1
 774 513 l 1,117,-1
 774 488 l 2,118,119
 774 448 774 448 791.5 376 c 128,-1,120
 809 304 809 304 809 271 c 2,121,-1
 809 257 l 1,122,123
 851 205 851 205 878 62 c 128,-1,124
 905 -81 905 -81 918 -113 c 1,125,-1
 899 -113 l 1,126,-1
 882 -91 l 1,127,-1
 882 -66 l 1,0,1
EndSplineSet
EndChar

StartChar: y
Encoding: 90 121 50
Width: 1239
VWidth: 2308
Flags: HW
HStem: 1219 3<310.281 329> 1485 20G<273 282 329 496 761 776.2 796 819> 1505 20G<761 776.2>
VStem: 534 272<42.593 361.391 365 714.213> 544 280<136.656 365> 995 1<1176 1188> 996 2<1188.09 1197> 1058 0<1429 1452>
LayerCount: 2
Fore
SplineSet
534 125 m 1,0,-1
 544 434 l 1,1,2
 544 490 544 490 481.5 752 c 128,-1,3
 419 1014 419 1014 419 1043.5 c 128,-1,4
 419 1073 419 1073 422 1079 c 1,5,6
 372 1082 372 1082 350 1132 c 128,-1,7
 328 1182 328 1182 329 1245 c 1,8,9
 251.968810916 1287.99415205 251.968810916 1287.99415205 163.984405458 1362.49707602 c 128,-1,10
 76 1437 76 1437 54 1454 c 1,11,-1
 50 1454 l 1,12,-1
 54 1464 l 1,13,-1
 74 1454 l 1,14,15
 97 1469 97 1469 165.5 1470 c 128,-1,16
 234 1471 234 1471 256 1500 c 1,17,-1
 273 1500 l 1,18,-1
 275 1505 l 1,19,20
 298 1479 298 1479 329 1476 c 1,21,-1
 329 1500 l 1,22,-1
 444 1505 l 1,23,24
 487.690909091 1505 487.690909091 1505 522 1449.5 c 0,25,26
 565.126984127 1379.73576097 565.126984127 1379.73576097 587.563492063 1301.86788049 c 128,-1,27
 610 1224 610 1224 620.5 1185 c 128,-1,28
 631 1146 631 1146 636 1130 c 1,29,30
 691.935198822 1294.69808542 691.935198822 1294.69808542 742 1360 c 1,31,-1
 719 1393 l 1,32,-1
 725 1409 l 1,33,34
 761 1409 761 1409 761 1525 c 1,35,-1
 780 1500 l 1,36,-1
 796 1498 l 1,37,-1
 815 1518 l 1,38,39
 821.500758725 1474.1198786 821.500758725 1474.1198786 978.5 1449 c 0,40,41
 1041 1439 1041 1439 1058 1429 c 1,42,-1
 1058 1452 l 1,43,44
 1065 1429 1065 1429 1129.5 1407 c 128,-1,45
 1194 1385 1194 1385 1225 1385 c 1,46,47
 1160.06451613 1381.06451613 1160.06451613 1381.06451613 1120.5 1341.5 c 0,48,49
 1104 1325 1104 1325 1090.5 1308.5 c 0,50,51
 1058.18181818 1269 1058.18181818 1269 1037 1269 c 1,52,53
 1012 1250 1012 1250 1009 1221 c 1,54,-1
 996 1197 l 1,55,-1
 978 1199 l 1,56,57
 976.450682853 1154.06980273 976.450682853 1154.06980273 920.5 1100.5 c 0,58,59
 897 1078 897 1078 888 1060 c 0,60,61
 866 1017 866 1017 843.5 725 c 128,-1,62
 821 433 821 433 806 365 c 1,63,-1
 824 365 l 1,64,65
 806 133 l 1,66,67
 778 103 778 103 778 41 c 1,68,-1
 783 -60 l 1,69,-1
 764 -97 l 1,70,-1
 729 -48 l 1,71,72
 715 -59 715 -59 676 -71 c 128,-1,73
 637 -83 637 -83 611 -99.5 c 128,-1,74
 585 -116 585 -116 585 -145 c 1,75,76
 534 -85 534 -85 534 125 c 1,0,-1
14 1429 m 1,77,78
 33 1450 33 1450 42 1452 c 1,79,80
 38 1449 38 1449 33.5 1442.5 c 0,81,82
 24.1538461538 1429 24.1538461538 1429 14 1429 c 1,77,78
329 1222 m 1,83,-1
 329 1219 l 1,84,85
 328 1219 328 1219 310 1222 c 1,86,-1
 329 1222 l 1,83,-1
996 1188 m 1,87,-1
 996 1176 l 1,88,89
 995 1176 995 1176 995 1181 c 2,90,-1
 996 1188 l 1,87,-1
996 1197 m 1,91,92
 998 1197 998 1197 998 1193.5 c 128,-1,93
 998 1190 998 1190 996 1188 c 1,94,-1
 996 1197 l 1,91,92
50 1454 m 1,95,96
 50 1452 50 1452 46 1452 c 1,97,98
 49 1452 49 1452 50 1454 c 1,95,96
EndSplineSet
EndChar

StartChar: z
Encoding: 91 122 51
Width: 1274
VWidth: 2308
Flags: HW
HStem: -60 321<650.406 849> -38 299<650.204 847.222> 1495 20G<329.5 523 540 884> 1495 20G<329.5 523 540 884>
VStem: 846 36<-131.882 -60.0517>
LayerCount: 2
Fore
SplineSet
595 -45 m 2,0,-1
 596 -20 l 1,1,2
 596 8 596 8 558 8 c 0,3,4
 556 8 556 8 537 -5 c 128,-1,5
 518 -18 518 -18 506.5 -18 c 128,-1,6
 495 -18 495 -18 487 -16 c 1,7,-1
 469 -38 l 1,8,-1
 487 -38 l 1,9,-1
 484 -60 l 1,10,-1
 473 -56 l 1,11,-1
 433 -86 l 1,12,13
 414 -69 414 -69 414 -16 c 1,14,-1
 411 -18 l 1,15,-1
 379 31 l 1,16,-1
 379 123 l 1,17,18
 420 190 420 190 433 261 c 1,19,-1
 450 261 l 1,20,-1
 438 286 l 1,21,-1
 450 355 l 1,22,-1
 469 355 l 1,23,-1
 469 377 l 1,24,-1
 487 377 l 1,25,26
 484 392 484 392 484 440.5 c 128,-1,27
 484 489 484 489 506 517 c 1,28,-1
 523 517 l 1,29,-1
 523 610 l 1,30,31
 529 617 529 617 538.5 642 c 0,32,33
 562.06 704 562.06 704 579 704 c 1,34,35
 577 710 577 710 577 736 c 128,-1,36
 577 762 577 762 596.5 794.5 c 128,-1,37
 616 827 616 827 645 842 c 1,38,-1
 613 842 l 2,39,40
 568 842 568 842 463.5 803.5 c 128,-1,41
 359 765 359 765 359 726 c 1,42,-1
 343 726 l 1,43,-1
 306 685 l 1,44,-1
 306 704 l 1,45,-1
 324 726 l 1,46,-1
 306 726 l 1,47,-1
 306 707 l 1,48,49
 283.5 780.5 283.5 780.5 268.75 883.75 c 128,-1,50
 254 987 254 987 244.5 1038.5 c 128,-1,51
 235 1090 235 1090 196.5 1164 c 128,-1,52
 158 1238 158 1238 118.5 1311 c 128,-1,53
 79 1384 79 1384 65 1443 c 1,54,55
 123 1443 123 1443 227 1479 c 128,-1,56
 331 1515 331 1515 379 1515 c 2,57,-1
 523 1515 l 1,58,-1
 523 1490 l 1,59,-1
 540 1490 l 1,60,-1
 540 1515 l 1,61,-1
 884 1515 l 1,62,-1
 884 1490 l 1,63,-1
 940 1490 l 2,64,65
 1027 1490 1027 1490 1078 1468 c 1,66,-1
 1078 1443 l 1,67,-1
 1097 1443 l 1,68,-1
 1118 1468 l 1,69,-1
 1179 1443 l 1,70,-1
 1179 1419 l 1,71,-1
 1197 1419 l 1,72,73
 1197 1355.26829268 1197 1355.26829268 1147.5 1278 c 0,74,75
 1090.84882027 1189.56889018 1090.84882027 1189.56889018 1073.92441014 1114.28444509 c 128,-1,76
 1057 1039 1057 1039 1057 957 c 1,77,78
 1055 954 1055 954 1037 917 c 0,79,80
 989.810810811 820 989.810810811 820 978 820 c 1,81,-1
 958 842 l 1,82,-1
 958 795 l 1,83,-1
 938 773 l 1,84,-1
 902 773 l 1,85,86
 902 704 902 704 865 704 c 1,87,-1
 865 679 l 1,88,-1
 849 657 l 1,89,-1
 831 657 l 1,90,91
 831 621 831 621 812.5 596.5 c 128,-1,92
 794 572 794 572 794 558 c 1,93,-1
 776 564 l 1,94,-1
 776 493 l 1,95,-1
 758 493 l 1,96,-1
 758 472 l 1,97,-1
 739 472 l 1,98,-1
 739 426 l 1,99,-1
 721 426 l 1,100,-1
 721 402 l 1,101,-1
 704 402 l 1,102,-1
 721 377 l 1,103,104
 702 377 702 377 702 356.5 c 128,-1,105
 702 336 702 336 704 332 c 1,106,-1
 685 286 l 1,107,-1
 668 310 l 1,108,-1
 669 284 l 2,109,110
 669 261 669 261 650 261 c 1,111,-1
 650 240 l 1,112,113
 678 261 678 261 685 261 c 2,114,-1
 849 261 l 2,115,116
 864 261 864 261 892.5 250.5 c 128,-1,117
 921 240 921 240 938 240 c 1,118,-1
 938 217 l 1,119,-1
 958 217 l 1,120,-1
 938 195 l 1,121,-1
 958 170 l 1,122,-1
 938 170 l 1,123,-1
 920 146 l 1,124,-1
 920 100 l 1,125,-1
 902 100 l 1,126,-1
 920 79 l 1,127,-1
 920 8 l 2,128,129
 920 -6 920 -6 901 -53 c 128,-1,130
 882 -100 882 -100 882 -114 c 128,-1,131
 882 -128 882 -128 884 -132 c 1,132,-1
 865 -132 l 2,133,134
 846 -132 846 -132 846 -103.5 c 128,-1,135
 846 -75 846 -75 849 -60 c 1,136,-1
 739 -38 l 1,137,-1
 613 -38 l 1,138,-1
 631 -60 l 1,139,-1
 613 -60 l 2,140,141
 595 -60 595 -60 595 -45 c 2,0,-1
EndSplineSet
EndChar

StartChar: D
Encoding: 37 68 52
Width: 1071
VWidth: 2308
Flags: HW
HStem: -195 21G<662.5 679> 1418 3<59.0007 63.9063> 1418 1<62.1555 64>
VStem: 534 91<-79 -55> 552 37<-264 -129.075> 637 39<-186.193 -81.7097> 697 210<257.75 407.106>
LayerCount: 2
Fore
SplineSet
637 -138 m 1,0,-1
 641 -81 l 1,1,-1
 625 -55 l 1,2,-1
 625 -79 l 1,3,-1
 612 -84 l 1,4,5
 608 -118 608 -118 601 -193.5 c 128,-1,6
 594 -269 594 -269 589 -310 c 1,7,-1
 552 -264 l 1,8,-1
 534 62 l 1,9,10
 410.4375 62 410.4375 62 379.5 7 c 0,11,12
 354.293918919 -37.8108108108 354.293918919 -37.8108108108 355.146959459 -92.4054054054 c 0,13,14
 356.776315789 -196.684210526 356.776315789 -196.684210526 318 -241 c 1,15,16
 318 -195 318 -195 299.5 -101 c 128,-1,17
 281 -7 281 -7 280 36 c 1,18,-1
 295 36 l 1,19,20
 278 89 278 89 278 110 c 0,21,22
 278 174 278 174 301 176 c 1,23,24
 273 232 273 232 241 502.5 c 128,-1,25
 209 773 209 773 203.5 865.5 c 128,-1,26
 198 958 198 958 194 991.5 c 128,-1,27
 190 1025 190 1025 182.5 1059.5 c 128,-1,28
 175 1094 175 1094 170 1115 c 128,-1,29
 165 1136 165 1136 151.5 1173.5 c 128,-1,30
 138 1211 138 1211 132.5 1226.5 c 128,-1,31
 127 1242 127 1242 107.5 1289.5 c 128,-1,32
 88 1337 88 1337 81 1356 c 1,33,-1
 101 1356 l 1,34,-1
 101 1380 l 2,35,36
 101 1383 101 1383 81 1428 c 1,37,-1
 59 1421 l 1,38,-1
 66 1428 l 1,39,-1
 39 1428 l 1,40,41
 155 1433 155 1433 391 1465 c 128,-1,42
 627 1497 627 1497 752 1497 c 0,43,44
 788 1497 788 1497 811.5 1482 c 128,-1,45
 835 1467 835 1467 842.5 1449.5 c 0,46,47
 862.857142857 1402 862.857142857 1402 887 1402 c 1,48,49
 889 1383 889 1383 919.5 1360.5 c 128,-1,50
 950 1338 950 1338 980 1315.5 c 128,-1,51
 1010 1293 1010 1293 1013 1273 c 1,52,-1
 991 1241 l 1,53,54
 1033 1232 1033 1232 1033 1099.5 c 128,-1,55
 1033 967 1033 967 1001.5 809 c 128,-1,56
 970 651 970 651 938.5 501.5 c 128,-1,57
 907 352 907 352 907 269.5 c 128,-1,58
 907 187 907 187 896.5 145.5 c 128,-1,59
 886 104 886 104 872 86 c 0,60,61
 820.407407407 19.6666666667 820.407407407 19.6666666667 797 -33 c 1,62,-1
 778 -8 l 1,63,-1
 758 -33 l 1,64,-1
 769 -33 l 1,65,-1
 717 -55 l 1,66,-1
 702 -45 l 1,67,68
 676 -49 676 -49 676 -155 c 1,69,-1
 679 -195 l 1,70,71
 637 -195 637 -195 637 -138 c 1,0,-1
516 570 m 1,72,73
 516 548 516 548 534 548 c 1,74,-1
 534 477 l 1,75,-1
 552 454 l 1,76,-1
 534 454 l 1,77,-1
 534 315 l 1,78,79
 546.675675676 315 546.675675676 315 556.337837838 282.5 c 128,-1,80
 566 250 566 250 570 245 c 1,81,-1
 570 199 l 1,82,-1
 589 199 l 1,83,-1
 589 245 l 1,84,85
 610 251 610 251 635 255 c 128,-1,86
 660 259 660 259 668 260.5 c 128,-1,87
 676 262 676 262 685 271 c 0,88,89
 697 283 697 283 697 334.5 c 128,-1,90
 697 386 697 386 717 408 c 1,91,-1
 717 454 l 1,92,93
 735 454 735 454 735 497 c 2,94,-1
 735 526 l 1,95,-1
 758 526 l 1,96,-1
 758 548 l 1,97,-1
 735 526 l 1,98,-1
 735 570 l 1,99,-1
 746 570 l 1,100,101
 735 579 735 579 735 625 c 1,102,-1
 737 669 l 1,103,104
 730.350917431 801.981651376 730.350917431 801.981651376 680.5 833 c 0,105,106
 658 847 658 847 625 847 c 2,107,-1
 589 847 l 1,108,-1
 589 824 l 1,109,-1
 570 824 l 1,110,-1
 570 803 l 1,111,-1
 552 779 l 1,112,-1
 552 733 l 1,113,-1
 534 707 l 1,114,-1
 534 570 l 1,115,-1
 516 570 l 1,72,73
552 779 m 1,116,-1
 534 803 l 1,117,118
 534 787 534 787 536.5 783 c 128,-1,119
 539 779 539 779 552 779 c 1,116,-1
59 1421 m 2,120,121
 64 1419 l 2,122,123
 63 1419 63 1419 59 1421 c 2,120,121
EndSplineSet
EndChar

StartChar: A
Encoding: 34 65 53
Width: 1013
VWidth: 2308
Flags: HW
HStem: 65 24<444 446>
VStem: 210 242<-1.6624 65 396.947 505 528 528 551 665.129> 230 214<15.896 65 552.918 667> 230 162<-93.9132 -7> 370 22<-251.001 -109> 522 3<-213 -125> 525 220<484.4 666.709 696 714> 544 39<-406.553 -341.359> 544 19<-443 -360.523> 546 157<19 85.6742> 762 4<483 541>
LayerCount: 2
Fore
SplineSet
604 -284 m 1,0,1
 625 -259.5 625 -259.5 625 -237.25 c 2,2,-1
 625 -198 l 1,3,-1
 644 -166 l 1,4,-1
 625 -145 l 1,5,-1
 604 -175 l 1,6,-1
 587 -96 l 1,7,8
 550.888888889 -129.222222222 550.888888889 -129.222222222 546.444444444 -138.111111111 c 128,-1,9
 542 -147 542 -147 538 -167 c 128,-1,10
 534 -187 534 -187 525 -213 c 1,11,-1
 522 -145 l 1,12,13
 522 -112 522 -112 544 -73 c 1,14,-1
 525 -51 l 1,15,-1
 546 13 l 1,16,17
 546 35 546 35 514.5 72.5 c 128,-1,18
 483 110 483 110 461 110 c 1,19,-1
 432 89 l 1,20,-1
 446 89 l 1,21,-1
 452 65 l 1,22,-1
 444 65 l 1,23,-1
 432 -28 l 1,24,25
 420 -28 420 -28 413 -17.5 c 128,-1,26
 406 -7 406 -7 392 -7 c 1,27,-1
 392 -274 l 1,28,29
 370 -219 370 -219 370 -109 c 1,30,31
 367 -141 367 -141 354 -153.5 c 128,-1,32
 341 -166 341 -166 312 -166 c 1,33,-1
 312 -122 l 1,34,-1
 290 -97 l 1,35,-1
 272 -122 l 1,36,-1
 294 -186 l 1,37,-1
 290 -188 l 1,38,-1
 280 -286 l 1,39,-1
 272 -284 l 1,40,41
 230 -208 230 -208 230 -43 c 2,42,-1
 230 46 l 2,43,44
 230 76 230 76 213 151 c 128,-1,45
 196 226 196 226 196 255 c 128,-1,46
 196 284 196 284 204 311 c 128,-1,47
 212 338 212 338 226 342 c 1,48,-1
 210 342 l 1,49,-1
 234 396 l 1,50,-1
 208 460 l 1,51,-1
 210 528 l 1,52,-1
 230 528 l 1,53,-1
 210 551 l 1,54,-1
 230 667 l 1,55,-1
 210 690 l 1,56,57
 232 712 232 712 232 760 c 1,58,-1
 210 969 l 1,59,-1
 230 1060 l 1,60,-1
 210 1291 l 1,61,-1
 230 1291 l 1,62,-1
 230 1316 l 1,63,64
 216 1316 216 1316 187.5 1337.5 c 128,-1,65
 159 1359 159 1359 142 1362 c 1,66,-1
 152 1362 l 1,67,68
 118 1400 118 1400 32 1431 c 1,69,70
 94 1478 94 1478 509 1478 c 0,71,72
 710 1478 710 1478 964 1431 c 1,73,74
 822.902819856 1350.65299464 822.902819856 1350.65299464 796 1212 c 0,75,76
 783 1145 783 1145 780 1081.5 c 0,77,78
 769.272189349 854.42800789 769.272189349 854.42800789 753 785 c 1,79,-1
 762 803 l 1,80,81
 761 782 761 782 753 718 c 128,-1,82
 745 654 745 654 745 620 c 1,83,84
 745 622 745 622 753.5 654.5 c 128,-1,85
 762 687 762 687 762 704 c 2,86,-1
 762 640 l 1,87,88
 751 549 l 1,89,90
 751 524 751 524 762 483 c 1,91,-1
 762 541 l 1,92,-1
 766 483 l 2,93,94
 766 474 766 474 745 411 c 1,95,96
 762 373 762 373 762 337.5 c 128,-1,97
 762 302 762 302 751.5 253 c 128,-1,98
 741 204 741 204 741 181 c 128,-1,99
 741 158 741 158 722 102 c 128,-1,100
 703 46 703 46 703 19 c 1,101,-1
 723 19 l 1,102,103
 705 -23 705 -23 694.5 -107 c 128,-1,104
 684 -191 684 -191 674.5 -247.5 c 128,-1,105
 665 -304 665 -304 644 -304 c 1,106,-1
 644 -329 l 1,107,-1
 627 -331 l 1,108,-1
 604 -294 l 1,109,-1
 604 -284 l 1,0,1
525 714 m 1,110,-1
 517 712 l 1,111,112
 505 712 505 712 505 777 c 2,113,-1
 505 813 l 1,114,115
 501 769 501 769 476.5 675 c 128,-1,116
 452 581 452 581 452 528 c 1,117,-1
 432 529 l 1,118,-1
 432 505 l 1,119,-1
 452 505 l 1,120,121
 452 490.619047619 452 490.619047619 433.5 444.80952381 c 128,-1,122
 415 399 415 399 412 389 c 1,123,-1
 487 389 l 2,124,125
 535 389 535 389 543 377 c 1,126,127
 541 401 541 401 536 446 c 0,128,129
 525 545 525 545 525 597 c 1,130,-1
 528 597 l 1,131,132
 522 599 522 599 522 628.5 c 128,-1,133
 522 658 522 658 525 667 c 1,134,-1
 505 690 l 1,135,-1
 525 696 l 1,136,-1
 525 714 l 1,110,-1
583 -329 m 1,137,138
 556.340206186 -385.281786942 556.340206186 -385.281786942 563 -443 c 1,139,-1
 544 -443 l 1,140,-1
 544 -399 l 2,141,142
 544 -376 544 -376 562 -329.5 c 128,-1,143
 580 -283 580 -283 583 -265 c 1,144,-1
 583 -329 l 1,137,138
745 770 m 1,145,-1
 745 760 l 1,146,-1
 754 760 l 2,147,148
 750 760 750 760 745 770 c 1,145,-1
525 13 m 2,149,-1
 525 19 l 1,150,-1
 528 19 l 2,151,152
 525 19 525 19 525 13 c 2,149,-1
EndSplineSet
EndChar

StartChar: B
Encoding: 35 66 54
Width: 1059
VWidth: 2308
Flags: HW
HStem: 1497 20G<501 589>
VStem: 240 298<661 685 706 823.948> 277 244<152 268> 461 41<-74.6398 -35.7555> 648 201<117.03 268 269.056 355.594>
LayerCount: 2
Fore
SplineSet
697 -84 m 1,0,-1
 687 -81 l 1,1,-1
 687 -58 l 1,2,-1
 672 -77 l 1,3,4
 661 -72 661 -72 641.5 -60.5 c 0,5,6
 598.260869565 -35 598.260869565 -35 576 -35 c 1,7,8
 541 -73 541 -73 538 -96 c 1,9,10
 522 -96 522 -96 520 -66 c 1,11,-1
 518 -65 l 1,12,-1
 502 -35 l 1,13,14
 502 -80 502 -80 461 -89 c 1,15,16
 454 13 454 13 400 13 c 0,17,18
 353 13 353 13 339 -35 c 1,19,-1
 321 -66 l 1,20,21
 277 -51 277 -51 277 33 c 1,22,-1
 280 268 l 1,23,24
 256 268 256 268 256 338.5 c 128,-1,25
 256 409 256 409 260 429 c 1,26,27
 236 429 236 429 236 570 c 1,28,-1
 240 706 l 1,29,30
 240 796 240 796 229.5 909 c 128,-1,31
 219 1022 219 1022 199 1079 c 1,32,-1
 240 1101 l 1,33,-1
 240 1123 l 1,34,-1
 199 1101 l 1,35,-1
 199 1123 l 1,36,-1
 221 1123 l 1,37,38
 221 1239 221 1239 39 1449 c 1,39,-1
 74 1445 l 1,40,41
 79 1452 79 1452 284.5 1484.5 c 128,-1,42
 490 1517 490 1517 523 1517 c 2,43,-1
 573.5 1517 l 2,44,45
 747.954545455 1517 747.954545455 1517 839.5 1479 c 0,46,47
 915.706214689 1447.36723164 915.706214689 1447.36723164 939.853107345 1417.18361582 c 0,48,49
 989 1355.75 989 1355.75 989 1277.875 c 0,50,51
 989 1128.47058824 989 1128.47058824 909.5 718.5 c 2,52,-1
 884 587 l 1,53,54
 873 587 873 587 869 600 c 1,55,56
 869 559 869 559 850 539 c 128,-1,57
 831 519 831 519 788 498 c 1,58,59
 832 498 832 498 850.5 456 c 128,-1,60
 869 414 869 414 869 360 c 1,61,-1
 849 81 l 1,62,63
 845 75 845 75 826 32.5 c 0,64,65
 783.305882353 -63 783.305882353 -63 750 -63 c 2,66,-1
 745 -63 l 1,67,-1
 751 -70 l 1,68,69
 717 -84 717 -84 697 -84 c 1,0,-1
522 253 m 1,70,-1
 521 197 l 1,71,-1
 521 152 l 1,72,73
 525 152 525 152 546 152 c 0,74,75
 588.058823529 152 588.058823529 152 629 128 c 1,76,-1
 622 128 l 1,77,-1
 629 116 l 1,78,79
 629 150 629 150 648 174 c 1,80,-1
 648 255 l 2,81,82
 648 268 648 268 657 268 c 2,83,-1
 668 268 l 1,84,85
 668 277 668 277 657 290.5 c 128,-1,86
 646 304 646 304 646 325.5 c 128,-1,87
 646 347 646 347 648 360 c 1,88,89
 635 377 635 377 600.5 379.5 c 128,-1,90
 566 382 566 382 556 406 c 1,91,92
 556 391 556 391 550.5 387.5 c 128,-1,93
 545 384 545 384 538.5 386 c 0,94,95
 521 391.384615385 521 391.384615385 521 337 c 1,96,-1
 502 337 l 1,97,-1
 502 312 l 1,98,99
 522 312 522 312 522 253 c 1,70,-1
666 832 m 1,100,-1
 668 845 l 1,101,102
 651 865 651 865 613 868 c 128,-1,103
 575 871 575 871 556 892 c 1,104,-1
 556 868 l 1,105,-1
 521 868 l 1,106,-1
 538 845 l 1,107,-1
 521 845 l 1,108,-1
 521 837 l 2,109,110
 521 826 521 826 524 822 c 1,111,-1
 528 824 l 1,112,113
 538 824 538 824 538 740 c 2,114,-1
 538 706 l 1,115,-1
 521 685 l 1,116,-1
 538 685 l 1,117,-1
 538 661 l 1,118,119
 544 661 544 661 584.5 646 c 128,-1,120
 625 631 625 631 629 623 c 1,121,-1
 629 637 l 1,122,-1
 650 632 l 1,123,-1
 644 620 l 1,124,-1
 648 615 l 1,125,126
 648 633 648 633 658.5 633 c 128,-1,127
 669 633 669 633 669 679 c 1,128,-1
 664 773 l 2,129,130
 664 791 664 791 676 796 c 1,131,132
 666 805 666 805 666 832 c 1,100,-1
EndSplineSet
EndChar

StartChar: C
Encoding: 36 67 55
Width: 1033
VWidth: 2308
Flags: HW
HStem: -216 20G<537 540> -196 21G<530.5 537> 1497 20G<435 721>
VStem: 396 36<-195 -188 -172.672 -58> 445 4<-190 -166> 449 2<-217 -190.376> 520 56<-185.321 -103.547> 520 17<-195.688 -186.217> 576 146<-79.812 -12.0403> 613 39<-219 -94.4705>
LayerCount: 2
Fore
SplineSet
449 474 m 1,0,-1
 469 266 l 1,1,-1
 487 266 l 1,2,-1
 487 219 l 1,3,-1
 522 174 l 1,4,-1
 538 174 l 1,5,6
 574 214 574 214 595 243 c 1,7,8
 592 246 592 246 592 252 c 128,-1,9
 592 258 592 258 597 264.5 c 128,-1,10
 602 271 602 271 605 271 c 128,-1,11
 608 271 608 271 613 266 c 1,12,-1
 613 334 l 1,13,-1
 630 360 l 1,14,-1
 630 406 l 1,15,-1
 703 406 l 1,16,17
 718 404 718 404 791 386.5 c 128,-1,18
 864 369 864 369 886 360 c 1,19,-1
 881 381 l 1,20,-1
 901 360 l 1,21,-1
 919 360 l 1,22,-1
 901 334 l 1,23,-1
 901 290 l 1,24,25
 877 290 877 290 877 251 c 1,26,-1
 881 207 l 1,27,-1
 860 174 l 1,28,-1
 860 128 l 1,29,-1
 840 103 l 1,30,-1
 820 103 l 1,31,32
 820 50 820 50 802 34 c 1,33,-1
 779 57 l 2,34,35
 781 55 781 55 781 48 c 0,36,37
 781 31 781 31 766 31 c 1,38,-1
 761 34 l 1,39,40
 761 8 761 8 757.5 -0.5 c 128,-1,41
 754 -9 754 -9 742.5 -16.5 c 128,-1,42
 731 -24 731 -24 722 -36 c 1,43,-1
 722 -58 l 1,44,45
 705.571428571 -81 705.571428571 -81 683.285714286 -81 c 2,46,-1
 648 -81 l 1,47,-1
 652 -161 l 2,48,49
 655 -208 655 -208 630 -244 c 1,50,-1
 613 -219 l 1,51,52
 613 -162 613 -162 594.5 -97 c 128,-1,53
 576 -32 576 -32 576 -12 c 1,54,-1
 559 -12 l 1,55,56
 559 -53 559 -53 567.5 -126 c 128,-1,57
 576 -199 576 -199 576 -236 c 1,58,59
 559.333333333 -186 559.333333333 -186 558.166666667 -185.5 c 128,-1,60
 557 -185 557 -185 552 -185 c 0,61,62
 537 -185 537 -185 537 -196 c 1,63,64
 526 -196 526 -196 520 -178 c 1,65,66
 520 -164 520 -164 530 -154 c 128,-1,67
 540 -144 540 -144 540 -138 c 2,68,-1
 540 -103 l 1,69,70
 522 -81 522 -81 522 -36 c 1,71,-1
 487 -12 l 1,72,-1
 469 -36 l 1,73,-1
 449 -36 l 1,74,-1
 432 -58 l 1,75,-1
 432 -152 l 1,76,77
 437 -159 437 -159 445 -173 c 1,78,-1
 432 -188 l 1,79,-1
 432 -195 l 1,80,-1
 396 -213 l 1,81,-1
 396 -103 l 2,82,83
 396 -78 396 -78 377.5 -53.5 c 128,-1,84
 359 -29 359 -29 359 -12 c 1,85,-1
 287 -12 l 1,86,-1
 287 13 l 1,87,-1
 247 13 l 1,88,89
 224 41 224 41 224 80.5 c 128,-1,90
 224 120 224 120 226 128 c 1,91,-1
 208 128 l 1,92,-1
 226 151 l 1,93,94
 192 219 192 219 166 243 c 1,95,-1
 166 266 l 1,96,-1
 185 290 l 1,97,-1
 166 312 l 1,98,-1
 167 322 l 1,99,100
 167 348 167 348 147 381 c 1,101,-1
 157 381 l 1,102,-1
 106 637 l 1,103,-1
 127 671 l 1,104,-1
 106 659 l 1,105,106
 103 690 103 690 80 830.5 c 128,-1,107
 57 971 57 971 57 1052 c 128,-1,108
 57 1133 57 1133 92 1230.5 c 128,-1,109
 127 1328 127 1328 185 1377 c 1,110,-1
 215 1354 l 1,111,-1
 208 1377 l 1,112,-1
 226 1400 l 1,113,-1
 247 1400 l 1,114,115
 278 1454 278 1454 344.5 1485.5 c 128,-1,116
 411 1517 411 1517 469 1517 c 2,117,-1
 703 1517 l 1,118,119
 722 1490 722 1490 771.5 1467 c 128,-1,120
 821 1444 821 1444 840 1423 c 1,121,-1
 840 1377 l 1,122,-1
 860 1377 l 1,123,-1
 860 1400 l 1,124,-1
 881 1400 l 1,125,-1
 919 1354 l 1,126,-1
 901 1332 l 1,127,128
 921 1332 921 1332 939.5 1296.5 c 128,-1,129
 958 1261 958 1261 980 1261 c 1,130,-1
 980 1170 l 1,131,-1
 962 1170 l 1,132,-1
 980 1145 l 1,133,-1
 980 983 l 2,134,135
 980 930 980 930 967 791 c 128,-1,136
 954 652 954 652 941 637 c 1,137,-1
 941 613 l 1,138,139
 904 630 904 630 882.5 634 c 128,-1,140
 861 638 861 638 803 638 c 128,-1,141
 745 638 745 638 730 620 c 1,142,143
 710 638 710 638 682 638 c 1,144,-1
 668 637 l 1,145,-1
 648 613 l 1,146,-1
 630 637 l 1,147,-1
 648 659 l 1,148,-1
 648 683 l 2,149,150
 648 704 648 704 630.5 739 c 128,-1,151
 613 774 613 774 613 799 c 1,152,-1
 595 799 l 1,153,154
 588.6 811.8 588.6 811.8 583.8 833.4 c 128,-1,155
 579 855 579 855 574 861.5 c 128,-1,156
 569 868 569 868 561.5 868 c 128,-1,157
 554 868 554 868 549 856 c 128,-1,158
 544 844 544 844 542 844 c 128,-1,159
 540 844 540 844 540 845 c 2,160,-1
 522 824 l 1,161,-1
 487 824 l 1,162,163
 467 774 467 774 467 764 c 128,-1,164
 467 754 467 754 469 752 c 1,165,-1
 449 752 l 1,166,-1
 449 727 l 1,167,-1
 469 727 l 1,168,-1
 469 613 l 2,169,170
 469 594 469 594 459 547.5 c 128,-1,171
 449 501 449 501 449 474 c 1,0,-1
106 659 m 1,172,173
 126 679 126 679 126 686.5 c 128,-1,174
 126 694 126 694 126.5 697.5 c 128,-1,175
 127 701 127 701 127 706 c 1,176,177
 106 691 106 691 106 659 c 1,172,173
449 -166 m 1,178,-1
 449 -190 l 1,179,-1
 445 -173 l 1,180,-1
 449 -166 l 1,178,-1
451 -217 m 1,181,-1
 449 -201 l 1,182,-1
 449 -190 l 1,183,184
 451 -198 451 -198 451 -217 c 1,181,-1
540 -204 m 1,185,186
 537 -201 537 -201 537 -196 c 1,187,-1
 540 -204 l 1,185,186
EndSplineSet
EndChar

StartChar: one
Encoding: 19 49 56
Width: 751
VWidth: 2308
Flags: HW
HStem: -38 46<567 585> 1399 91<612.142 634> 1495 20G<476.5 525 525 560.5> 1495 20G<476.5 525 525 560.5>
VStem: 444 123<38.3489 122.692>
LayerCount: 2
Fore
SplineSet
589 332 m 1,0,-1
 567 79 l 1,1,-1
 585 31 l 1,2,-1
 567 8 l 1,3,-1
 585 8 l 1,4,5
 585 -15 585 -15 606 -38 c 1,6,-1
 567 -38 l 1,7,-1
 545 -16 l 1,8,-1
 525 -16 l 1,9,-1
 510 8 l 1,10,-1
 486 -20 l 1,11,-1
 446 3 l 1,12,13
 444 10 444 10 444 37.5 c 128,-1,14
 444 65 444 65 456 82 c 1,15,-1
 425 55 l 1,16,-1
 370 55 l 1,17,-1
 353 19 l 1,18,19
 353 3 353 3 333 3 c 1,20,-1
 316 24 l 1,21,22
 313 48 313 48 289 343.5 c 0,23,24
 223.196319018 1153.70782209 223.196319018 1153.70782209 208 1186 c 1,25,26
 156 1157 156 1157 64 1135 c 1,27,-1
 45 1181 l 1,28,-1
 64 1207 l 1,29,-1
 45 1204 l 1,30,31
 23.8333333333 1204 23.8333333333 1204 14 1263 c 0,32,33
 12 1275 12 1275 10.5 1283.5 c 0,34,35
 6 1309 6 1309 6 1313 c 1,36,-1
 -15 1313 l 1,37,38
 -15 1319 -15 1319 29 1337.5 c 128,-1,39
 73 1356 73 1356 87 1360 c 2,40,-1
 353 1445 l 1,41,-1
 353 1421 l 1,42,43
 360 1447 360 1447 378.5 1464.5 c 128,-1,44
 397 1482 397 1482 413 1488 c 128,-1,45
 429 1494 429 1494 461.5 1502.5 c 128,-1,46
 494 1511 494 1511 506 1515 c 1,47,-1
 525 1497 l 1,48,-1
 545 1515 l 1,49,50
 602 1515 602 1515 634 1490 c 1,51,-1
 634 1399 l 1,52,-1
 611 1399 l 1,53,-1
 611 1375 l 1,54,-1
 634 1375 l 1,55,-1
 626 1212 l 1,56,57
 645 1212 645 1212 666 1188 c 1,58,59
 658 1143 658 1143 641.5 991.5 c 128,-1,60
 625 840 625 840 606 773 c 1,61,-1
 585 773 l 1,62,63
 585 726 585 726 606 704 c 1,64,-1
 606 517 l 1,65,-1
 571 517 l 1,66,67
 587 510 587 510 587 469 c 1,68,-1
 585 449 l 1,69,-1
 567 426 l 1,70,-1
 567 402 l 1,71,72
 589 402 589 402 589 332 c 1,0,-1
516 14 m 1,73,-1
 525 13 l 1,74,-1
 525 24 l 1,75,-1
 516 14 l 1,73,-1
EndSplineSet
EndChar

StartChar: two
Encoding: 20 50 57
Width: 1179
VWidth: 2308
Flags: HW
HStem: 1497 20G<365 631.5>
VStem: 434 38<-109.55 -84> 767 14<-124.232 -8.48236> 857 40<-138 -46> 951 83<-173 -113>
LayerCount: 2
Fore
SplineSet
432 -81 m 1,0,-1
 411 -84 l 1,1,2
 401 -84 401 -84 394 -79 c 1,3,-1
 387 -99 l 1,4,-1
 371 -91 l 1,5,-1
 379 -122 l 1,6,7
 374 -125 374 -125 363 -125 c 128,-1,8
 352 -125 352 -125 325 -113 c 1,9,-1
 315 -135 l 1,10,-1
 289 -150 l 1,11,-1
 253 -132 l 1,12,-1
 219 -142 l 1,13,-1
 179 -120 l 1,14,-1
 144 -130 l 1,15,-1
 107 -111 l 1,16,-1
 81 -124 l 1,17,-1
 88 -103 l 1,18,-1
 77 -70 l 1,19,-1
 94 -87 l 1,20,21
 98.2745398773 -20.032208589 98.2745398773 -20.032208589 125 57 c 1,22,-1
 119 82 l 1,23,24
 119 135 119 135 160 217 c 1,25,-1
 197 197 l 1,26,-1
 223 209 l 1,27,-1
 280 183 l 1,28,-1
 288 205 l 1,29,-1
 304 195 l 1,30,-1
 455 339 l 1,31,-1
 454 361 l 1,32,-1
 471 361 l 1,33,-1
 505 408 l 1,34,-1
 505 452 l 1,35,-1
 525 452 l 1,36,-1
 525 497 l 1,37,-1
 544 477 l 1,38,-1
 544 543 l 1,39,-1
 525 613 l 1,40,-1
 618 727 l 1,41,-1
 637 727 l 1,42,-1
 637 752 l 1,43,-1
 618 752 l 1,44,-1
 618 760 l 2,45,46
 618 783 618 783 599 824 c 1,47,-1
 563 824 l 1,48,-1
 545 845 l 1,49,-1
 527 845 l 1,50,-1
 527 868 l 1,51,-1
 509 868 l 1,52,-1
 511 858 l 1,53,54
 511 837 511 837 492 799 c 1,55,-1
 472 799 l 1,56,57
 472 774 472 774 455 737 c 128,-1,58
 438 700 438 700 438 659 c 1,59,-1
 455 637 l 1,60,-1
 438 613 l 1,61,-1
 419 637 l 1,62,-1
 404 638 l 1,63,64
 374 638 374 638 356 620 c 1,65,66
 341 638 341 638 284.5 638 c 128,-1,67
 228 638 228 638 207.5 634 c 128,-1,68
 187 630 187 630 149 613 c 1,69,-1
 149 637 l 1,70,71
 137 650 137 650 123 790.5 c 128,-1,72
 109 931 109 931 109 983 c 2,73,-1
 109 1145 l 1,74,-1
 127 1170 l 1,75,-1
 109 1170 l 1,76,-1
 109 1261 l 1,77,78
 135.851851852 1261 135.851851852 1261 149 1296.5 c 128,-1,79
 162.148148148 1332 162.148148148 1332 188 1332 c 1,80,-1
 170 1354 l 1,81,-1
 208 1400 l 1,82,-1
 228 1400 l 1,83,-1
 228 1377 l 1,84,-1
 249 1377 l 1,85,-1
 249 1423 l 1,86,87
 268 1443 268 1443 316 1466.5 c 128,-1,88
 364 1490 364 1490 382 1517 c 1,89,-1
 618 1517 l 2,90,91
 631 1517 631 1517 660.5 1505 c 128,-1,92
 690 1493 690 1493 705 1493 c 128,-1,93
 720 1493 720 1493 726 1495 c 1,94,95
 745 1474 745 1474 779 1470 c 1,96,-1
 834 1400 l 1,97,-1
 852 1400 l 1,98,-1
 870 1377 l 1,99,-1
 862 1354 l 1,100,-1
 889 1377 l 1,101,102
 946 1328 946 1328 980.5 1231 c 128,-1,103
 1015 1134 1015 1134 1015 1052.5 c 128,-1,104
 1015 971 1015 971 991.5 827 c 128,-1,105
 968 683 968 683 965 659 c 1,106,-1
 946 671 l 1,107,-1
 965 637 l 1,108,109
 958 624 958 624 929.5 553 c 0,110,111
 863.097230584 387.575556893 863.097230584 387.575556893 822 381 c 1,112,-1
 830 381 l 1,113,114
 812 342 812 342 812 328 c 128,-1,115
 812 314 812 314 814 312 c 1,116,-1
 795 290 l 1,117,-1
 802 280 l 1,118,119
 835 280 835 280 907 267.5 c 128,-1,120
 979 255 979 255 1005.5 255 c 128,-1,121
 1032 255 1032 255 1051.5 267.5 c 128,-1,122
 1071 280 1071 280 1081 280 c 2,123,-1
 1113 280 l 2,124,125
 1118 280 1118 280 1153 301 c 1,126,-1
 1153 255 l 1,127,-1
 1133 255 l 1,128,-1
 1133 185 l 1,129,-1
 1113 185 l 1,130,-1
 1133 164 l 1,131,132
 1094 75 1094 75 1094 -68 c 1,133,-1
 1072 -68 l 1,134,-1
 1034 -113 l 1,135,-1
 1034 -120 l 2,136,137
 1034 -139 1034 -139 1019.5 -175.5 c 128,-1,138
 1005 -212 1005 -212 993 -219 c 1,139,-1
 953 -173 l 1,140,141
 951 -163 951 -163 951 -127 c 128,-1,142
 951 -91 951 -91 962 -68 c 1,143,-1
 953 -68 l 1,144,-1
 912 -22 l 1,145,-1
 895 -46 l 1,146,-1
 897 -97 l 1,147,148
 897 -133 897 -133 877 -163 c 1,149,-1
 857 -138 l 1,150,151
 857 -59.1666666667 857 -59.1666666667 839.5 -9.58333333333 c 128,-1,152
 822 40 822 40 822 46 c 1,153,154
 781 44 781 44 781 -76 c 0,155,156
 781 -93 781 -93 782.5 -117.5 c 128,-1,157
 784 -142 784 -142 784 -145 c 1,158,159
 767 -43 767 -43 767 -8 c 1,160,-1
 751 -8 l 1,161,-1
 730 14 l 1,162,-1
 730 -22 l 1,163,-1
 714 -22 l 1,164,-1
 696 -7 l 1,165,-1
 690 -8 l 1,166,-1
 690 -58 l 1,167,-1
 653 -81 l 1,168,-1
 653 -58 l 1,169,-1
 637 -36 l 1,170,-1
 626 -36 l 1,171,172
 605 -54 605 -54 605 -124 c 1,173,-1
 563 -35 l 1,174,-1
 565 -48 l 1,175,176
 565 -88 565 -88 545 -130 c 1,177,-1
 545 -124 l 1,178,-1
 527 -124 l 1,179,-1
 509 -77 l 1,180,-1
 517 -12 l 1,181,-1
 509 -12 l 1,182,183
 509 -31 509 -31 492 -57 c 128,-1,184
 475 -83 475 -83 472 -96 c 1,185,-1
 472 -84 l 1,186,187
 466.41509434 -90.9811320755 466.41509434 -90.9811320755 450.70754717 -124.490566038 c 128,-1,188
 435 -158 435 -158 434 -158 c 2,189,-1
 438 -81 l 1,190,-1
 432 -81 l 1,0,-1
EndSplineSet
EndChar

StartChar: three
Encoding: 21 51 58
Width: 1060
VWidth: 2308
Flags: HW
HStem: 656 23<100 142> 1492 20G<367 483.5 519.636 557.5>
VStem: 523 20<284 309>
LayerCount: 2
Fore
SplineSet
536 1512 m 1,0,-1
 663 1490 l 1,1,2
 875.222155328 1335.96779049 875.222155328 1335.96779049 932 1168 c 0,3,4
 956 1097 956 1097 956 1018 c 2,5,-1
 956 817 l 2,6,7
 956 768 956 768 927 684 c 128,-1,8
 898 600 898 600 898 564 c 1,9,-1
 874 531 l 1,10,11
 883 517 883 517 913.5 451 c 128,-1,12
 944 385 944 385 944 377 c 2,13,-1
 944 238 l 1,14,-1
 924 238 l 1,15,16
 924 183 924 183 913.5 162 c 128,-1,17
 903 141 903 141 887.5 117.5 c 128,-1,18
 872 94 872 94 863 77 c 1,19,20
 863 60 863 60 848 37.5 c 0,21,22
 803 -30 803 -30 803 -86 c 1,23,-1
 782 -73 l 1,24,-1
 782 -86 l 1,25,26
 747 -63 747 -63 738 -63 c 128,-1,27
 729 -63 729 -63 705 -74.5 c 128,-1,28
 681 -86 681 -86 669 -86 c 1,29,-1
 669 -63 l 1,30,-1
 614 -63 l 1,31,-1
 614 -86 l 1,32,-1
 596 -86 l 1,33,-1
 577 -63 l 1,34,-1
 577 -86 l 1,35,-1
 504 -86 l 1,36,-1
 466 -113 l 1,37,-1
 414 -109 l 1,38,-1
 343 -16 l 1,39,40
 343 25 343 25 306 80.5 c 128,-1,41
 269 136 269 136 266 142 c 1,42,-1
 266 192 l 1,43,-1
 252 205 l 1,44,-1
 246 192 l 1,45,-1
 226 192 l 1,46,47
 226 206 226 206 246 225 c 128,-1,48
 266 244 266 244 266 261 c 1,49,50
 314 261 314 261 343 284 c 1,51,-1
 523 284 l 1,52,-1
 523 309 l 1,53,-1
 543 309 l 1,54,-1
 543 238 l 1,55,-1
 559 217 l 1,56,-1
 543 192 l 1,57,58
 543 168 543 168 574 168 c 2,59,-1
 577 168 l 1,60,-1
 600 146 l 1,61,-1
 632 146 l 1,62,-1
 669 217 l 1,63,-1
 669 261 l 1,64,-1
 648 284 l 1,65,-1
 648 406 l 1,66,-1
 632 383 l 1,67,-1
 614 406 l 1,68,69
 524 406 524 406 443 416 c 1,70,-1
 449 428 l 1,71,-1
 441 418 l 1,72,-1
 419 485 l 1,73,-1
 419 582 l 1,74,-1
 433 605 l 1,75,-1
 500 605 l 1,76,-1
 518 587 l 1,77,-1
 518 605 l 1,78,79
 547 655 547 655 559 688.5 c 128,-1,80
 571 722 571 722 571 770 c 2,81,-1
 571 817 l 1,82,-1
 536 865 l 1,83,-1
 500 842 l 1,84,-1
 500 865 l 1,85,-1
 481 842 l 1,86,-1
 496 842 l 1,87,88
 484 836 484 836 480.5 829 c 0,89,90
 474.5 817 474.5 817 445 817 c 1,91,-1
 463 795 l 1,92,-1
 410 702 l 1,93,-1
 282 702 l 1,94,-1
 282 726 l 1,95,-1
 242 679 l 1,96,-1
 200 702 l 1,97,-1
 200 679 l 1,98,-1
 180 656 l 1,99,-1
 100 656 l 1,100,-1
 100 679 l 1,101,-1
 142 679 l 1,102,-1
 120 702 l 1,103,-1
 80 1211 l 1,104,-1
 60 1211 l 1,105,106
 58 1212 58 1212 58 1226 c 128,-1,107
 58 1240 58 1240 72.5 1267 c 128,-1,108
 87 1294 87 1294 100 1304 c 1,109,110
 100 1323 100 1323 130 1338.5 c 128,-1,111
 160 1354 160 1354 160 1375 c 1,112,113
 168 1375 168 1375 191 1396.5 c 128,-1,114
 214 1418 214 1418 245 1443.5 c 128,-1,115
 276 1469 276 1469 339.5 1490.5 c 128,-1,116
 403 1512 403 1512 481 1512 c 0,117,118
 490 1512 490 1512 518 1490 c 1,119,-1
 536 1512 l 1,0,-1
EndSplineSet
EndChar

StartChar: eight
Encoding: 26 56 59
Width: 941
VWidth: 2308
Flags: HW
HStem: -196 21G<402.5 411> -81 4<540 556> 1497 20G<331.5 461.5>
VStem: 216 178<152 311.978 337 360.597> 390 21<-193.84 -106.875> 520 200<117.03 268 269.056 355.594>
LayerCount: 2
Fore
SplineSet
216 87 m 1,0,-1
 196 365 l 1,1,2
 196 440.923076923 196 440.923076923 221.5 472.961538462 c 128,-1,3
 247 505 247 505 278 505 c 1,4,5
 236 522 236 522 216 542.5 c 128,-1,6
 196 563 196 563 196 605 c 1,7,-1
 188 594 l 1,8,-1
 176 596 l 1,9,10
 176 609 176 609 151 740.5 c 0,11,12
 76 1135 76 1135 76 1291 c 0,13,14
 76 1353 76 1353 107.5 1399.5 c 128,-1,15
 139 1446 139 1446 189 1470 c 0,16,17
 286.916666667 1517 286.916666667 1517 394 1517 c 2,18,-1
 446 1517 l 2,19,20
 621.181818182 1517 621.181818182 1517 711 1479 c 0,21,22
 789.165605096 1445.92993631 789.165605096 1445.92993631 812.082802548 1416.46496815 c 0,23,24
 860 1354.85714286 860 1354.85714286 860 1273.92857143 c 0,25,26
 860 1109.03921569 860 1109.03921569 781.5 715 c 2,27,-1
 756 587 l 1,28,29
 744 587 744 587 740 600 c 1,30,31
 740 559 740 559 721 539 c 128,-1,32
 702 519 702 519 660 498 c 1,33,34
 704 498 704 498 722 456 c 128,-1,35
 740 414 740 414 740 360 c 1,36,-1
 720 81 l 1,37,38
 715 74 715 74 697 33 c 0,39,40
 654.853658537 -63 654.853658537 -63 622 -63 c 2,41,-1
 616 -63 l 1,42,-1
 624 -70 l 1,43,44
 588 -84 588 -84 570 -84 c 1,45,-1
 558 -81 l 1,46,-1
 558 -58 l 1,47,-1
 542 -77 l 1,48,49
 534 -73 534 -73 513.5 -61 c 0,50,51
 469.083333333 -35 469.083333333 -35 448 -35 c 0,52,53
 434 -35 434 -35 422.5 -100.5 c 128,-1,54
 411 -166 411 -166 411 -196 c 1,55,56
 390 -196 390 -196 390 -144 c 128,-1,57
 390 -92 390 -92 394 -70 c 1,58,-1
 376 -53 l 1,59,-1
 376 -76 l 1,60,-1
 356 -76 l 2,61,62
 347 -76 347 -76 314 -65 c 1,63,-1
 318 -58 l 1,64,65
 285.411764706 -58 285.411764706 -58 240 38.5 c 0,66,67
 220 81 220 81 216 87 c 1,0,-1
520 360 m 1,68,69
 507 377 507 377 472.5 379.5 c 128,-1,70
 438 382 438 382 428 406 c 1,71,72
 428 391 428 391 422.5 387.5 c 128,-1,73
 417 384 417 384 411 386 c 128,-1,74
 405 388 405 388 399.5 377 c 128,-1,75
 394 366 394 366 394 337 c 1,76,-1
 374 337 l 1,77,-1
 374 312 l 1,78,79
 394 312 394 312 394 253 c 2,80,-1
 394 152 l 1,81,82
 398 152 398 152 418.5 152 c 0,83,84
 460.058823529 152 460.058823529 152 501 128 c 1,85,-1
 494 128 l 1,86,-1
 501 116 l 1,87,88
 501 150 501 150 520 174 c 1,89,-1
 520 255 l 2,90,91
 520 268 520 268 528 268 c 2,92,-1
 540 268 l 1,93,94
 540 277 540 277 529 290.5 c 128,-1,95
 518 304 518 304 518 325.5 c 128,-1,96
 518 347 518 347 520 360 c 1,68,69
538 832 m 1,97,-1
 540 845 l 1,98,99
 523 865 523 865 485.5 868 c 128,-1,100
 448 871 448 871 428 892 c 1,101,-1
 428 868 l 1,102,-1
 394 868 l 1,103,-1
 411 845 l 1,104,-1
 394 845 l 1,105,-1
 394 837 l 2,106,107
 394 825 394 825 396 822 c 1,108,-1
 400 824 l 1,109,110
 411 824 411 824 411 740 c 2,111,-1
 411 706 l 1,112,-1
 394 685 l 1,113,-1
 411 685 l 1,114,-1
 411 661 l 1,115,116
 417 661 417 661 458.5 645 c 128,-1,117
 500 629 500 629 501 623 c 1,118,-1
 501 637 l 1,119,-1
 522 632 l 1,120,-1
 516 620 l 1,121,-1
 520 615 l 1,122,123
 520 629.333333333 520 629.333333333 525.5 631.166666667 c 128,-1,124
 531 633 531 633 534 635.5 c 0,125,126
 542 642.166666667 542 642.166666667 542 679 c 1,127,-1
 536 773 l 1,128,129
 536 790 536 790 548 796 c 1,130,131
 538 805 538 805 538 832 c 1,97,-1
542 -77 m 1,132,-1
 556 -81 l 1,133,-1
 540 -81 l 1,134,-1
 542 -77 l 1,132,-1
EndSplineSet
EndChar

StartChar: bracketleft
Encoding: 60 91 60
Width: 841
VWidth: 2308
Flags: HW
HStem: 178 50<785 807>
VStem: 120 329<485.845 762> 138 301<786.666 855 858.814 1199> 381 59<-24 -2> 513 36<-48 -24> 586 19<-70 -48>
LayerCount: 2
Fore
SplineSet
210 1745 m 1,0,-1
 258 1762 l 1,1,2
 528 1748 528 1748 594.5 1748 c 128,-1,3
 661 1748 661 1748 687 1749 c 128,-1,4
 713 1750 713 1750 726 1750 c 1,5,-1
 705 1727 l 1,6,-1
 728 1704 l 1,7,-1
 768 1704 l 1,8,-1
 768 1419 l 1,9,-1
 788 1419 l 1,10,11
 771 1403 771 1403 761 1379 c 1,12,-1
 768 1332 l 1,13,-1
 672 1349 l 1,14,-1
 667 1360 l 1,15,16
 650 1350 650 1350 466 1336 c 1,17,-1
 450 1352 l 1,18,-1
 437 1313 l 1,19,-1
 453 1291 l 1,20,-1
 446 1267 l 1,21,-1
 455 1267 l 1,22,-1
 426 1229 l 1,23,24
 433 1221 433 1221 451 1221 c 2,25,-1
 458 1221 l 1,26,-1
 439 1199 l 1,27,28
 451 632 451 632 449 243 c 1,29,30
 462 219 462 219 496 219 c 1,31,-1
 619 230 l 1,32,33
 656 230 656 230 684 214 c 1,34,-1
 689 228 l 1,35,-1
 829 228 l 1,36,-1
 807 178 l 1,37,-1
 785 178 l 1,38,-1
 805 156 l 1,39,-1
 785 156 l 1,40,41
 781 129 781 129 755.5 82.5 c 128,-1,42
 730 36 730 36 726 8 c 1,43,-1
 686 8 l 1,44,-1
 663 -16 l 1,45,-1
 682 -38 l 1,46,-1
 642 -38 l 1,47,-1
 624 8 l 1,48,-1
 605 8 l 1,49,-1
 605 -70 l 1,50,-1
 586 -70 l 1,51,-1
 588 -48 l 1,52,-1
 571 -24 l 1,53,-1
 551 -24 l 1,54,-1
 549 -48 l 1,55,-1
 531 -48 l 2,56,57
 513 -48 513 -48 513 -21.5 c 128,-1,58
 513 5 513 5 517 23 c 1,59,-1
 500 46 l 1,60,-1
 461 46 l 1,61,-1
 440 23 l 1,62,-1
 440 -24 l 1,63,-1
 381 -24 l 1,64,-1
 383 -2 l 1,65,-1
 324 -2 l 1,66,67
 322 -26 322 -26 282 -26 c 0,68,69
 279 -26 279 -26 275 -25 c 128,-1,70
 271 -24 271 -24 269 -24 c 1,71,-1
 273 -33 l 1,72,-1
 256 -33 l 1,73,74
 256 -56 256 -56 228 -56 c 1,75,-1
 216 -55 l 1,76,-1
 198 -33 l 1,77,-1
 131 394 l 1,78,-1
 151 416 l 1,79,-1
 133 416 l 1,80,-1
 114 440 l 1,81,-1
 136 485 l 1,82,-1
 116 485 l 1,83,84
 120 521 120 521 120 543.5 c 128,-1,85
 120 566 120 566 115.5 623.5 c 128,-1,86
 111 681 111 681 112 710 c 2,87,-1
 114 762 l 1,88,-1
 153 762 l 1,89,90
 153 786 153 786 114 786 c 1,91,92
 138 820 138 820 138 849 c 2,93,-1
 138 855 l 1,94,-1
 120 855 l 1,95,96
 135 1058 135 1058 135 1126.5 c 128,-1,97
 135 1195 135 1195 129 1243 c 1,98,99
 133 1248 133 1248 138 1272.5 c 128,-1,100
 143 1297 143 1297 166 1313 c 1,101,-1
 144 1334 l 1,102,-1
 144 1745 l 1,103,-1
 170 1766 l 1,104,-1
 194 1768 l 1,105,106
 210 1768 210 1768 210 1745 c 1,0,-1
EndSplineSet
EndChar

